<?xml version="1.0" encoding="UTF-8"?>
<svg width="1200pt" height="1200pt" version="1.1" viewBox="0 0 1200 1200" xmlns="http://www.w3.org/2000/svg">
 <path d="m651.36 185.88c-0.875 5.5664-2.5312 10.98-4.918 16.082-51.602 70.078-51.961 156-70.199 235.44l-0.003907-0.003906c-1.6172 16.441 1.1992 33.02 8.1602 48 12 34.441 27.121 68.16 44.762 111.72 14.879-34.559 26.641-61.441 38.039-88.559 3.9609-9.3594 6.1211-19.559 10.441-28.801v0.003907c19.285-41.746 24.344-88.664 14.398-133.56-7.8008-42.602 0-88.078 1.1992-132h9.1211c10.078 43.441 20.039 86.762 31.078 134.4l186.6-161.52 7.5586 7.8008c-45.438 54.082-90.957 108.28-136.56 162.6-47.039 55.441-61.199 122.52-71.039 191.04l7.6797 6.4805c44.398-39.359 96-73.32 131.16-120s53.16-105.96 78.84-159.84l10.199 3.1211c-7.5586 42.961-15.121 85.801-21.84 123.6l124.08-0.003906-1.0781 3.9609h-0.003907c-33.801 9.6289-67.016 21.211-99.48 34.68-19.949 11.008-37.754 25.52-52.559 42.84-10.734 13.637-20.402 28.082-28.922 43.199-25.922 37.559-25.441 36 15.719 58.199 52.922 28.32 106.68 45.602 167.4 24-43.199 33.48-87.238 56.16-142.56 33.961-28.32-12-58.68-18.238-87.238-29.398-18.84-7.4414-33.48-6.8398-46.078 10.078-1.6797 2.2812-5.2812 3-7.6797 4.8008-51.602 40.801-75.961 85.32-56.281 157.68 20.762 76.199 24 157.68 29.398 237.24 2.6406 40.801 10.922 72 51.602 87.359 5.5195 2.1602 10.68 5.3984 16.078 8.1602l-6.1211 9.6016-114.84-21.238v39h0.003907c-13.32-6.25-25.852-14.066-37.32-23.281-18.602-19.32-33.121-21.48-48 3.4805-2.1602 3.9609-7.4414 6-14.398 11.281 0-34.32-20.879-34.559-44.398-31.199h-0.003906c-29.387 4.4023-59.09 6.332-88.801 5.7578 9.3945-7.1133 19.684-12.965 30.602-17.398 60.719-16.922 77.52-66.602 90.719-119.28 6.6016-26.762 13.441-53.52 19.801-80.281 12-50.039-9-94.801-24-139.68-7.1992-21-26.52-24-44.879-7.5586-58.922 51.359-134.52 46.32-204 61.441 48-40.559 121.08-37.68 162-101.88-58.559-21.84-94.922-92.16-172.08-69.238-38.16 11.398-75.48 25.801-113.16 38.641l-0.003906-0.003907c-7.3594 2.6875-15.438 2.6875-22.797 0l80.16-48-108-67.68 3.4805-8.3984c37.078 7.6797 74.281 15.48 111.48 22.922l-0.003906-0.003906c9.6719 3.3242 19.938 4.5508 30.121 3.5977 61.078-16.922 110.88 12.961 162.48 36 28.559 13.078 57.961 24 96 40.199-6.1211-27.359-9-48-15.238-66.961-10.441-32.16-22.199-63.961-35.281-95.039v0.003906c-4.793-8.3008-12.695-14.348-21.961-16.801-52.801-12-105.96-23.281-159-34.68l-11.039-2.3984v-8.3984l176.64-0.003906c-38.281-61.801-67.922-117.72-106.32-166.92-13.441-17.281-48-18.359-73.199-26.039h-0.003906c-15.844-3.4492-31.203-8.8477-45.719-16.078 41.16 0 82.32-1.1992 123.36 0.96094 8.7617 0 18.961 11.039 25.078 19.32 31.559 42.719 61.801 86.16 92.762 129.12 4.4414 6.2383 10.078 12 17.398 19.922 45.844-69.004 49.082-161.29 131.4-205.57z" fill="#002d5d"/>
</svg>
