<?xml version="1.0" encoding="UTF-8"?>
<svg width="1200pt" height="1200pt" version="1.1" viewBox="0 0 1200 1200" xmlns="http://www.w3.org/2000/svg">
 <path d="m1057.1 1071.2c-29.391-59.062-62.156-116.53-95.391-173.53-12-20.625-13.547-36.234 1.3125-56.531 49.922-67.688 83.156-143.86 96.609-226.55 9.4688-57.844 9.9375-117.23 15-183.61-141.24 47.859-269.53 49.219-406.45 0.70312 0 36.469-1.4531 64.312 0.23438 92.062 6.9375 114.47 38.859 221.06 107.06 314.63 15.234 20.859 16.781 36.938 3 60-33.938 56.531-66.141 114.38-95.625 173.39-1.9219 3.7031-3.1406 7.7812-3.8438 12.141-4.6875 26.766 16.453 52.078 43.312 48.469 3.6094-0.46875 6.8438-1.4531 9.7031-3.1406 93-55.781 183.37-54 276.24 0.46875 2.8594 1.6875 6.1406 2.625 9.7031 3.1406 25.547 3.1406 46.453-19.922 43.453-45.469-0.70312-5.7656-1.9219-11.156-4.4531-16.078z" fill="#825192"/>
 <path d="m556.55 417.61c-21.703-14.625-25.219-29.297-25.078-51.375 0.84375-81.609 0.60938-163.31 0.46875-244.92 0-26.391 4.7812-60.703-32.859-61.312-42.141-0.70312-34.547 36.141-34.781 63.234-0.60938 83.062 0.46875 166.08-1.3125 249.14-0.375 13.781-8.8594 31.688-19.547 40.312-62.156 50.156-61.922 120.14 1.6875 170.63 8.3906 6.7031 17.859 18.938 18 28.781 0.9375 112.55 3 225.24-0.9375 337.69-2.5312 71.062-67.078 124.31-137.06 122.53-68.156-1.7812-125.39-55.922-130.45-125.39-2.1562-29.062-0.46875-58.453-0.46875-97.312 17.859 15.938 26.859 29.625 39 33.375 16.078 5.0625 34.547 2.3906 52.078 3-1.9219-17.297 2.3906-39.938-6.9375-50.859-27.609-31.688-59.391-59.859-91.688-87.141-28.453-24-58.219-12.938-59.391 22.781-2.0625 66-3.8438 132.71 3.1406 198.14 3.6094 32.766 21.609 67.453 42.141 94.547 52.312 69.141 137.86 92.297 219.47 65.859 81-26.156 136.78-98.297 138.84-187.31 2.5312-104.06 1.0781-208.31 0.70312-312.47 0-21.844 2.2969-36.844 24.469-51.609 58.453-38.859 58.547-121.22 0.46875-160.45zm-51.703 122.29c-23.156 0-42-18.844-42-42.141s18.844-42 42-42 42.141 18.703 42.141 42-18.844 42.141-42.141 42.141z" fill="#825192"/>
 <path d="m1055.6 361.78c-24.469-112.55-78.375-209.39-160.92-289.55-9-8.7656-41.156-8.8594-49.781-0.23438-80.766 81.234-137.16 176.86-160.45 289.92 101.39 51.938 269.16 51.844 371.06-0.14062zm-143.29-109.92c23.766 0 43.078 19.312 43.078 43.078s-19.312 43.078-43.078 43.078c-23.766 0-43.078-19.312-43.078-43.078s19.312-43.078 43.078-43.078z" fill="#825192"/>
</svg>
