<?xml version="1.0" encoding="UTF-8"?>
<svg width="1200pt" height="1200pt" version="1.1" viewBox="0 0 1200 1200" xmlns="http://www.w3.org/2000/svg">
 <path d="m449.5 848.18c22.887 19.074 61.488 19.02 84.301 0.019531 37.023-30.871 95.215-30.926 132.39-0.019531 22.852 19 61.449 19 84.301 0 19.82-16.5 45.676-23.887 71.133-22.734l-39.992-64.984c-2.3125 1.4141-5.043 2.1562-7.1172 3.8828-37.062 30.852-95.289 30.852-132.35 0-22.852-18.98-61.488-19.055-84.34 0-18.527 15.441-42.332 23.156-66.172 23.156-23.805 0-47.609-7.7148-66.176-23.16-2.0742-1.7266-4.8047-2.4688-7.1172-3.8828l-39.992 64.984c25.457-1.1484 51.312 6.2383 71.133 22.738z" fill="#4d6c6e"/>
 <path d="m449.5 960.68c22.887 19.074 61.488 19.02 84.301 0.019531 37.023-30.871 95.215-30.926 132.39-0.019531 22.852 19 61.449 19 84.301 0 37.062-30.852 95.289-30.852 132.35 0 8.2344 6.8477 18.703 10.344 29.555 12.258l-61.949-100.66c-23.094-13.348-55.52-12.406-75.93 4.5625-37.062 30.852-95.289 30.852-132.35 0-22.852-18.98-61.488-19.055-84.34 0-18.527 15.445-42.332 23.16-66.172 23.16-23.805 0-47.609-7.7148-66.176-23.16-20.41-16.973-52.836-17.91-75.93-4.5625l-61.945 100.66c10.852-1.9141 21.316-5.4141 29.555-12.258 37.059-30.852 95.285-30.852 132.34 0z" fill="#4d6c6e"/>
 <path d="m449.5 735.68c22.887 19.074 61.488 19.02 84.301 0.019531 37.023-30.871 95.215-30.926 132.39-0.019531 22.852 19 61.449 19 84.301 0 3.5-2.9141 7.3438-5.2852 11.184-7.6484l-35.398-57.523c-15.77 5.5234-36.184 3.5586-48.094-6.3789-42.336-35.492-114-35.492-156.41 0-11.855 9.9375-32.281 11.902-48.055 6.375l-35.402 57.523c3.8438 2.3672 7.6914 4.7383 11.188 7.6523z" fill="#4d6c6e"/>
 <path d="m858.82 989.34c-22.852-19-61.449-19-84.301 0-37.062 30.852-95.289 30.852-132.35 0-22.852-18.98-61.488-19.055-84.34 0-18.531 15.445-42.336 23.16-66.176 23.16-23.805 0-47.609-7.7148-66.176-23.16-22.852-19-61.449-19-84.301 0-21.441 17.852-49.938 25.035-77.352 22.23l-39.676 64.473c41.602 17.715 94.82 12.613 129.02-16.066 15.27-12.734 44.973-12.773 60.316 0 42.336 35.488 114.04 35.488 156.37 0 15.309-12.773 44.973-12.773 60.277 0 42.336 35.488 114.04 35.488 156.37 0 15.344-12.773 45.082-12.715 60.277-0.019531 21.207 17.762 48.969 27.543 78.227 27.543 18.031 0 35.305-4.1289 51.023-11.148l-39.863-64.777c-27.414 2.8008-55.91-4.3828-77.352-22.234z" fill="#4d6c6e"/>
 <path d="m75 825v300h54.047c13.023 0 25.113-6.7539 31.938-17.848l289.02-469.65v-112.5z" fill="#4d6c6e"/>
 <path d="m1087.5 187.5c20.727 0 37.5-16.773 37.5-37.5s-16.773-37.5-37.5-37.5c0-20.727-16.773-37.5-37.5-37.5s-37.5 16.773-37.5 37.5h-75c0-20.727-16.773-37.5-37.5-37.5s-37.5 16.773-37.5 37.5h-75c0-20.727-16.773-37.5-37.5-37.5s-37.5 16.773-37.5 37.5h-75c0-20.727-16.773-37.5-37.5-37.5s-37.5 16.773-37.5 37.5h-75c0-20.727-16.773-37.5-37.5-37.5s-37.5 16.773-37.5 37.5h-75c0-20.727-16.773-37.5-37.5-37.5s-37.5 16.773-37.5 37.5h-75c0-20.727-16.773-37.5-37.5-37.5s-37.5 16.773-37.5 37.5c-20.727 0-37.5 16.773-37.5 37.5s16.773 37.5 37.5 37.5v37.5h-37.5v375h221.21l116.29-93.035v-19.465c0-103.55 83.945-187.5 187.5-187.5s187.5 83.945 187.5 187.5v19.465l116.29 93.035h221.21v-375h-37.5zm-75 0v37.5h-75v-37.5zm-150 0v37.5h-75v-37.5zm-150 0v37.5h-75v-37.5zm-150 0v37.5h-75v-37.5zm-375 0h75v37.5h-75zm150 37.5v-37.5h75v37.5z" fill="#4d6c6e"/>
 <path d="m1125 825v300h-54.047c-13.023 0-25.113-6.7539-31.938-17.848l-289.02-469.65v-112.5z" fill="#4d6c6e"/>
</svg>
