<?xml version="1.0" encoding="UTF-8"?>
<svg width="1200pt" height="1200pt" version="1.1" viewBox="0 0 1200 1200" xmlns="http://www.w3.org/2000/svg">
 <path d="m1199.8 701.14c-1.168-5.1289-6.2812-8.3398-11.402-7.168-19.41 4.4258-39.293 6.2344-59.078 5.375-3.8867-0.16797-7.6836-0.46484-11.434-0.82031v-373.27c0-52.215-85.645-85.656-157.49-104.52-97.746-25.656-227.55-39.785-365.48-39.785-137.94 0-267.74 14.129-365.49 39.785-71.848 18.859-157.49 52.301-157.49 104.52v374.28c-16.773 0.039063-33.539-1.8125-49.973-5.5625-5.1289-1.1719-10.234 2.0352-11.402 7.168-1.1719 5.125 2.0352 10.234 7.168 11.402 21.07 4.8125 42.645 6.7695 64.148 5.832 53.977-2.3555 95.836-22.039 122.81-39.535 26.977 17.5 68.832 37.18 122.81 39.535 66.109 2.8867 116.99-22.043 144.17-39.547 26.977 17.504 68.844 37.191 122.83 39.547 66.086 2.9023 116.99-22.043 144.17-39.547 26.977 17.504 68.844 37.191 122.83 39.547 3.5508 0.15625 7.0508 0.23047 10.512 0.23047 61.004-0.003907 107.94-23.211 133.66-39.777 26.973 17.504 68.836 37.191 122.83 39.547 21.496 0.9375 43.078-1.0273 64.148-5.832 5.125-1.1719 8.332-6.2773 7.1602-11.402zm-965.54-461.97c96.211-25.254 224.3-39.164 360.65-39.164 136.36 0 264.44 13.91 360.65 39.164 89.715 23.551 143.28 55.73 143.28 86.09 0 7.6562-3.418 15.426-9.9492 23.148-71.062-57.02-266.61-94.879-493.98-94.879-227.37 0-422.92 37.859-493.98 94.879-6.5352-7.7227-9.9492-15.492-9.9492-23.148-0.003906-30.359 53.559-62.539 143.28-86.09zm840.48 122.32c-23.965 18.234-64.953 35.621-119.18 49.855-96.211 25.254-224.29 39.164-360.65 39.164-136.36 0.003906-264.44-13.906-360.65-39.164-54.227-14.234-95.215-31.625-119.18-49.855 68.566-52.703 261.95-88.914 479.84-88.914 217.89 0 411.26 36.211 479.83 88.914zm-983.76 4.3828c29.277 29.68 87.336 50.484 138.45 63.898 97.746 25.656 227.54 39.789 365.49 39.789 137.94 0 267.74-14.133 365.48-39.789 51.109-13.418 109.17-34.219 138.45-63.898v31.957c0 30.355-53.562 62.543-143.28 86.094-96.211 25.254-224.29 39.164-360.65 39.164-136.36 0-264.44-13.91-360.65-39.164-89.719-23.551-143.28-55.734-143.28-86.094v-31.957zm108.31 293.67c-23.023 15.812-59.992 34.891-108.31 39.148v-260.25c29.277 29.68 87.336 50.484 138.45 63.898 15.215 3.9922 31.211 7.707 47.887 11.133v177.62c-28.539-8.0742-51.262-20.59-67.234-31.562-3.25-2.2305-7.5312-2.2305-10.785 0.003907zm267.01-0.011719c-23.516 16.094-72.766 42.656-137.97 39.816-11.246-0.49219-21.891-1.8359-31.969-3.7539v-178.39c84.203 15.719 184.08 24.402 289.03 24.898v156.59c-48.324-4.2578-85.293-23.34-108.31-39.148-3.25-2.2344-7.5273-2.2344-10.773-0.011719zm396.02 39.816c-53.211-2.3242-93.68-22.93-118.25-39.809-3.2461-2.2305-7.5273-2.2305-10.77-0.007812-22.406 15.332-68.18 40.133-128.86 40.004v-157.43c104.94-0.49609 204.82-9.1797 289.02-24.898v181.29c-9.9102 0.96875-20.297 1.3242-31.137 0.85156zm137.97-39.816c-17.02 11.648-47.516 28.77-87.789 36.27v-182.32c16.68-3.4258 32.672-7.1406 47.887-11.133 51.109-13.418 109.17-34.219 138.45-63.898v257.44c-38.328-7.0156-68.137-22.855-87.773-36.344-3.2461-2.2344-7.5234-2.2344-10.77-0.011719zm21.352 101.18c-4.6133-2.5234-6.3125-8.3086-3.7891-12.922 2.5234-4.6172 8.3125-6.3125 12.922-3.7891 21.227 11.602 55.551 25.824 98.543 27.699 9.8398 0.42969 19.773 0.19922 29.531-0.68359 5.2109-0.49609 9.8711 3.3867 10.344 8.625s-3.3867 9.8711-8.625 10.344c-7.1484 0.64453-14.387 0.97266-21.613 0.97266-3.4922 0-6.9844-0.078126-10.465-0.23047-36.926-1.6094-73.871-11.992-106.85-30.016zm-1011.1 12.777c1.168-5.1289 6.2734-8.332 11.402-7.168 19.41 4.4258 39.285 6.2305 59.082 5.375 30.711-1.3398 60.547-8.9492 88.672-22.613 4.7344-2.3008 10.43-0.32813 12.73 4.4062 2.3008 4.7305 0.32812 10.43-4.4062 12.73-30.484 14.809-62.84 23.059-96.168 24.508-3.4805 0.14844-6.9648 0.23047-10.445 0.23047-18.023 0-36.047-2.0312-53.703-6.0625-5.1289-1.1719-8.3359-6.2773-7.1641-11.406zm1171.8 135.82c-21.074 4.8086-42.656 6.7656-64.148 5.832-53.984-2.3555-95.852-22.047-122.83-39.547-27.18 17.504-78.086 42.445-144.17 39.547-53.996-2.3555-95.855-22.047-122.83-39.547-25.719 16.562-72.656 39.773-133.66 39.777-3.4609 0-6.9609-0.074219-10.512-0.23047-53.988-2.3555-95.852-22.047-122.83-39.547-27.18 17.504-78.059 42.445-144.17 39.547-53.984-2.3555-95.84-22.039-122.82-39.535-26.977 17.5-68.832 37.18-122.81 39.535-21.504 0.9375-43.078-1.0234-64.148-5.832-5.1289-1.168-8.3398-6.2773-7.168-11.402 1.168-5.1289 6.2773-8.332 11.402-7.168 19.406 4.4258 39.297 6.2344 59.078 5.375 53.219-2.3242 93.68-22.93 118.25-39.809 3.25-2.2344 7.5352-2.2344 10.785 0 24.574 16.879 65.035 37.484 118.25 39.809 65.199 2.8281 114.45-23.727 137.97-39.816 3.2461-2.2227 7.5234-2.2227 10.77 0.007813 24.574 16.879 65.043 37.484 118.25 39.809 65.203 2.8516 114.46-23.723 137.97-39.816 3.2461-2.2227 7.5234-2.2227 10.77 0.007813 24.574 16.879 65.035 37.484 118.25 39.809 65.203 2.8281 114.45-23.727 137.97-39.816 3.2461-2.2227 7.5234-2.2227 10.77 0.007813 24.574 16.879 65.043 37.484 118.25 39.809 19.789 0.85547 39.668-0.94531 59.078-5.375 5.1172-1.168 10.234 2.0352 11.402 7.168 1.1875 5.125-2.0234 10.23-7.1523 11.402zm-555.75-67.465c-0.94141-5.1758 2.4961-10.133 7.668-11.07 20.32-3.6914 40.227-10.203 59.172-19.363 4.7383-2.2812 10.43-0.30469 12.723 4.4297 2.2891 4.7344 0.30469 10.43-4.4297 12.723-20.492 9.9062-42.047 16.953-64.059 20.953-0.57812 0.10547-1.1484 0.15625-1.7148 0.15625-4.5156-0.003906-8.5234-3.2305-9.3594-7.8281zm-170.59-31.824c-4.3359-2.9766-5.4375-8.9062-2.457-13.242 2.9766-4.332 8.9023-5.4375 13.242-2.457 24.574 16.879 65.035 37.484 118.25 39.809 5.2539 0.23047 9.3281 4.6758 9.0977 9.9297-0.22266 5.1133-4.4375 9.1055-9.5078 9.1055-0.14062 0-0.28125-0.003906-0.42187-0.007812-57.723-2.5195-101.58-24.848-128.2-43.137zm688.53 165.67c-19.992 13.684-52.898 31.645-96.098 39.484-0.57812 0.10547-1.1484 0.15625-1.7148 0.15625-4.5156 0-8.5234-3.2227-9.3594-7.8242-0.94141-5.1758 2.4961-10.133 7.668-11.07 39.898-7.2422 70.281-23.824 88.746-36.461 4.3438-2.9688 10.27-1.8594 13.238 2.4805 2.9727 4.3398 1.8594 10.266-2.4805 13.234zm-277.43 0.21875c-4.3398-2.9727-5.4492-8.8984-2.4805-13.242 2.9727-4.3398 8.8984-5.4453 13.242-2.4805 20.484 14.023 54.156 31.973 98.25 37.855 5.2109 0.69531 8.875 5.4844 8.1797 10.699-0.64062 4.7852-4.7305 8.2656-9.4297 8.2656-0.41797 0-0.84375-0.027343-1.2695-0.082031-47.812-6.375-84.305-25.824-106.49-41.016zm-448.89 37.18c-5.1328-1.1602-8.3477-6.2617-7.1875-11.391 1.1602-5.1328 6.2773-8.3516 11.391-7.1875 12.918 2.9219 26.168 4.6992 39.391 5.2773 46.547 2.0273 84.641-11.234 108.4-22.715 4.7305-2.2852 10.43-0.30859 12.719 4.4297 2.2891 4.7344 0.30469 10.43-4.4297 12.719-33.746 16.312-70.621 24.82-107.26 24.82-3.4219 0-6.8438-0.074219-10.262-0.22266-14.352-0.62891-28.738-2.5547-42.762-5.7305zm-267.01-0.10547c-5.1289-1.168-8.3398-6.2773-7.168-11.402 1.168-5.1289 6.2773-8.3359 11.402-7.168 19.406 4.4258 39.289 6.2344 59.078 5.3711 53.211-2.3203 93.676-22.93 118.25-39.809 4.3398-2.9805 10.266-1.8789 13.242 2.457 2.9805 4.3359 1.8789 10.266-2.457 13.242-26.633 18.289-70.492 40.621-128.21 43.137-3.4805 0.14844-6.9648 0.23047-10.449 0.23047-18.023 0-36.035-2.0273-53.691-6.0586z" fill="#79552a"/>
</svg>
