<?xml version="1.0" encoding="UTF-8"?>
<svg width="1200pt" height="1200pt" version="1.1" viewBox="0 0 1200 1200" xmlns="http://www.w3.org/2000/svg">
 <path d="m0 253.32v744h336l-235.21-744z" fill="#4d6c6e"/>
 <path d="m864 997.32h336v-744h-100.78z" fill="#4d6c6e"/>
 <path d="m599.99 989.59c49.906 0 83.207-36.012 133.12-36.012 24.84 0 51.516 11.508 72.227 20.438l28.68-97.367c-33.875-9.8047-62.484-31.055-100.89-31.055-49.906 0-83.195 35.988-133.12 35.988v-0.007813c-49.934 0-83.195-35.988-133.12-35.988-38.41 0-67.008 21.254-100.88 31.055l28.68 97.367c20.688-8.9297 47.375-20.438 72.203-20.438 49.922 0.003906 83.211 36.02 133.11 36.02z" fill="#4d6c6e"/>
 <path d="m600.01 459.96c49.559 0 82.598-36 132.16-36 49.57 0 82.609 36 132.17 36 40.906 0 70.691-24.266 107.68-32.832l-37.078 125.15c-12.191 4.1641-56.496 15.695-70.621 15.695-49.547 0-82.586-36.012-132.16-36.012-49.559 0-82.609 36.012-132.16 36.012-49.559 0-82.598-36.012-132.16-36.012s-82.609 36.012-132.17 36.012c-14.113 0-58.414-11.52-70.609-15.695l-37.066-125.15c36.984 8.5664 66.742 32.832 107.66 32.832 49.559 0 82.598-36 132.17-36 49.559 0 82.586 36 132.16 36z" fill="#4d6c6e"/>
 <path d="m600.01 670.78c49.906 0 83.172-36.012 133.07-36.012 49.906 0 83.184 36.012 133.09 36.012 12.098 0 23.207-2.1016 33.828-5.2695l-33.852 113.26c-49.895 0-83.16-35.988-133.08-35.988-49.895 0-83.172 35.988-133.07 35.988-49.895 0-83.16-35.988-133.07-35.988s-83.172 35.988-133.08 35.988l-33.84-113.26c10.621 3.1797 21.742 5.2695 33.828 5.2695 49.906 0 83.172-36.012 133.08-36.012s83.172 36.012 133.07 36.012z" fill="#4d6c6e"/>
</svg>
