<?xml version="1.0" encoding="UTF-8"?>
<svg width="1200pt" height="1200pt" version="1.1" viewBox="0 0 1200 1200" xmlns="http://www.w3.org/2000/svg">
 <path d="m851.76 174.71c-79.547 0-146.53 53.531-167.06 126.47 6.375 12.234 11.859 25.219 16.219 38.531 12-2.8594 24.234-4.3125 36.609-4.3125 87.375 0 158.16 70.781 158.16 158.16 0 7.5469-0.60938 15.234-1.6875 22.688 75.375-18.844 131.06-87 131.06-168.24 0-95.766-77.625-173.39-173.39-173.39zm-350.16 793.31c21.844-12.609 25.312-39 16.781-62.766l-17.156-47.766c-0.9375-2.8594-4.5469-3.7031-6.8438-1.7812l-38.766 32.766c-19.312 16.312-29.391 40.781-16.781 62.766 12.609 21.844 40.781 29.391 62.766 16.781zm89.859 203.63c21.844-12.609 25.312-39 16.781-62.766l-17.156-47.766c-0.9375-2.8594-4.5469-3.7031-6.8438-1.7812l-38.766 32.766c-19.312 16.312-29.391 40.781-16.781 62.766 12.609 21.844 40.781 29.391 62.766 16.781zm137.39-203.63c21.844-12.609 25.312-39 16.781-62.766l-17.156-47.766c-0.9375-2.8594-4.5469-3.7031-6.8438-1.7812l-38.766 32.766c-19.312 16.312-29.391 40.781-16.781 62.766 12.609 21.844 40.781 29.391 62.766 16.781zm-409.92-262.31c23.625 23.391 38.297 55.781 38.297 91.547 0 71.156-57.703 128.76-128.76 128.76-71.062 0-128.76-57.703-128.76-128.76 0-35.859 14.625-68.297 38.297-91.547 4.6875-4.6875 7.0781-10.312 7.0781-16.922v-270.14c0-45.938 37.547-83.531 83.531-83.531 45.938 0 83.531 37.547 83.531 83.531v270.14c0 6.6094 2.3906 12.234 7.0781 16.922zm-73.688 16.688v-226.69c0-9.1406-7.6875-16.922-16.922-16.922s-16.922 7.6875-16.922 16.922v226.69c0 5.5312-2.625 10.312-6.8438 13.453l-16.688 14.156c-14.062 12-21.844 29.062-21.844 47.391 0 34.312 27.844 62.156 62.156 62.156s62.156-27.844 62.156-62.156c0-18.375-7.9219-35.531-21.844-47.391l-17.531-15c-3.7031-3.1406-5.8594-7.6875-5.8594-12.609zm33.234-226.69c0-27.469-22.547-50.062-50.062-50.062-27.469 0-50.062 22.547-50.062 50.062v213.61c0 3.6094-1.4531 6.7031-4.2188 9l-7.5469 6.4688c-21.375 18.141-33.609 44.531-33.609 72.609 0 52.688 42.703 95.391 95.391 95.391s95.391-42.703 95.391-95.391c0-27.938-12.234-54.469-33.609-72.609l-7.5469-6.4688c-2.7656-2.2969-4.2188-5.3906-4.2188-9v-213.61zm570.24 54.938c51.375 0 93.375 42 93.375 93.375s-42 93.375-93.375 93.375h-469.64c-6.7031-16.688-16.078-32.297-28.078-46.078-3.8438-4.4531-5.7656-9.6094-5.7656-15.609v-257.06c0-46.922-27.938-87.609-68.156-106.08 36.469-66.375 107.06-111.23 188.06-111.23 107.77 0 196.92 79.453 212.16 182.86 17.859-9.8438 38.391-15.469 60.234-15.469 69 0 124.92 55.922 124.92 124.92 0 19.781-4.6875 39.234-13.688 57zm-752.86 153.47c3.1406-4.4531 6.4688-8.625 9.9375-12.703 3.8438-4.4531 5.7656-9.6094 5.7656-15.469v-257.06c0-4.0781 0.23438-8.0625 0.60938-12-53.766 30.375-90.234 88.078-90.234 153.94 0 58.922 29.156 111.23 73.781 143.39zm525.52-562.97c-6.4688-6.4688-6.4688-17.062 0-23.531s17.062-6.4688 23.531 0l48.375 48.375c6.4688 6.4688 6.4688 17.062 0 23.531s-17.062 6.4688-23.531 0zm461.06 414c6.4688 6.4688 6.4688 17.062 0 23.531s-17.062 6.4688-23.531 0l-48.375-48.375c-6.4688-6.4688-6.4688-17.062 0-23.531s17.062-6.4688 23.531 0zm78.844-223.55c9.1406 0 16.547 7.4531 16.547 16.547 0 9.1406-7.4531 16.547-16.547 16.547h-68.391c-9.1406 0-16.547-7.4531-16.547-16.547 0-9.1406 7.4531-16.547 16.547-16.547zm-102.38-213.84c6.4688-6.4688 17.062-6.4688 23.531 0s6.4688 17.062 0 23.531l-48.375 48.375c-6.4688 6.4688-17.062 6.4688-23.531 0s-6.4688-17.062 0-23.531zm-223.55-78.844c0-9.1406 7.4531-16.547 16.547-16.547 9.1406 0 16.547 7.4531 16.547 16.547v68.391c0 9.1406-7.4531 16.547-16.547 16.547-9.1406 0-16.547-7.4531-16.547-16.547l-0.046875-68.438z" fill="#002d5d" fill-rule="evenodd"/>
</svg>
