<?xml version="1.0" encoding="UTF-8"?>
<svg width="1200pt" height="1200pt" version="1.1" viewBox="0 0 1200 1200" xmlns="http://www.w3.org/2000/svg">
 <path d="m1074.5 308.31c43.629 44.59 65.449 97.711 65.449 159.36 0 62.613-21.82 115.73-65.449 159.36-43.637 43.629-97.242 65.438-160.79 65.438l-739.92 1.4414c-31.305-0.94922-57.871-12.34-79.695-34.16-22.758-21.809-34.137-48.363-34.137-79.676 0-26.566 9-50.742 27.023-72.574 17.078-20.848 38.895-33.656 65.461-38.402l-1.4297-24.188c0-41.742 14.703-77.789 44.121-108.14 29.402-30.352 64.977-46.477 106.71-48.375 18.965-53.121 51.223-96.27 96.758-129.48 47.426-34.137 100.08-51.223 157.94-51.223 55.023 0 105.3 15.645 150.84 46.957 44.578 29.402 77.301 68.777 98.172 118.09 33.211-19.91 69.727-29.871 109.57-29.871 62.621 0 115.74 21.809 159.38 65.438zm-563.49 654.5c10.434-29.402 35.574-74.461 75.422-135.16 39.844 60.703 64.98 105.76 75.418 135.16 17.074 55.031 11.855 92.977-15.664 113.82-15.176 10.441-35.086 15.668-59.754 15.668-24.664 0-44.59-5.2266-59.766-15.668-27.508-20.848-32.723-58.793-15.656-113.82zm-135.18-66.855c18.023 54.059 13.285 91.523-14.227 112.39-15.176 11.379-35.574 17.074-61.184 17.074-24.668 0-44.578-5.6953-59.766-17.074-27.496-20.871-32.25-58.336-14.234-112.39 8.5469-28.465 33.211-73.523 73.996-135.18 42.688 64.5 67.828 109.55 75.414 135.18zm391.3-45.539c9.4922-29.402 34.152-74.461 73.992-135.16 39.836 60.703 64.508 105.76 73.992 135.16 18.973 55.008 14.234 92.484-14.227 112.39-15.176 11.402-35.098 17.074-59.766 17.074-24.664 0-44.578-5.6719-59.766-17.074-28.457-19.91-33.199-57.387-14.227-112.39z" fill="#002d5d" fill-rule="evenodd"/>
</svg>
