<?xml version="1.0" encoding="UTF-8"?>
<svg width="1200pt" height="1200pt" version="1.1" viewBox="0 0 1200 1200" xmlns="http://www.w3.org/2000/svg">
 <path d="m557.3 581.18h514.05l-76.027 60.352c-1.3125 1.0352-2.4844 2.2422-3.4766 3.5898l-67.273 90.82-147 91.883c-1.9766 1.2422-3.6992 2.8477-5.0898 4.7227l-112.54 149.89c-0.83594 1.1602-1.5352 2.4141-2.0859 3.7344l-53.613 120.48-41.75-152.86v-166.22c0.007812-2.0273-0.3125-4.0469-0.95312-5.9688l-35.598-106.57z" fill="#002d5d"/>
 <path d="m130.55 581.18h387.2l-29.297 87.891c-1.293 3.8633-1.293 8.0391 0 11.902l36.547 109.64v165.67c0.019531 1.6367 0.25391 3.2617 0.69531 4.8359l37.574 138.06-118.69-118.69v-0.003906c-0.89844-0.875-1.8789-1.6602-2.9297-2.3438l-161.94-107.96-17.434-104.52c-0.46875-2.8945-1.6094-5.6406-3.332-8.0195z" fill="#002d5d"/>
 <path d="m857.11 304.99 74.742 56.871c1.5117 1.1758 3.1914 2.1172 4.9805 2.7852l79.32 28.234 52.148 86.793 28.562 66.578-515-0.003906 47.973-79.871 78.883-43.871c2.1953-1.2148 4.125-2.8594 5.6758-4.832l63.539-80.969z" fill="#002d5d"/>
 <path d="m566.31 84.559-40.504 135.09c-0.86328 2.9258-1.0039 6.0195-0.40234 9.0078l15.785 78.883-117.37 50.242v0.003906c-3.3633 1.4414-6.2266 3.8359-8.2461 6.8906-2.0156 3.0508-3.0977 6.625-3.1055 10.285v69.324l-66.32 99.535h-228.26l120.04-173.44 127.62-72.801v-0.003907c2.2266-1.3008 4.1562-3.0469 5.6758-5.125l110.71-147.69z" fill="#002d5d"/>
 <path d="m610.11 69.215 144.21 112.1 57.238 100.12-49.73 19.887v-0.003906c-3.0547 1.2266-5.7305 3.2344-7.7617 5.8242l-64.379 82.066-79.98 44.422h-0.003906c-2.9141 1.5938-5.3516 3.9336-7.0664 6.7773l-54.383 90.527-17.066 12.891h-139.93l55.516-83.461h0.003906c2.0664-3.0742 3.1758-6.6953 3.1875-10.398v-62.551l119.86-51.488c3.9727-1.6797 7.2422-4.6758 9.2656-8.4844 2.0195-3.8086 2.668-8.1953 1.832-12.426l-17.871-89.137z" fill="#002d5d"/>
 <path d="m131.21 731.22c-4.9766 0.015625-9.7383 2.0117-13.246 5.5391-3.5039 3.5312-5.4609 8.3086-5.4414 13.285 0.015625 4.9492 1.9922 9.6914 5.4922 13.191 3.5 3.5039 8.2422 5.4766 13.195 5.4922h150.04c4.9492-0.015625 9.6914-1.9883 13.195-5.4922 3.5-3.5 5.4727-8.2422 5.4883-13.191 0.019531-4.9766-1.9375-9.7539-5.4414-13.285-3.5039-3.5273-8.2695-5.5234-13.242-5.5391z" fill="#002d5d"/>
 <path d="m206.23 862.43c-4.9727 0.019531-9.7383 2.0117-13.242 5.543-3.5039 3.5312-5.4609 8.3086-5.4414 13.281 0.015625 4.9531 1.9922 9.6953 5.4922 13.195s8.2422 5.4727 13.191 5.4922h131.21c4.9727 0.019532 9.7539-1.9375 13.281-5.4453 3.5312-3.5039 5.5234-8.2656 5.543-13.242 0.019531-4.9961-1.957-9.7969-5.4922-13.332-3.5352-3.5352-8.3359-5.5117-13.332-5.4922z" fill="#002d5d"/>
 <path d="m712.54 875.72c-4.9961-0.019531-9.7969 1.957-13.332 5.4922-3.5312 3.5352-5.5117 8.332-5.4883 13.332 0.015625 4.9727 2.0078 9.7383 5.5391 13.242 3.5312 3.5039 8.3086 5.4609 13.281 5.4414h243.74c4.9492-0.015625 9.6953-1.9883 13.195-5.4883 3.5-3.5039 5.4727-8.2461 5.4922-13.195 0.019531-4.9766-1.9414-9.7539-5.4453-13.285-3.5039-3.5273-8.2656-5.5234-13.242-5.5391z" fill="#002d5d"/>
 <path d="m881.26 690.11c-4.9961-0.019531-9.7969 1.957-13.332 5.4922-3.5352 3.5352-5.5117 8.3359-5.4922 13.332 0.019531 4.9766 2.0117 9.7383 5.543 13.242 3.5312 3.5039 8.3086 5.4648 13.281 5.4453h131.21c4.9727 0.019531 9.7539-1.9414 13.281-5.4453 3.5312-3.5039 5.5234-8.2656 5.543-13.242 0.019531-4.9961-1.957-9.7969-5.4922-13.332-3.5352-3.5352-8.3359-5.5117-13.332-5.4922z" fill="#002d5d"/>
 <path d="m150.04 1012.5c-4.9961-0.019531-9.7969 1.957-13.332 5.4922-3.5312 3.5352-5.5078 8.332-5.4883 13.332 0.015625 4.9727 2.0078 9.7383 5.5391 13.242 3.5312 3.5039 8.3086 5.4609 13.281 5.4414h149.9c4.9766 0.019531 9.7539-1.9375 13.285-5.4414 3.5312-3.5039 5.5234-8.2695 5.5391-13.242 0.019532-5-1.957-9.7969-5.4883-13.332-3.5352-3.5352-8.3359-5.5117-13.336-5.4922z" fill="#002d5d"/>
 <path d="m965.69 1012.5c-5-0.019531-9.8008 1.957-13.336 5.4922-3.5312 3.5352-5.5078 8.332-5.4883 13.332 0.015624 4.9727 2.0078 9.7383 5.5391 13.242 3.5312 3.5039 8.3086 5.4609 13.285 5.4414h131.21-0.003906c4.9492-0.015625 9.6953-1.9883 13.195-5.4922 3.5-3.5 5.4727-8.2422 5.4922-13.191 0.019531-4.9766-1.9414-9.7539-5.4453-13.285-3.5039-3.5273-8.2656-5.5234-13.242-5.5391z" fill="#002d5d"/>
</svg>
