<?xml version="1.0" encoding="UTF-8"?>
<svg width="1200pt" height="1200pt" version="1.1" viewBox="0 0 1200 1200" xmlns="http://www.w3.org/2000/svg">
 <path d="m357.84 439.26h254.02c89.062 0 161.53-72.469 161.53-161.53s-72.469-161.53-161.53-161.53-161.53 72.469-161.53 161.53c0 20.766 16.828 37.594 37.594 37.594s37.594-16.828 37.594-37.594c0-47.625 38.719-86.344 86.344-86.344s86.344 38.766 86.344 86.344c0 47.625-38.719 86.344-86.344 86.344h-254.02c-20.766 0-37.594 16.828-37.594 37.594s16.828 37.594 37.594 37.594z" fill="#002d5d"/>
 <path d="m1008.5 314.53c-89.062 0-161.53 72.469-161.53 161.53 0 20.766 16.828 37.594 37.594 37.594s37.594-16.828 37.594-37.594c0-47.625 38.719-86.344 86.344-86.344s86.344 38.719 86.344 86.344-38.719 86.344-86.344 86.344h-402.74c-20.766 0-37.594 16.828-37.594 37.594s16.828 37.594 37.594 37.594h402.74c89.062 0 161.53-72.469 161.53-161.53s-72.469-161.53-161.53-161.53z" fill="#002d5d"/>
 <path d="m760.6 760.74h-303.61c-20.766 0-37.594 16.828-37.594 37.594s16.828 37.594 37.594 37.594h303.61c47.625 0 86.344 38.766 86.344 86.344 0 47.625-38.719 86.344-86.344 86.344s-86.344-38.766-86.344-86.344c0-20.766-16.828-37.594-37.594-37.594s-37.594 16.828-37.594 37.594c0 89.062 72.469 161.53 161.53 161.53s161.53-72.469 161.53-161.53-72.469-161.53-161.53-161.53z" fill="#002d5d"/>
 <path d="m67.594 439.26h141.52c20.766 0 37.594-16.828 37.594-37.594s-16.828-37.594-37.594-37.594l-141.52 0.046875c-20.766 0-37.594 16.828-37.594 37.594s16.828 37.594 37.594 37.594z" fill="#002d5d"/>
 <path d="m67.594 637.6h389.39c20.766 0 37.594-16.828 37.594-37.594s-16.828-37.594-37.594-37.594h-389.39c-20.766 0-37.594 16.828-37.594 37.594s16.828 37.594 37.594 37.594z" fill="#002d5d"/>
 <path d="m308.26 760.74h-240.66c-20.766 0-37.594 16.828-37.594 37.594s16.828 37.594 37.594 37.594h240.66c20.766 0 37.594-16.828 37.594-37.594s-16.828-37.594-37.594-37.594z" fill="#002d5d"/>
</svg>
