<?xml version="1.0" encoding="UTF-8"?>
<svg width="1200pt" height="1200pt" version="1.1" viewBox="0 0 1200 1200" xmlns="http://www.w3.org/2000/svg">
 <path d="m406.8 549.6c19.199 12 37.199 24 55.199 37.199 8.3984 6 19.199 9.6016 30 9.6016l55.199-1.1992-14.398 25.199c-6 10.801-2.3984 24 8.3984 30 3.6016 2.3984 7.1992 2.3984 10.801 2.3984 7.1992 0 15.602-3.6016 19.199-10.801l27.602-49.199h8.3984c27.602-1.1992 49.199-24 49.199-51.602 0-10.801-4.8008-21.602-10.801-30l202.8-356.4c24 57.602 68.398 183.6 33.602 285.6-24 69.602-21.602 145.2-13.199 205.2h3.6016c6 0 10.801 1.1992 15.602 3.6016 3.6016-2.3984 8.3984-3.6016 13.199-3.6016-8.3984-56.398-12-128.4 10.801-194.4 43.199-130.8-25.199-289.2-45.602-331.2-4.8008-8.3984-8.3984-14.398-15.602-19.199-10.801-6-19.199-3.6016-25.199 6l-220.8 384h-2.3984l-97.199 2.3984c-34.801-24-112.8-74.398-158.4-85.199l-6-1.1992c-26.398-6-55.199-1.1992-78 15.602-22.801 15.602-37.199 40.801-40.801 68.398l-25.199 216v1.1992h194.4c5.9961-55.199 15.598-158.4 15.598-158.4z" fill="#825192"/>
 <path d="m332.4 375.6c56.398 18 115.2-13.199 133.2-68.398s-13.199-115.2-68.398-133.2c-56.398-18-115.2 13.199-133.2 68.398-18 55.199 12 115.2 68.398 133.2z" fill="#825192"/>
 <path d="m105.6 944.4c15.602-19.199 39.602-30 63.602-30s48 10.801 63.602 30c16.801 20.398 45.602 45.602 79.199 45.602 33.602 0 62.398-25.199 79.199-45.602 15.602-19.199 38.398-30 63.602-30 25.199 0 48 10.801 63.602 30 16.801 20.398 45.602 45.602 79.199 45.602 8.3984 0 16.801-1.1992 25.199-4.8008l85.199-177.6c10.801-22.801-6-49.199-31.199-49.199h-646.8v230.4c32.398-1.1953 58.801-25.195 75.602-44.398z" fill="#825192"/>
 <path d="m1054.8 978c-12-14.398-36-14.398-48 0-24 28.801-64.801 63.602-118.8 63.602s-94.801-34.801-118.8-63.602c-6-7.1992-14.398-10.801-24-10.801-9.6016 0-18 3.6016-24 10.801-24 28.801-64.801 63.602-118.8 63.602s-94.801-34.801-118.8-63.602c-12-14.398-36-14.398-48 0-24 28.801-64.801 63.602-118.8 63.602s-94.801-34.801-118.8-63.602c-6-7.1992-14.398-10.801-24-10.801-9.6016 0-18 3.6016-24 10.801-24 28.801-63.602 62.398-115.2 63.602l0.003906 62.398c50.398-1.1992 98.398-21.602 140.4-60 42 39.602 92.398 61.199 144 61.199 51.602 0 100.8-21.602 144-61.199 42 39.602 92.398 61.199 144 61.199 51.602 0 100.8-21.602 144-61.199 42 39.602 92.398 61.199 144 61.199 51.602 0 100.8-21.602 144-61.199 40.801 38.398 90 60 139.2 60v-63.602c-61.199-1.1992-99.598-34.797-123.6-62.398z" fill="#825192"/>
 <path d="m898.8 675.6-7.1992 27.602c-1.1992 3.6016-6 3.6016-7.1992 0l-7.1992-28.801c-1.1992-3.6016-4.8008-4.8008-7.1992-3.6016-21.602 9.6016-48 34.801-52.801 80.398-9.6016 12-26.398 37.199-31.199 68.398-1.1992 7.1992 6 12 12 8.3984 12-8.3984 20.398-10.801 27.602-6 9.6016 26.398 24 50.398 37.199 64.801-19.199 8.3984-34.801 26.398-42 49.199-2.3984 6 4.8008 12 10.801 9.6016 16.801-9.6016 36-14.398 55.199-14.398 20.398 0 39.602 4.8008 55.199 14.398 6 3.6016 13.199-2.3984 10.801-9.6016-7.1992-22.801-22.801-40.801-42-49.199 13.199-15.602 27.602-38.398 37.199-64.801 7.1992-4.8008 15.602-2.3984 27.602 6 6 3.6016 13.199-1.1992 12-8.3984-6-31.199-21.602-56.398-31.199-68.398-6-45.602-31.199-70.801-52.801-80.398-1.207 0-3.6055 2.3984-4.8047 4.8008zm-44.402 61.199c-7.1992 0-13.199-6-13.199-13.199 0-7.1992 6-13.199 13.199-13.199 7.1992 0 13.199 6 13.199 13.199 0.003906 7.1992-5.9961 13.199-13.199 13.199z" fill="#825192"/>
</svg>
