<?xml version="1.0" encoding="UTF-8"?>
<svg width="1200pt" height="1200pt" version="1.1" viewBox="0 0 1200 1200" xmlns="http://www.w3.org/2000/svg">
 <path d="m1125 271.88h-262.5c-5.25 0-9.375 4.125-9.375 9.375v103.12h-56.25v-103.12c0-5.25-4.125-9.375-9.375-9.375h-225c-5.25 0-9.375 4.125-9.375 9.375v103.12h-56.25v-103.12c0-5.25-4.125-9.375-9.375-9.375h-262.5c-5.25 0-9.375 4.125-9.375 9.375v286.12c6-4.875 12.375-9.75 18.75-14.25 33.75-24.375 71.625-42.75 113.25-55.125 6-2.25 12-3.75 18.375-5.25-0.375-1.875-0.375-3.375-0.375-5.25 0-36 29.625-65.625 65.625-65.625 33.375 0 61.5 25.5 64.875 58.125 0.375 0.375 0.375 0.75 0 1.5 0.375 0.375 0.75 1.125 0.375 1.875 0.375 1.125 0.375 2.625 0.375 4.125 0 4.875-0.375 9.375-1.5 13.5-1.5-2.25-4.5-4.125-7.875-4.125h-3-0.75c-2.25 0-4.5 0-6.75 0.375h-0.375c-6.75 0-12.75 0-19.125 0.375h-0.375c-16.875 1.125-33.375 3-49.125 5.25-6.375 1.125-12.75 2.25-19.125 3.75-2.625 0.375-4.875 1.125-7.5 1.5-3.75 0.75-7.5 1.875-11.25 3-6 1.125-12 3-18 4.875-3.75 1.125-7.5 2.25-10.875 3.375-5.625 1.875-10.875 3.75-16.125 6-7.875 3-15.375 6-22.875 9.75-5.625 2.625-11.625 5.625-17.25 8.625-18 9.375-34.875 20.25-50.625 32.625-5.25 4.125-10.5 8.25-15.375 12.75-1.125 1.125-2.25 1.875-3.375 3-138.38 122.62-149.62 317.62-150 326.25 0 2.625 0.75 4.875 2.625 6.75s4.125 3 6.75 3h187.5c5.25 0 9.375-4.125 9.375-9.375 0-23.625 1.125-45.375 3.75-65.625 0.375-2.625 0.75-5.625 1.125-8.25 0.375-3.75 0.75-7.125 1.5-10.5 0.75-6 1.5-12 2.625-18 3.375-18.375 7.5-35.625 12-52.125 4.875-16.125 10.125-31.5 15.75-45.75 0.375-0.375 0.375-0.75 0.375-1.125 2.25-6 4.875-11.625 7.875-17.25 1.875-4.875 4.125-9.375 6.75-13.875 1.125-2.625 2.625-5.25 4.125-7.875 3.375-7.125 7.5-13.875 11.625-20.625 7.125-12 15-23.25 22.875-33.375 4.125-6 8.625-11.625 13.125-16.875 7.5-9 15.375-17.25 22.875-24.75 4.125-4.125 8.25-8.25 12-11.625l2.25-1.875c0.375-0.75 1.125-1.125 1.875-1.5 0.75 0.375 1.125 0.75 1.875 1.125 6.375 3 12.375 3 15 3 2.25 0 4.875 0 7.125-0.75-55.5 46.125-121.88 127.88-141.38 263.25-0.75 4.125-1.5 8.25-1.875 12.75-0.375 1.875-0.375 4.125-0.75 6h39.75c-8.25 38.625-9.75 63.75-9.75 65.25 0 2.625 0.75 4.875 2.625 6.75s4.125 3 6.75 3h187.5c5.25 0 9.375-4.125 9.375-9.375 0-23.625 1.125-45.375 3.75-65.625 0.375-2.625 0.75-5.625 1.125-8.25 0.375-3.75 0.75-7.125 1.5-10.5 0.75-6 1.5-12 2.625-18 1.5-9 3.375-18 5.25-26.625s4.125-17.25 6.75-25.5c1.875-7.5 4.5-15 7.125-22.125 2.625-8.625 5.625-16.5 9-24.375 4.125-10.5 9-20.25 13.5-30 2.625-5.25 5.25-10.5 8.25-15.375 4.125-7.875 8.625-15 13.125-22.125 9.375-15 19.5-28.5 30-40.875 2.625-3 5.25-6 7.875-9 3.375-4.125 6.75-7.5 10.125-11.25 2.25-2.625 4.875-4.875 7.125-7.125 3.75-4.125 7.5-7.5 11.25-10.875l3.75-3.75h0.375c0.375 0.75 1.125 0.75 1.5 1.125 6.375 3.375 12.75 3.375 15.375 3.375 2.25 0 4.875 0 7.125-0.75-55.5 46.125-121.88 127.5-141.38 263.25-0.75 4.125-1.5 8.25-1.875 12.75-0.375 1.875-0.375 4.125-0.75 6h24c1.125-5.25 2.25-10.125 3.375-15.75 0.375-1.125 0.375-1.875 0.75-3 24-103.88 93.375-278.25 287.62-336.75 6-1.875 12-3.375 18.375-5.25-0.375-1.5-0.375-3.375-0.375-4.875 0-36 29.625-65.625 65.625-65.625 33.375 0 61.125 25.125 64.5 57.375h0.375c0.375 0.75 0.375 1.5 0 2.25 0.375 0.375 0.75 1.125 0.375 1.875 0.375 1.125 0.375 2.625 0.375 4.125 0 4.875-0.375 9.375-1.5 13.5-1.5-2.25-4.5-4.125-7.875-4.125h-3.75c-2.25 0-4.5 0-6.75 0.375h-0.375c-6.75 0-12.75 0-19.125 0.375h-0.75c-16.875 1.125-33 3-48.75 5.25-6.75 1.125-13.125 2.625-19.125 3.75-2.625 0.375-4.875 1.125-7.125 1.5-4.125 0.75-7.875 1.875-11.625 2.625v0.375c-6.375 1.5-12.375 3-18 4.875-2.625 0.75-4.875 1.5-7.125 2.25-18.375 6-35.625 13.125-51.375 21-9.75 4.875-19.125 9.75-27.75 15.375-10.875 6.75-21.375 13.875-30.75 21.375-3.75 2.625-7.875 6-11.625 9.375-6 4.875-12 10.125-17.25 15.375-1.5 1.5-3 2.625-4.5 4.5-5.625 5.25-10.875 10.875-15.75 16.5-2.625 2.625-4.875 5.25-7.125 7.875-6 7.125-11.625 13.875-16.875 21.375-5.25 7.125-10.5 14.625-15 21.75-3.375 4.875-6.375 9.75-9 14.625-3 4.875-6 9.75-8.625 14.25-0.375 1.125-0.75 1.875-1.125 2.625-4.125 7.875-8.25 15.375-11.625 23.25-6.75 14.25-12.75 28.125-17.625 42-1.5 3.375-2.625 6.75-3.75 10.125-1.5 3.375-2.25 6.75-3.375 10.125-1.5 3.75-2.625 7.5-3.375 11.25-2.25 6.75-4.125 13.5-6 20.25-1.125 4.5-2.25 9-3.375 13.125-0.375 2.625-1.125 4.875-1.5 7.125-0.75 4.125-1.875 7.875-2.25 11.625-8.25 38.625-9.75 63.75-9.75 65.25 0 2.625 0.75 4.875 2.625 6.75s4.125 3 6.75 3h187.5c5.25 0 9.375-4.125 9.375-9.375 0-23.625 1.125-45.375 3.75-65.625 0.375-2.625 0.75-5.625 1.125-8.25 0.375-3.75 0.75-7.125 1.5-10.5 0.75-6 1.5-12 2.625-18 1.5-9 3.375-18 5.25-26.625s4.125-17.25 6.75-25.5c1.875-7.5 4.5-15 7.125-22.125 2.625-8.625 5.625-16.5 9-24.375 4.125-10.5 9-20.25 13.5-30 2.625-5.25 5.25-10.5 8.25-15.375 4.125-7.875 8.625-15 13.125-22.125 9.375-15 19.5-28.5 30-40.875 2.625-3 5.25-6 7.875-9 3.375-4.125 6.75-7.5 10.125-11.25 2.25-2.625 4.875-4.875 7.125-7.125 3.75-4.125 7.5-7.5 11.25-10.875l3.75-3.75h0.375c0.375 0.75 1.125 0.75 1.5 1.125 6.375 3.375 12.75 3.375 15.375 3.375 2.25 0 4.875 0 7.125-0.75-55.5 46.125-121.88 127.5-141.38 263.25-0.75 4.125-1.5 8.25-1.875 12.75-0.375 1.875-0.375 4.125-0.75 6h309.38c5.25 0 9.375-4.125 9.375-9.375v-562.5c0-5.25-4.125-9.375-9.375-9.375zm-370.88 229.12c-1.5-2.25-4.5-4.125-7.875-4.125h-3.75c-2.25 0-4.5 0-6.75 0.375h-0.375c-6.75 0-12.75 0-19.125 0.375h-0.75c-16.875 1.125-33 3-48.75 5.25-6.75 1.125-13.125 2.625-19.125 3.75-2.625 0.375-4.875 1.125-7.125 1.5-4.125 0.75-7.875 1.875-11.625 2.625v0.375c-6.375 1.5-12.375 3-18 4.875-2.625 0.75-4.875 1.5-7.125 2.25-18.375 6-35.625 13.125-51.375 21-9.75 4.875-19.125 9.75-27.75 15.375-10.875 6.75-21.375 13.875-30.75 21.375-3.75 2.625-7.875 6-11.625 9.375-6 4.875-12 10.125-17.25 15.375-1.5 1.5-3 2.625-4.5 4.5-5.625 5.25-10.875 10.875-15.75 16.5-2.625 2.625-4.875 5.25-7.125 7.875-6 7.125-11.625 13.875-16.875 21.375-5.25 7.125-10.5 14.25-15 21.75-3.375 4.875-6.375 9.75-9 14.625-3 4.875-6 9.75-8.625 14.25-0.375 1.125-0.75 1.875-1.125 2.625-4.125 7.875-8.25 15.375-11.625 23.25-6.75 14.25-12.75 28.125-17.625 42-1.5 3.375-2.625 6.75-3.75 10.125-1.5 3.375-2.25 6.75-3.375 10.125-1.5 3.75-2.625 7.5-3.375 11.25-2.25 6.75-4.125 13.5-6 20.25-1.125 4.5-2.25 9-3.375 13.125h-19.125c24-103.88 93.375-278.25 287.62-336.75 6-1.875 12-3.375 18.375-5.25-0.375-1.5-0.375-3.375-0.375-4.875 0-36 29.625-65.625 65.625-65.625 33.375 0 61.125 25.125 64.5 57.375h0.375c0.375 0.375 0.375 1.125 0 1.875 0.375 0.75 0.75 1.5 0.375 2.25 0.375 1.125 0.375 2.625 0.375 4.125 0 4.875-0.375 9.375-1.5 13.5z" fill="#4d6c6e"/>
</svg>
