<?xml version="1.0" encoding="UTF-8"?>
<svg width="1200pt" height="1200pt" version="1.1" viewBox="0 0 1200 1200" xmlns="http://www.w3.org/2000/svg">
 <path d="m176.53 276.09c0.36328 0.40625 0.72656 0.80469 1.0938 1.2031 1.332 1.4531 2.6719 2.8711 4.0273 4.2383 0.16406 0.16797 0.32812 0.33984 0.49219 0.50781 1.6055 1.6055 3.2305 3.1523 4.8672 4.6406 0.12109 0.10937 0.24609 0.21875 0.36719 0.32812 1.6055 1.4492 3.2227 2.8516 4.8555 4.1953 0.058594 0.046875 0.11719 0.097656 0.17578 0.14844 12.254 10.082 25.07 17.176 37.41 22.145 3.2422 1.3047 6.4492 2.4688 9.6094 3.4961 0.70703 0.23047 1.4102 0.45312 2.1094 0.67187 0.53125 0.16797 1.0625 0.32422 1.5898 0.48047 31.344 9.4141 56.75 6.3555 56.75 6.3555s0.007813-0.023438 0.007813-0.03125c0.12891-0.40234 7.8633-24.629 4.8398-57.023-0.0625-0.67578-0.125-1.3477-0.19531-2.0312-0.066406-0.64062-0.14062-1.2852-0.21484-1.9297-1.8633-15.957-6.4531-33.688-15.887-51.465-0.027344-0.050781-0.054688-0.097656-0.078126-0.14844-1-1.8828-2.0586-3.7617-3.168-5.6406-0.082032-0.14062-0.16406-0.28125-0.24609-0.42188-1.1367-1.9062-2.3281-3.8125-3.5859-5.7109-0.125-0.1875-0.25781-0.375-0.38281-0.56641-1.0742-1.6094-2.1992-3.2109-3.3633-4.8125-0.32031-0.4375-0.63672-0.87891-0.96484-1.3164-1.332-1.7852-2.6953-3.5703-4.1445-5.3438-9.1367-11.195-19.371-20.648-30.004-28.672-49.062-37.02-106.8-43.043-106.8-43.043s-14.879 91.773 36.438 154.61c1.4453 1.7773 2.9219 3.4727 4.4062 5.1328z" fill="#4d6c6e"/>
 <path d="m278.16 437.14c5.3945-8.2422 8.2461-14.164 8.2461-14.164s-5.3047-5.7109-14.297-12.891c-19.379-15.473-57.648-38.473-109.29-30.848-75.609 11.16-124.08 76.031-124.08 76.031s67.051 56.355 142.66 45.191c53.602-7.9141 83.621-43.246 96.762-63.32z" fill="#4d6c6e"/>
 <path d="m1161.3 887.2c-18.699-16.871-46.887-39.754-88.301-68.211-15.926-6.457-85.602-47.891-74.957-275.52l5.3242-170.88c-50.848 50.176-162.93 84.352-296.45 84.352-132.56 0-243.94-33.699-295.28-83.289l3.5859 70.91-89.438-110.16-4.9531 15.215-16.527 2.1797 40.195 49.504-39.902 5.4414c8.9922 7.1797 14.297 12.891 14.297 12.891s-2.8477 5.9219-8.2461 14.164l54.23-7.3945 52.707 64.91 4.2695 84.414c0.11719 0 19.551 109.62-103.41 170.22l-78.352 36.438c29.207 5.918 69.562 13.094 104.92 16.293 25.207-32.008 35.098-56.613 35.277-57.086l25.836 9.7734c-1.543 4.1641-39.945 103.03-167.69 169.27-18.008 9.332-27.723 18.566-34.086 42.223 27.223-13.824 72.684-25.199 135.3-0.5 18.16 7.2109 29.383 8.6758 47.852-1.543 2.543-1.8906 91.926-63.293 141.89-2.543 4.125 5.0703 8.2891 10.547 12.414 16.309 35.203 49.434 101.22 60.883 150.38 26.219 84.559-59.922 160.06-70.445 218.36-30.48l17.93 12.242c37.52 25.527 46.426 31.578 80.82 67.402l32.312 33.699c6.4375-23.715 10.566-69.23-23.211-128.32-15.078-26.355-16.582-47.293-4.5117-62.195 23.441-28.977 96.164-18.18 147.41-5.9375zm-625.57-22.074h-27.609v-177.06h27.609zm82.859-40.602h-27.609l0.003906-264.79h27.609zm84.445-71.469h-27.609v-177.06h27.609zm86.102 112.07h-27.609v-305.39h27.609zm91.5 0.53906h-27.609v-264.78h27.609z" fill="#4d6c6e"/>
 <path d="m706.88 429.29c178.41 0 298.25-60.902 298.25-117.78 0-10.176-3.9102-20.277-10.879-30.082-0.13672 10.629-3.3047 21.207-10.133 30.043-37.52 48.43-143.32 82.883-250.9 82.883-5.668 0-11.336-0.097656-17.004-0.28906-81.012-2.7773-147.45-25.258-173.36-58.668-10.488-13.535-14.305-28.59-10.988-43.57 9.4844-43.109 83.25-71.969 174.75-68.922 55.562 1.9102 103.49 18.605 122.04 42.551 9.4102 12.125 9.4844 23.387 7.8672 30.672-7.3242 33.508-67.746 49.473-123.39 47.137-37.52-1.2734-66.422-13.711-80.742-27.781-12.93-12.699-13.027-18.625-12.828-22.441 0.87109-16.555 23.723-26.82 51.203-26.82 27.484 0 49.766 10.27 49.766 22.941 0 9.3164-10.648 19.5-27.145 24.285 6.3125 0.99219 12.812 1.9375 20.668 2.207 58.262 1.7148 93.352-15.789 95.473-25.469 0.19141-0.82812 0.73438-3.3555-2.6992-7.8086-11.258-14.48-49.586-30.094-101.14-31.867-81.129-2.6406-141.32 22.191-146.83 47.254-1.5039 6.9023 0.38672 13.668 5.8594 20.707 15.695 20.242 65.047 44.98 152.42 47.988 115.25 3.9336 215.35-33.449 245.12-71.895 5.5156-7.1328 6.3633-16.328 2.1602-23.984-8.9844-16.387-39.754-40.219-99.059-57.875l0.058594-0.19922c-47.637-12.23-102.29-18.773-158.54-18.773-178.37 0-298.21 60.902-298.21 117.78-0.003907 56.875 119.84 117.78 298.21 117.78z" fill="#4d6c6e"/>
</svg>
