<?xml version="1.0" encoding="UTF-8"?>
<svg width="1200pt" height="1200pt" version="1.1" viewBox="0 0 1200 1200" xmlns="http://www.w3.org/2000/svg">
 <path d="m1185.6 1072.6c-10.121-1.375-68.223-6.6562-65.055-25.805 7.6562-46.297-13.762-61.969-36.113-66.551v-20.129c0-2.2031-1.7891-3.9922-3.9922-3.9922h-268.53v-167.32c0-5.4961-4.4531-9.957-9.9531-9.957h-17.449c-36.09-41.094-29.973-219.02-29.973-237.65 0-6.1641-2.6992-10.977-7.8398-14.68-10.621-7.6445-31.727-10.512-61.426-10.512-35.242 0-58.391 4.0352-66.266 15.309-1.9727 2.8242-3.0039 6.1016-3.0039 9.8867 0 17.418 5.3516 174.09-23.445 227.98-1.1016 2.0625-2.2578 3.957-3.4609 5.7031-1.2031-1.7461-2.3594-3.6406-3.4609-5.6992-26.844-50.246-24.012-189.82-23.504-222.6 0.039063-2.3828 0.0625-4.2031 0.0625-5.3789 0-5.0664-1.8281-9.2188-5.3281-12.598-9.5547-9.2148-31.68-12.598-63.938-12.598-31.449 0-53.27 3.2109-63.199 11.91-3.9883 3.4961-6.0664 7.8711-6.0664 13.281 0 2.2031 0.085938 6.6523 0.17578 12.812 0.48047 32.375 1.1133 112.63-9.6602 169.96l-27.164 27.164v-60.219c0-8.9219-5.1562-11.066-11.473-4.7578l-64.953 64.961v-60.203c0-8.9219-5.168-11.066-11.465-4.7578l-64.969 64.977v-60.219c0-8.9219-5.1562-11.066-11.473-4.7578l-11.512 11.512v-69.57h4.9766v-14.934h-39.82v14.934h4.9766v99.434l-19.914 19.91v-119.34h4.9766v-14.934h-39.82v14.934h4.9766v149.21l-1.5352 1.5352h-24.941c-5.5039 0-9.957 4.4609-9.957 9.957v262.43h-9.9531c-5.5039 0-9.9531 4.4609-9.9531 9.9531v29.867h756.64v-29.867c0-5.4922-4.4453-9.9531-9.957-9.9531h-9.9531v-41.188h268.52c2.2031 0 3.9922-1.7891 3.9922-3.9922v-0.050781c9.3242 22.855 0.70312 53.91-66.891 66.938-13.969 2.6953 0.33203 21.633 79.043 21.629 103.16 0 120.93-17.152 89.02-21.961zm-712.18-170.71v-49.777h49.777v49.777zm49.777 29.867v49.781h-49.777v-49.781zm-129.43-29.867v-49.777h49.785v49.777zm49.785 29.867v49.781h-49.785v-49.781zm-209.07-29.867v-49.777h49.777v49.777zm49.777 29.867v49.781h-49.777v-49.781zm-129.43 0h49.785v49.781h-49.785zm0-29.867v-49.777h49.785v49.777zm159.29 29.867h49.781v49.781h-49.781zm0-29.867v-49.777h49.781v49.777z" fill="#4d6c6e"/>
 <path d="m249.36 169.73c7.9258 11.996 12.707 19.242 37.41 19.242 21.613 0 36.961 5.3281 45.613 15.836 7.5039 9.1055 9.7383 21.762 6.6484 37.613-1.4414 7.3828-1.2266 12.613 0.60156 15.117 2.2617 3.0938 8.5742 3.8242 15.883 4.6719 11.867 1.375 28.105 3.2578 40.438 17.676 6.9414 7.043 7.6758 13.992 8.2148 19.078 0.63281 5.9688 0.95312 9 11.508 12.902 0.23437 0.039063 0.57812 0.070313 1.0586 0.070313 3.3867 0 8.8711-1.625 14.172-3.1992l0.76172-0.22266c7.2188-2.1406 13.668-3.9141 19.441-3.9141 1.5977 0 3.1094 0.14062 4.4844 0.41797l0.14062 0.027344 0.14062 0.039062c8.8555 2.2148 32.156 13.93 35.719 28.684 4.0703 10.094-0.16406 17.129-3.582 22.801-3.2578 5.4062-5.8359 9.6797-3.2031 17.559 1.7227 5.1797 7.6758 8.5039 13.977 12.02 6.4102 3.5859 13.043 7.2891 16.914 13.738l0.11719 0.19922 0.10156 0.20703c1.8047 3.6094 2.8984 6.9375 3.5039 10.051 13.105-2.6641 26.473-7.5742 40.348-4.3711 26.949 6.7383 44.805-1.9531 56.121 14.02 11.098 15.668 7.3203 35.941 2.2695 48.863-5.1719 13.227 4.4922 24.703 20.211 33.684-6.5078 4.3867-11.543 10.363-15.031 17.121 14.344-8.1484 38.316-9.6562 61.969-9.6562 23.449 0 47.219 1.4766 61.602 9.4414-0.44141-5.1211-2.1797-9.5508-5.2227-12.594-20.215-20.211-42.68-6.5547-42.68-40.242 0-15.719 11.23-24.703 2.2461-42.668-6.7344-11.227-26.949-13.477-31.438-26.949-6.7383-20.211 13.473-24.699 6.7383-40.426-2.25-11.227-22.461-22.453-31.441-24.699-11.227-2.25-31.441 8.9844-40.426 6.7383-24.699-8.9844-8.9805-20.211-22.453-33.688-24.707-29.191-66.656-0.26562-58.391-42.668 3.4727-17.824 3.0273-46.312-46.383-46.312-44.914 0-33.672-24.344-65.113-46.801-26.949-20.211-58.293-25.281-85.242-14.055-17.961 8.9844-37.344-51.566-83.27-49.57-22.75 0.98828-36.512 11.777-46.797 22.414 9.7383 3.5469 19.234 8.7188 28.215 15.457 12.684 9.043 19.016 18.641 24.105 26.348z" fill="#4d6c6e"/>
 <path d="m554.44 519.36c-2.7617-7.6328-6.9648-14.383-11.09-18.512-20.215-20.211-35.023-21.531-35.023-55.219 0-13.074 7.7578-21.492 5.2031-34.289-0.51562-2.5898-1.4453-5.3555-2.957-8.3789-6.7344-11.227-26.949-13.477-31.438-26.949-6.7383-20.211 13.473-24.699 6.7383-40.426-2.25-11.227-22.461-22.453-31.441-24.699-11.227-2.25-31.441 8.9844-40.426 6.7383-24.699-8.9844-8.9805-20.211-22.453-33.688-24.707-29.191-66.656-0.26562-58.391-42.668 3.4727-17.824 3.0273-46.312-46.383-46.312-44.914 0-33.672-24.344-65.113-46.801-9.3008-6.9766-19.125-12.102-29.113-15.422-18.953-6.3047-38.48-5.9844-56.129 1.3672-17.961 8.9844-5.375 51.027-27.832 48.781-15.719 0-24.703-15.719-42.672-15.719-51.656-0.007813-67.965 29.117-65.723 58.312 4.4922 31.441 27.543 53.969 72.457 58.457 13.473 0 31.438-8.9844 44.914-4.4883 22.457 8.9805 13.473 22.457 26.945 31.438 29.195 22.457 51.656 0 80.848 4.4883 15.719 0 35.934 8.9844 44.914 20.211 11.227 13.477 4.4922 26.949 15.719 40.426 26.949 31.441 53.898 2.2461 83.094 8.9844 26.949 6.7383-7.5234 26.617 11.523 26 20.633-0.66797 16.723 20.965 23.461 25.457 4.4922 4.4922 27.898-13.281 32.387-6.543 4.4922 6.7344-3.6758 9.0234-8.9844 17.969-8.9258 15.035 8.3008 44.988 24.02 53.969-5.6641 3.5391-11.477 9.0898-16.016 15.594 14.555-6.2188 36.152-7.4492 57.488-7.4492 23.379 0.003906 47.078 1.4727 61.473 9.3711z" fill="#4d6c6e"/>
</svg>
