<?xml version="1.0" encoding="UTF-8"?>
<svg width="1200pt" height="1200pt" version="1.1" viewBox="0 0 1200 1200" xmlns="http://www.w3.org/2000/svg">
 <path d="m1200 850.04c-20.832 8.3281-41.676 16.668-66.672 16.668-50.004 0-83.328-33.324-133.33-33.324-49.992 0-83.328 33.324-133.33 33.324-49.992 0-83.328-33.324-133.32-33.324-50.004 0-83.328 33.324-133.33 33.324-50.004 0-83.328-33.324-133.33-33.324-50.004 0-83.328 33.324-133.33 33.324s-83.328-33.324-133.33-33.324-83.34 33.312-133.34 33.312c-24.996 0-45.84-8.293-66.672-16.633v99.996c20.832 8.3281 41.664 16.645 66.672 16.645 50.004 0 83.328-33.336 133.33-33.336s83.328 33.336 133.33 33.336c50.004 0 83.34-33.336 133.33-33.336 49.992 0 83.328 33.336 133.33 33.336s83.328-33.336 133.33-33.336c49.992 0 83.328 33.336 133.32 33.336 50.004 0 83.34-33.336 133.33-33.336 50.004 0 83.328 33.336 133.33 33.336 24.996 0 45.828-8.3281 66.672-16.68v-99.984z" fill="#4d6c6e"/>
 <path d="m1200 1050c-20.832 8.3281-41.676 16.668-66.672 16.668-50.004 0-83.328-33.336-133.33-33.336-49.992 0-83.328 33.336-133.33 33.336-49.992 0-83.328-33.336-133.32-33.336-50.004 0-83.328 33.336-133.33 33.336-50.004 0-83.328-33.336-133.33-33.336-50.004 0-83.328 33.336-133.33 33.336s-83.328-33.336-133.33-33.336-83.328 33.336-133.33 33.336c-24.996 0-45.84-8.293-66.672-16.645v100.01c20.832 8.3281 41.664 16.633 66.672 16.633 50.004 0 83.328-33.324 133.33-33.324s83.328 33.324 133.33 33.324 83.34-33.324 133.33-33.324c49.992 0 83.316 33.312 133.32 33.312s83.328-33.324 133.33-33.324c49.992 0 83.328 33.324 133.32 33.324 50.004 0 83.34-33.324 133.33-33.324 50.004 0 83.328 33.324 133.33 33.324 24.996 0 45.828-8.3281 66.672-16.668v-99.984z" fill="#4d6c6e"/>
 <path d="m1100 666.62-0.011719-466.67-216.65 133.34v200h-82.871v-267.36h-100.48v-232.64h-266.65v380.79h-133.33v-130.79l-108.34-66.672-108.32 66.672v233.33h-83.34v233.45c20.832 8.3281 41.664 16.633 66.672 16.633 50.004 0 83.328-33.324 133.33-33.324s83.328 33.324 133.33 33.324c50.004 0 83.34-33.324 133.33-33.324 49.992-0.003906 83.328 33.32 133.33 33.32s83.328-33.324 133.33-33.324c49.992 0 83.328 33.324 133.32 33.324 50.004 0 83.34-33.324 133.33-33.324 50.004 0 83.328 33.324 133.33 33.324 24.996 0 45.828-8.3281 66.672-16.668v-83.41z" fill="#4d6c6e"/>
 <path d="m1e3 833.38c-49.992 0-83.328 33.324-133.33 33.324-49.992 0-83.328-33.324-133.32-33.324-50.004 0-83.328 33.324-133.33 33.324-50.004 0-83.328-33.324-133.33-33.324-50.004 0-83.328 33.324-133.33 33.324s-83.328-33.324-133.33-33.324-83.34 33.324-133.34 33.324c-24.996 0-45.84-8.293-66.672-16.633v99.996c20.832 8.3281 41.664 16.645 66.672 16.645 50.004 0 83.328-33.336 133.33-33.336s83.328 33.336 133.33 33.336c50.004 0 83.34-33.336 133.33-33.336 49.992 0 83.328 33.336 133.33 33.336s83.328-33.336 133.33-33.336c49.992 0 83.328 33.336 133.32 33.336 50.004 0 83.34-33.336 133.33-33.336 50.004 0 83.328 33.336 133.33 33.336 24.996 0 45.828-8.3281 66.672-16.68v-99.996c-20.832 8.3281-41.676 16.668-66.672 16.668-49.992 0-83.316-33.324-133.32-33.324z" fill="#4d6c6e"/>
</svg>
