<?xml version="1.0" encoding="UTF-8"?>
<svg width="1200pt" height="1200pt" version="1.1" viewBox="0 0 1200 1200" xmlns="http://www.w3.org/2000/svg">
 <path d="m500.44 624.61-12.938 44.812c-2.8594 9.9375 2.8594 20.344 12.844 23.203 1.7344 0.46875 3.4688 0.75 5.2031 0.75 8.1562 0 15.656-5.3438 18-13.547l12.938-44.812c2.8594-9.9375-2.8594-20.344-12.844-23.203-9.9844-2.8125-20.344 2.8594-23.203 12.844z" fill="#4d6c6e"/>
 <path d="m471.74 724.78-8.4375 29.438c-2.8594 9.9375 2.9062 20.344 12.844 23.203 1.7344 0.46875 3.4688 0.75 5.1562 0.75 8.1562 0 15.656-5.3438 18-13.594l8.4375-29.438c2.8594-9.9375-2.9062-20.344-12.844-23.203-9.8438-2.8125-20.344 2.9062-23.156 12.844z" fill="#4d6c6e"/>
 <path d="m529.03 592.74c1.7344 0.46875 3.4688 0.75 5.1562 0.75 8.1562 0 15.656-5.3906 18-13.641l8.4375-29.625c2.8125-9.9375-2.9531-20.344-12.891-23.156-9.9375-2.7656-20.344 2.9531-23.156 12.891l-8.4375 29.625c-2.8125 9.9375 2.9531 20.344 12.891 23.156z" fill="#4d6c6e"/>
 <path d="m588 762.94c0 10.359 8.3906 18.75 18.75 18.75s18.75-8.3906 18.75-18.75v-33.281c0-10.359-8.3906-18.75-18.75-18.75s-18.75 8.3906-18.75 18.75z" fill="#4d6c6e"/>
 <path d="m606.74 602.16c10.359 0 18.75-8.3906 18.75-18.75v-26.766c0-10.359-8.3906-18.75-18.75-18.75-10.359 0-18.75 8.3906-18.75 18.75v26.766c0 10.359 8.3906 18.75 18.75 18.75z" fill="#4d6c6e"/>
 <path d="m588 673.31c0 10.359 8.3906 18.75 18.75 18.75s18.75-8.3906 18.75-18.75v-34.781c0-10.359-8.3906-18.75-18.75-18.75s-18.75 8.3906-18.75 18.75z" fill="#4d6c6e"/>
 <path d="m713.29 624.66c-2.8125-9.9844-13.219-15.75-23.156-12.891-9.9375 2.8125-15.75 13.219-12.891 23.156l12.75 44.812c2.3438 8.25 9.8438 13.641 18 13.641 1.6875 0 3.4219-0.23438 5.1562-0.75 9.9375-2.8125 15.75-13.219 12.891-23.156z" fill="#4d6c6e"/>
 <path d="m705.94 735.1 8.4375 29.438c2.3438 8.25 9.8438 13.594 18 13.594 1.6875 0 3.4688-0.23438 5.1562-0.75 9.9375-2.8594 15.703-13.219 12.844-23.156l-8.4375-29.438c-2.8125-9.9844-13.312-15.703-23.156-12.891-9.9375 2.8594-15.703 13.219-12.844 23.156z" fill="#4d6c6e"/>
 <path d="m688.92 539.9c-2.8125-9.9375-13.219-15.703-23.156-12.891s-15.75 13.219-12.891 23.156l8.4375 29.625c2.3438 8.25 9.8438 13.641 18 13.641 1.6875 0 3.4688-0.23438 5.1562-0.75 9.9375-2.8125 15.75-13.219 12.891-23.156z" fill="#4d6c6e"/>
 <path d="m759.47 241.87h-58.219c-77.109 0-139.87 62.625-139.87 139.64v72.797h96.75v-72.797c0-23.766 19.312-43.078 43.125-43.078h266.86v-96.562z" fill="#4d6c6e"/>
 <path d="m928.36 95.109c0-11.062-9-20.109-20.109-20.109h-218.63c-11.062 0-20.109 9-20.109 20.109s9 20.109 20.109 20.109h218.63c11.109 0 20.109-9 20.109-20.109z" fill="#4d6c6e"/>
 <path d="m778.22 152.76h41.391v51.656h-41.391z" fill="#4d6c6e"/>
 <path d="m1005.6 195.71v188.81c0 15 12.188 27.188 27.188 27.188h44.391v-243.19h-44.391c-15 0-27.188 12.188-27.188 27.188z" fill="#4d6c6e"/>
 <path d="m848.63 840.1-232.97 116.91c-0.65625 0.32812-1.3125 0.60938-1.9688 0.84375-12.375 7.6875-27.047 11.297-41.625 9.9844l-159.74-13.969c-10.312-0.89062-17.953-9.9844-17.062-20.297s10.125-18 20.297-17.062l159.74 13.969c8.5312 0.79688 16.641-2.0156 22.969-7.7812 6.2812-5.7188 9.7031-13.594 9.7031-22.031 0-14.062-9.6094-26.062-23.391-29.203l-260.34-58.922c-10.078-2.2969-20.531 0.75-27.844 8.0625l-165.74 165.52 131.02 130.82 67.125-70.312c3.5625-3.7031 8.4375-5.8125 13.594-5.8125h0.046875l268.4 0.89062h0.23438c12.609 0 24.938-3.5156 35.625-10.172l229.5-142.45c13.125-8.1562 17.25-25.453 9.0938-38.625-7.7344-12.562-23.484-17.062-36.656-10.406z" fill="#4d6c6e"/>
</svg>
