<?xml version="1.0" encoding="UTF-8"?>
<svg width="1200pt" height="1200pt" version="1.1" viewBox="0 0 1200 1200" xmlns="http://www.w3.org/2000/svg">
 <path d="m143.76 831s-4.4414-18.719 21.121-36c25.441-17.281 73.68-3.1211 73.68-3.1211 1.8008 29.641 2.6406 54 3 70.68h-16.32l-4.1992-26.16c-0.23828-0.60156-3.3594-29.641-28.32-29.398-33.121 0.35938-48.961 24-48.961 24z" fill="#4d6c6e"/>
 <path d="m174.72 373.08c-16.68 0-32.762-9-41.039-24.719l-71.879-136.68c-10.199-19.559-5.2812-42.84 10.559-56.398-2.2812-3.7188-3.3594-5.7617-3.4805-5.8789-4.4414-7.3203-2.1602-16.922 5.1602-21.238 7.1992-4.4414 16.801-2.1602 21.121 5.1602 0.12109 0.23828 2.2812 3.8398 6 10.441 0.48047-0.12109 1.0781-0.12109 1.5586-0.12109 16.68 0 32.762 9 41.16 24.719l71.762 136.8c10.078 18.84 5.6406 41.398-9.1211 55.32 16.801 41.879 32.52 86.641 44.879 132.24 38.641 141.48 45.48 311.64 46.559 369.84h-30.84c-1.3203-57.602-8.3984-225.84-45.359-361.8-12.121-44.039-27.238-87.359-43.441-127.8-1.1953 0.11719-2.3945 0.11719-3.5977 0.11719z" fill="#4d6c6e"/>
 <path d="m344.76 862.56h-30.84c0.96094-67.559 7.1992-284.4 46.922-416.64 13.68-45.719 28.801-90.719 43.801-132.96-8.6406-8.5195-13.559-20.398-13.559-32.762 0-5.3984 0.96094-10.801 2.8789-16.199l54.836-144.6c7.1992-18.84 25.32-30.48 44.52-30 4.5586-10.32 7.0781-16.078 7.3203-16.32 3.4805-7.8008 12.602-11.16 20.398-7.5586 7.8008 3.4805 11.281 12.602 7.6797 20.398-0.12109 0.23828-2.5195 5.5195-6.6016 14.762 10.32 8.8789 16.32 21.84 16.32 35.398 0 5.3984-0.83984 10.801-2.8789 16.199l-54.719 144.48c-7.6797 20.039-27.84 31.801-48.238 29.641-14.398 40.801-28.922 84.359-42.121 128.4-38.16 126.48-44.52 341.04-45.719 407.76z" fill="#4d6c6e"/>
 <path d="m514.68 697.56c29.879 15 45.359 58.922 46.199 61.68-2.8789-2.2695-54.359-42.602-80.52-30.121-21.602 38.398-26.281 99.73-27.121 133.44h-15.602c0.83984-35.398 4.1992-99.602 16.559-173.64 0.003907 0.003906 29.523-6.8398 60.484 8.6406z" fill="#4d6c6e"/>
 <path d="m561 604.92c45 44.879 45.48 59.746 46.199 61.559-3.7188-2.7617-47.52-46.559-92.52-61.559-25.68-8.5195-62.16-3-75.719 3.8398-26.281 109.56-31.32 210.48-32.281 253.8h-30.84c0.71875-49.078 4.4414-178.08 21.602-291.36 0.60156-4.6797 1.3203-9.1211 2.1602-13.801 9.8398-0.72266 84.117-29.762 161.4 47.52z" fill="#4d6c6e"/>
 <path d="m1132.3 875.52v72.121h-1.4414c-38.52 1.6914-60.359 17.398-76.441 29.172-12.359 8.6406-19.68 13.906-34.32 15.348-2.1602 0.13281-4.4414 0.13281-6.8281 0.13281-2.2812 0-4.8008 0-6.9609-0.13281-14.52-1.4414-21.961-6.7188-34.32-15.348-16.078-11.762-37.68-27.48-76.199-29.172-2.1719-0.12109-4.4414-0.12109-6.8398-0.12109-2.2812 0-4.6797 0-6.8398 0.12109-38.398 1.6914-60.238 17.398-76.309 29.172-12.254 8.6406-19.691 13.906-34.32 15.348-2.1602 0.13281-4.4414 0.13281-6.8398 0.13281-2.2695 0-4.6797 0-6.6016-0.13281-14.641-1.4414-22.199-6.7188-34.32-15.348-16.199-11.762-37.906-27.48-76.43-29.172-2.2812-0.12109-4.4414-0.12109-6.9609-0.12109-2.2812 0-4.4414 0-6.6133 0.12109-38.398 1.6914-60.238 17.398-76.441 29.172-12.121 8.6406-19.68 13.906-34.32 15.348-1.9219 0.13281-4.3203 0.13281-6.6016 0.13281-2.5195 0-4.6797 0-6.8398-0.13281-14.641-1.4414-22.078-6.7188-34.32-15.348-16.078-11.762-37.922-27.48-76.32-29.172-2.1602-0.12109-4.5586-0.12109-6.8398-0.12109s-4.6797 0-6.8398 0.12109c-38.398 1.6914-60.121 17.398-76.32 29.172-12 8.6406-19.68 13.906-34.32 15.348-2.1602 0.13281-4.3203 0.13281-6.8398 0.13281-2.2812 0-4.6797 0-6.6016-0.13281-14.641-1.4414-22.199-6.7188-34.32-15.348-16.199-11.762-37.801-27.48-76.32-29.172-2.1602-0.12109-4.4414-0.12109-6.7188-0.12109v-72.121h496.56c42.828 0 66.238 16.68 83.387 29.16 13.922 9.9609 21.613 15.602 40.922 15.602 19.559 0 27.133-5.6406 41.172-15.602 16.906-12.48 40.43-29.16 83.16-29.16 42.84 0 66.121 16.68 83.039 29.16 14.16 9.9609 21.84 15.602 41.281 15.602 19.559 0 27-5.6406 41.16-15.602 16.312-11.879 38.629-27.84 77.871-29.039z" fill="#4d6c6e"/>
 <path d="m1132.3 1019.9v72.18c-15.648 0.89844-23.258 6.3477-35.953 15.383-16.922 12.336-40.297 29.113-83.137 29.113-42.707 0-66.215-16.766-83.113-29.113-14.113-9.8984-21.613-15.637-41.184-15.637-19.43 0-27.07 5.7344-41.039 15.637-17.039 12.336-40.402 29.113-83.258 29.113-42.574 0-65.953-16.766-83.113-29.113-13.836-9.8984-21.613-15.637-41.172-15.637-19.223 0-27.086 5.7344-40.934 15.637-17.16 12.336-40.547 29.113-83.125 29.113-42.707 0-66.215-16.766-83.363-29.113-13.848-9.8984-21.48-15.637-40.906-15.637-19.453 0-27.07 5.7344-40.934 15.637-17.172 12.336-40.68 29.113-83.375 29.113-42.562 0-65.953-16.766-83.113-29.113-13.969-9.8984-21.469-15.637-40.922-15.637v-72.047c2.4102 0 4.5859 0 6.7578 0.12109 14.605 1.2617 22.105 6.7422 34.176 15.371 16.152 11.688 38.004 27.324 76.379 28.98 2.2812 0.25391 4.4531 0.25391 6.7305 0.25391 2.293 0 4.7148 0 6.8633-0.25391 38.387-1.6562 60.254-17.293 76.512-28.98 12.086-8.6406 19.441-14.113 34.055-15.371 2.1719-0.12109 4.5859-0.12109 6.875-0.12109 2.2695 0 4.7031 0 6.8516 0.12109 14.617 1.2617 21.973 6.7422 34.055 15.371 16.262 11.688 38.137 27.324 76.512 28.98 2.1602 0.25391 4.4531 0.25391 6.8516 0.25391 2.293 0 4.4531 0 6.6133-0.25391 38.52-1.6562 60.254-17.293 76.512-28.98 12.07-8.6406 19.703-14.113 34.297-15.371 1.9219-0.12109 4.332-0.12109 6.6367-0.12109 2.5195 0 4.6797 0 6.8516 0.12109 14.605 1.2617 22.234 6.7422 34.309 15.371 16.246 11.688 37.98 27.324 76.512 28.98 2.1602 0.25391 4.3086 0.25391 6.6016 0.25391 2.4102 0 4.7148 0 6.8633-0.25391 38.484-1.6562 60.238-17.293 76.379-28.98 12.203-8.6406 19.57-14.113 34.188-15.371 2.1719-0.12109 4.3203-0.12109 6.8516-0.12109 2.5547 0 4.7148 0 6.8633 0.12109 14.629 1.2617 21.996 6.7422 34.309 15.371 16.02 11.688 37.871 27.324 76.246 28.98 2.1602 0.25391 4.5859 0.25391 6.8633 0.25391 2.4258 0 4.7031 0 6.8516-0.25391 38.387-1.6562 60.254-17.293 76.273-28.98 12.301-8.6406 19.812-14.113 34.547-15.371z" fill="#4d6c6e"/>
</svg>
