<?xml version="1.0" encoding="UTF-8"?>
<svg xmlns="http://www.w3.org/2000/svg" width="6.42806in" height="5in" viewBox="0 0 462.82014 360">
  <defs>
    <style>
      .cls-1, .cls-2 {
        fill: #fff;
      }

      .cls-3 {
        fill: #eceded;
      }

      .cls-2 {
        opacity: .5;
      }

      .cls-4 {
        stroke: #fff;
      }

      .cls-4, .cls-5 {
        fill: none;
        stroke-miterlimit: 10;
      }

      .cls-6 {
        fill: #636466;
      }

      .cls-7 {
        fill: #edeeee;
      }

      .cls-5 {
        stroke: #231f20;
        stroke-width: .2px;
      }

      .cls-8 {
        fill: #b6b8ba;
      }

      .cls-9 {
        fill: #ebecec;
      }

      .cls-10 {
        fill: #a1a3a6;
      }

      .cls-11 {
        fill: #8d8f92;
      }

      .cls-12 {
        fill: #565656;
      }

      .cls-13 {
        fill: #cbcdce;
      }

      .cls-14 {
        fill: #b74f49;
      }
    </style>
  </defs>
  <g id="Background">
    <rect class="cls-9" x="19.23451" y="19.12956" width="424.72899" height="316.67863" rx="9.55289" ry="9.55289"/>
    <path class="cls-11" d="M19.23451,226.68231c7.21975-1.63568,47.92521-6.135,77.33768-4.9656s57.05747,7.42106,81.34934,7.09119c22.96919-.31193,69.35095-4.05812,105.98357-3.36534,34.60411.65439,75.78237,6.94158,96.05979,7.55168,20.27742.6101,64.14762-5.26495,64.14762-5.26495l-.13782,99.65509c-.00618,4.46503-4.12364,8.08292-9.20373,8.08704l-406.31572.32929c-5.09109.00413-9.22072-3.62218-9.22072-8.09688v-101.02152Z"/>
    <path class="cls-13" d="M443.9635,149.20608v-30.83261s-48.44229,5.82929-55.2374,5.11297c0,0-27.16285-4.00668-36.40978-5.09941s-30.91942,1.45697-42.18911,2.00334-42.47808-12.02004-55.1926-12.74853c-12.71453-.72849-27.46432,3.92352-35.53786,4.68086-14.79367,1.38774-27.45684,3.87886-36.99274,4.78947-9.5359.91061-29.76355,1.69252-36.69875,2.23888-6.9352.54637-16.47109-.91061-17.91592-.72849s-20.8767,3.9519-25.14009,4.73517c-15.89316,2.9199-50.02118-5.70157-59.43799-5.53371-9.41681.16786-23.97675,4.60133-23.97675,4.60133v24.96297"/>
    <path class="cls-8" d="M443.9635,168.49812v-28.12854s-41.39215-6.43074-51.48083-6.60263c-11.32542-.19297-50.85811,6.50387-60.97194,7.6864-10.11383,1.18252-36.12081,2.95631-56.63744,2.16796-20.51662-.78835-40.67644-3.14364-61.54987-4.94172-6.89118-.59362-41.90015-7.6864-45.36774-7.88348-3.4676-.19709-26.29595,3.94174-33.80908,4.73009-7.51313.78835-38.43255-7.09513-47.39051-7.09513s-62.60915,7.22462-67.52158,8.21006v31.85792"/>
    <path class="cls-11" d="M19.23451,177.88615v-16.54957c.72529-1.3993,11.95087-6.20575,11.95087-6.20575h5.43965l3.80775,2.93854s.36264-4.19791,5.62097-2.23888c5.25833,1.95902,8.34079,2.23888,8.34079,2.23888h3.08247l3.26379-.69965,3.98907,2.65868h6.16493l5.80229-2.44878h4.53304s.54396-2.02899,1.08793-4.26787c.54396-2.23888,3.26379-4.33784,4.89568-3.91805,1.63189.41979,1.26925-2.09895,3.80775-1.53923,2.5385.55972,7.25286,1.81909,7.25286,3.2184s3.26379,1.45765,3.80775,2.82778c.54396,1.37013,1.81322,4.02881,1.81322,4.02881,0,0,7.25286.13993,9.2474-.55972,1.99454-.69965,3.44511-3.02012,5.80229-3.46908,2.35718-.44896,4.71436-1.09027,5.98361,0s3.98907.81041,3.08247,2.34964c-.90661,1.53923,5.98361,1.11944,5.98361,1.11944,0,0,1.81322-4.33784,3.08247-4.89756,1.26925-.55972,4.53304,0,4.53304,0l3.44511,1.42848,1.63189,3.88888s7.97815-.69965,11.60458-.13993c3.62643.55972,5.98361,1.25937,9.97269.97951,3.98907-.27986,9.42872-1.81909,9.42872-1.81909,0,0-1.26925-2.79861,0-4.33784s3.98907-2.09895,3.98907-2.09895c0,0,3.44511-.83958,4.71436,1.11944s2.17586,3.35833,2.17586,3.35833v3.2184l6.89022.27986s5.25833-.97951,8.15947-.83958c2.90115.13993,3.26379-1.67916,7.07154-1.81909,3.80775-.13993,6.52758.69965,6.52758.69965,0,0,1.26925,2.37882,3.80775,2.93854s4.89568.97951,6.34625-.27986c1.45057-1.25937,5.43965-1.3993,7.07154-.83958,1.63189.55972-2.17586-3.16005-1.63189-4.30867s-1.35664-4.22708,2.0415-3.52743c3.39814.69965,5.75532-1.81909,7.93118-.69965,2.17586,1.11944,4.53304,1.25937,5.62097,2.37882,1.08793,1.11944,1.99454,1.95902,1.99454,3.49826v4.05798l8.34079-.69965,4.35172-1.81909,5.80229,2.23888,4.89568.69965s.90661-2.65868,2.90115-2.51875c1.99454.13993,4.89568,0,4.89568,0,0,0,5.80229-.13993,7.79683.41979s3.98907-.55972,5.25833.83958,2.17586,1.25937,2.35718,2.09895,5.80229,0,7.43418,0,1.81322.27986,3.98907.97951c2.17586.69965,5.98361-1.53923,5.98361-1.53923,0,0,3.08247-1.11944,4.89568.13993s5.98361-.27986,6.89022.69965,3.80775-3.07847,5.43965-3.07847,2.5385.83958,2.5385.83958c0,0,1.99454-3.8642,5.98361-4.03105,3.98907-.16685,6.16493.5328,6.89022,1.65224.72529,1.11944,5.13417,1.69974,5.13417,1.69974l5.92644-.02058s-1.63189-5.59721,0-6.017c1.63189-.41979,3.08247-1.3993,5.25833-.69965,2.17586.69965,4.35172-1.11944,5.43965-.27986,1.08793.83958,2.90115,2.99238,1.63189,3.66511-1.26925.67273-2.35718,3.61126-2.35718,3.61126,0,0,6.89022-1.53923,8.15947-1.67916,1.26925-.13993,2.90115-4.33784,2.90115-4.33784,0,0,7.25286-3.07847,9.42872-2.23888,2.17586.83958,5.62097-.83958,7.07154.27986,1.45057,1.11944,2.5385,4.33784,2.17586,5.45728s5.62097.69965,5.62097.69965c0,0,5.98361-.41979,7.07154,1.11944,1.08793,1.53923,5.98361.27986,5.98361.27986,0,0,2.90115-2.23888,5.25833-1.25937s3.98907-.83958,5.43965.55972c1.45057,1.3993,6.89022,1.25937,6.89022,1.25937l9.8816-.08877v20.99542"/>
    <path class="cls-13" d="M444.1125,227.7293s-45.24264,5.84363-64.14762,5.26495c-18.90498-.57868-60.60308-6.77236-92.86585-7.37316-34.15403-.63605-82.53563,4.13458-103.95221,4.48205-22.64985.36745-60.8521-6.64079-88.27327-7.76461-27.42117-1.12382-68.90424,2.697-75.63905,4.34378v-55.77697l19.01815.00102s-1.68621,2.89031,1.96227,4.00571c3.64848,1.1154,19.24397.67435,22.89129-.48179,3.6036-1.14229,1.45672-3.52392,1.45672-3.52392h128.75007s-12.65298,3.11981,4.93139,4.63013c13.23898,1.13709,57.82245,1.14794,73.51091,1.13709,15.68846-.01084,49.60626.56716,58.01081-1.13709,2.90984-.59005-6.20241-3.37874-6.20241-3.37874,0,0,39.03872.28156,43.78175.28156s3.64848-1.53295,3.64848-1.53295h33.20116s0,1.53295,11.67513,1.53295,12.40483-1.53295,12.40483-1.53295h15.68846l.149,56.82294Z"/>
    <path class="cls-1" d="M198.00745,94.11665c-2.3427.82362-4.37303.68635-5.31011,1.92179-.93708,1.23544-2.21793.9609-3.84211,1.78452s-2.71744,1.09817-3.65452,1.64725c-.93708.54908-4.06067,0-5.15393.82362s-2.81123,3.01996-3.90449,3.2945,3.59213,1.09817,3.59213,1.09817c0,0,5.76946-.9609,7.25776-.54908,1.4883.41181,5.23661.54908,5.23661.54908,0,0,3.27977.41181,6.55955,0s6.72513.18303,6.72513.18303c0,0,2.48947-1.00665,5.45689-1.00665s2.96741.68635,5.93483.27454c2.96741-.41181,5.46629-.9609,5.46629-.9609,0,0-2.49888-1.64725-3.27977-2.74542-.7809-1.09817,1.5618-2.19633-.31236-2.60814s-4.21685-.13727-5.77865-.41181-2.03034-1.23544-3.90449-2.19633c-1.87416-.9609-3.74831-.82362-4.84157-.41181-1.09326.41181-1.87416-.68635-4.06067-.68635h-2.18652Z"/>
    <path class="cls-1" d="M404.33202,62.41725c-5.59648,1.8117-3.90449,1.88569-3.90449,1.88569,0,0-3.12359.17337-5.62247-.94285s-2.3427-1.71105-4.21685-1.20773-2.65506,2.30732-4.21685,2.16031c-1.5618-.14701-2.18652.5758-4.21685.00849-2.03034-.56731-4.68539-.84185-7.02809-.43004-2.3427.41181-3.86843-1.68047-7.08815-.63433-3.21971,1.04614-4.15679,2.07317-5.09387,1.28511-.93708-.78805-1.71798-2.9122-3.90449-2.12467-2.18652.78753-3.27977,1.82308-4.37303,2.40347s-2.65506,2.77672-1.24944,3.87489.93708,1.78452,3.74831,1.09817,4.06067-.82362,5.15393-1.37271,3.74831-.27454,4.99775-.27454,4.06067-.27454,4.21685.13727-3.12359,1.78504.31236,1.78478c3.43595-.00026,5.22037.54935,6.74895,0,1.52857-.54935,2.30947-1.92205,2.30947-1.92205l3.90449.54908s-1.24944,1.17507,1.24944,1.61706,5.46629.85381,5.46629.85381l2.3427-2.3336s.14834.82362,2.41687.9609,9.14043-1.09817,9.14043-1.09817c0,0,2.18652.9609,3.43595,1.23544,1.24944.27454,3.74831.41181,3.74831.41181l6.71573.82362s.93708,1.50998,3.74831,1.50998,3.27977,1.23544,5.31011.68635,0-2.60814,0-2.60814c0,0-1.87416-.13727-1.24944-1.23544s-.22559-1.64149,2.15181-1.78164c2.3774-.14015,4.09538,2.06194,4.40774,0s-2.18652-2.74829-2.18652-2.74829c0,0-4.37303.13727-5.46629,0-1.09326-.13727-2.3427-1.09817-2.3427-1.09817,0,0-3.95916.27454-4.94699.54908-.98784.27454-2.54963-.54908-4.26761-.82362s-4.21685-.41181-6.24719.27454c-2.03034.68635-2.44631-1.94593-3.90449-1.47388Z"/>
    <path class="cls-1" d="M256.553,97.05489c-1.71798.68635-2.3427,2.47768,0,2.06246,2.3427-.41522,2.03034-.8992,4.06067-1.00038s3.90449,0,3.90449,0c0,0-1.87416-2.16025-3.90449-2.43479s-4.06067,1.37271-4.06067,1.37271Z"/>
    <path class="cls-1" d="M239.26365,82.73313c-4.55223,0-2.27611,2.00054-7.20769,2.33396-4.93158.33342-10.62186,4.00108-4.55223,5.00135,6.06964,1.00027,6.06964,4.00108,11.75992,3.00081,5.69028-1.00027,11.38057-2.66739,11.38057-2.66739,0,0,4.93158,2.33396,9.10445,1.00027,4.17287-1.33369,8.34575.86817,7.20769-3.40029-1.13806-4.26845-3.03482-3.93503-9.10445-5.26872-6.06964-1.33369-4.17287,1.66712-9.48381,0-5.31093-1.66712-9.10445,0-9.10445,0Z"/>
    <path class="cls-8" d="M209.8838,78.18295s-4.5171-3.10551-5.40439-4.15412-4.31545-4.75909-5.20274-4.79942c-.88729-.04033.68563,5.40439,1.97623,6.13036,1.2906.72596,4.99337,2.96534,4.8964,3.49923-.09698.5339-1.42791,1.34052-2.3152,1.0582-.88729-.28232-1.77458-.96795-2.54087-.60497s-2.27572,1.2906-2.27572,1.2906c0,0,1.79174-.04033,2.71936,0s3.9928.08066,4.71876.52431,2.90385,1.33093,4.11379,1.16961,2.0569-.72596,2.0569-.72596l4.79942.48398-4.79942-1.85524s2.86352-1.08894,3.9928-2.01656,4.6381-4.15412,5.08174-4.88009c.44364-.72596.60497-2.21822.36298-2.41988s-4.96075,3.58948-5.84804,4.03313-6.33201,3.26683-6.33201,3.26683Z"/>
    <path class="cls-10" d="M383.7372,285.96107c2.94921-1.97601,13.69577,2.07604,16.27403,4.42575s4.46847,15.93483,6.62189,20.02618c.0738.14025.16261.29521.24519.44403-.94202-3.44081-1.79308-6.90183-2.12259-9.22654-.89226-6.29468,2.78645-14.06795,3.44888-19.62696.66238-5.55911-6.19837-13.66137-6.19837-13.66137,0,0,8.64082,5.33352,8.87223,12.22433.18828,5.60689-3.17607,14.28915-2.25779,21.89419.3049,2.52528.86393,5.2882,1.50472,7.96476.02634-.41617.05624-.84234.0908-1.28107.4499-5.71203,4.38012-16.37907,5.33965-21.39514.95952-5.01617-3.35854-16.57506-4.0128-22.68171-.65431-6.10655,5.34628-17.88348,5.34628-17.88348,0,0-1.63874,12.64938-1.63874,17.66545,0,5.01606,4.14509,14.40439,4.36185,20.50074.21676,6.09624-5.90868,18.61558-5.45229,25.95298.17909,2.87908.35548,5.03485.52018,6.65634,1.73689-2.72607,3.9587-6.38083,5.35379-9.62198,2.18373-5.07333,1.62461-11.76397,2.89659-15.6039,1.56321-4.71922,8.62617-6.64889,8.62617-6.64889,0,0-6.39548,4.20731-7.06929,8.18739-.67381,3.97998-.29491,9.88702-1.61108,14.27833-3.09707,10.33314-8.24855,16.32323-8.24855,16.32323,0,0-4.49099,1.66582-7.0683,0-1.28505-1.59802-3.42051-9.53194-5.13428-13.86991-2.22538-5.63281-3.21206-15.58614-5.13248-17.5699-3.39768-3.50992-11.85175-5.00075-11.85175-5.00075l-9.32627,12.00344s4.67314-12.49974,7.62235-14.47554Z"/>
    <rect class="cls-4" x="19.23451" y="19.12956" width="424.72899" height="316.67863" rx="9.55289" ry="9.55289"/>
    <rect class="cls-3" x="242.61072" y="153.96208" width="1.55134" height="17.49985"/>
    <rect class="cls-3" x="267.48389" y="153.96208" width="1.55134" height="17.49985"/>
    <rect class="cls-3" x="242.60853" y="163.13001" width="26.41727" height="10.60267"/>
    <polygon class="cls-3" points="270.43804 154.04089 241.20791 154.04089 243.38686 147.77286 268.25909 147.77286 270.43804 154.04089"/>
    <path class="cls-11" d="M261.05352,150.90109s.33532-.08845.32559-.23202c-.00973-.14358-.64619-.53199-1.15834-.71788-1.29219-.46902-3.34276-.4403-3.55224-.5073-.20947-.067-1.36766-.44987-1.36766-.44987,0,0-.31587.32544-.36373.44987s-.04786.25844-.04786.25844c0,0-1.11033.24887-1.43577.26801-.32544.01914-.56923-.067-.74406-.10529-.17483-.03829-.40139.067-.44605.19144s.07978.20101.07978.20101c0,0-.17872.0709-.38287.04786-.24803-.02799-1.39398-.36373-1.65417-.40201-.26019-.03829-.4612-.11486-.48991.09572-.02872.21058-.04472.90932.03985,1.07204.08458.16272.08421,1.04332.26626,1.14861s1.0119-.26801,1.18564-.41159c.17374-.14358.84348-.42116.84348-.42116,0,0,.1183.22972.11194.53602-.00637.3063.03087.66045.17497.68917.1441.02871,1.17785-.75617,1.17785-.75617,0,0,.52645.08615.71788.11486.19144.02872.54559.05743.54559.05743,0,0-.17877.21058-.15639.41159.02238.20101.15639.28715.15639.28715l.90932-.53602s1.35741.14358,1.67896.14358.73313-.01914.73313-.01914c0,0,.21058.22972.39244.13401.18186-.09572.67971-.44987.67971-.44987,0,0,1.2155-.48816,1.44522-.57431s.67002-.28715.66045-.41159c-.00957-.12443-.32544-.11256-.32544-.11256ZM260.34625,150.65487c-.08458,0-.15315-.06857-.15315-.15315s.06857-.15315.15315-.15315.15315.06857.15315.15315-.06857.15315-.15315.15315Z"/>
    <path class="cls-7" d="M278.70936,166.86181v-2.67667s-.30518-.31839-.76259-.25933c-.45739.05905-1.16751.1683-1.16751.1683l-.20031-1.27461s.10926-.30955-.14566-.87401-.76476-2.22144-1.01968-2.42175c-.25492-.20029-1.12893-.36417-1.12893-.36417l-.07284-.41879s.47342-.69193.29134-1.16535c-.18209-.47342-.58268-.67373-.80119-.76476-.39239-.16349-1.09211.17982-1.23777.45296-.14567.27312-.15195,1.13768-.15195,1.13768,0,0,.26191.86926.47744.83335.43398-.07234.42494.14466.42494.14466,0,0-.89651.34474-.91472.50861-.0182.16387.29134,1.11073.29134,1.11073,0,0,.03642,2.09398-.12746,2.53099s-.61909,2.03936-.61909,2.03936c0,0-.07162.80138.14688.89243.21851.09104.48674.1404.48674.1404v-.78626l.14935-.28298s.20029,2.5492.14566,2.89517,0,.67372,0,.67372c0,0-.32776,2.07579-.32776,2.58562s.03642,1.12893.03642,1.12893c0,0-.67373.30955-.6373.58268s.63588.34596.92792.32775c.29205-.0182.54697-.09104.54697-.09104,0,0,.40059.10925.47343-.07283.07284-.18209-.09105-.80119-.09105-.80119,0,0-.0173-1.98473.1097-2.27608.12701-.29133.23627-2.23966.23627-2.23966,0-.40059.41879-1.43848.41879-1.43848,0,0-.18209,2.03936-.10925,2.51279.07283.47343.65551,2.7313.65551,2.7313,0,0-.36418.80117-.25492,1.03789.10925.23671.47342.21851.6555.2003s.50984-.61909.58268-.72835c.07283-.10925.29133-.34597.27313-.47342-.01821-.12746-.09105-.36418-.09105-.36418,0,0-.03641-1.00147-.12746-1.36564s-.29133-1.31102-.29133-1.47489c0-.16388.18208-1.23818.18208-1.23818l2.76771-.78297ZM276.28874,163.14957c0,.02713.18987,1.03976.18987,1.03976l-.4611.13562-.09042-1.06688.36165-.1085Z"/>
    <path class="cls-3" d="M261.09857,155.91463c-.24398.21821-.34956,1.27206-.34956,1.27206,0,0,.18125.71207.28483.76386s.44019.09063.44019.09063l.23304.53082s-.4143.49198-.53082.78975-.51787,1.85138-.51787,1.85138c0,0-.62144.07768-.9969.11652s-.90627,0-.90627,0c0,0,.10357-.27184.06473-.30423s-1.11342-.55026-1.39825-.57615-.86743.57615-.86743.57615c0,0,.59704.64084.75165.71852s.64659,0,.64659,0c0,0,.06473.22009.22009.22009s.62144-.12947.62144-.12947c0,0,.93217.25893,1.34646.29778s.89333.05179.89333.05179l.10357,1.65718s2.7706-.18125,2.69292-.3884-.3884-1.46925-.40135-1.84157.15536-2.50853-.02589-2.85809-.69912-.82859-.69912-.82859l-.16831-.38935s.37546-1.06547.15536-1.43678-1.25583-.48495-1.59245-.18389Z"/>
    <path class="cls-3" d="M249.19435,156.11988c.38968-.08471.9687-.0565,1.21255.13858.43305.34644.5619,1.41865.5619,1.41865,0,0,.00974.81591-.23277,1.00645-.15045.11821-.51967.10393-.51967.10393l.01732.67557s.72753.29448,1.02201.4677,1.64561.65824,1.64561.65824c0,0,1.62829-.60628,2.07866-.71021s.9354-.25983,1.17791-.17322.3964.58913.3964.58913c0,0-.3439.38652-.95638.18898-.10427-.03363-1.32814.67695-1.72655.85017s-.90075.20787-.90075.20787l-2.07866-.48502s.36377.69289.25983,1.14326-.3118.79682-.3118.79682l.17322,2.25188-2.96209-.3118v-1.33381s-.58895.08661-.65824-.13858.13858-3.11799.25983-3.41247.53699-.76218.53699-.76218c0,0-.08661-.51967-.10393-.83146s.27715-.88343.27715-1.10862.03464-1.05665.83146-1.22988Z"/>
    <path class="cls-3" d="M249.9318,171.10244s-.32737,1.10385-.1386,1.35473.61526.25088.69052.22579.25088-.25088.25088-.25088c0,0,.65228.15053.90315,0s.32889-.53408.32889-.53408l-.83064-.26872-.15053-.52684s-3.08577-.65228-3.16103-.57701-.27596,1.42999-.27596,1.6056.45158.45158.67736.4014.6021-.55193.6021-.55193l.10035-.75263,1.0035-.12544Z"/>
    <g>
      <path class="cls-13" d="M356.41605,252.886c.05352.5887.10704.74927,1.01687,1.39149.90982.64222,3.1041.80279,5.0843,2.46188,1.9802,1.65908,5.99413,2.08723,5.99413,2.08723,0,0,1.07038.69576,3.21114,1.01687,2.14075.32111,2.7571-.64224,2.7571-.64224,0,0,.77516,0,1.57793-.21407.80279-.21408,2.62244-.48167,2.62244-.48167,0,0,3.1041,1.01687,4.54911.96335s4.17448-1.17742,4.17448-1.17742c0,0-.53519-.42815-.96334-.90983-.42815-.48167-1.01687-1.55205-1.01687-1.55205l.90983.05352,3.1041,1.49853.69574-1.33798s1.23094-1.01686,1.01686-1.39149c-.21407-.37463.42815-1.33797.85631-1.81964s.05352-.90983-.16055-1.55205c-.21408-.64224,1.33797-1.76613,1.17742-2.2478-.16056-.48167-1.65909.10703-3.05059.42815-1.39149.32111-1.81964,1.60556-2.30132,1.7126-.48166.10704-1.98019-.32111-1.98019-.32111l3.79985-3.69282-2.5154-1.07038s-2.78299.53519-3.69281.64224c-.90983.10703-3.69282-.74928-5.56598-1.17742-1.87316-.42815-6.10116-.74927-10.7038-.2676-4.60263.48167-9.74046,5.83357-10.32918,6.42229,0,0-.32111.5887-.26759,1.17742ZM361.30353,250.2817c0-.63073.5113-1.14204,1.14203-1.14204.63073,0,1.14204.51131,1.14204,1.14204,0,.63073-.51131,1.14203-1.14204,1.14203s-1.14203-.5113-1.14203-1.14203Z"/>
      <path class="cls-13" d="M349.0137,274.60158c.03927.43195.07854.54976.7461,1.02097.66756.47122,2.27757.58903,3.73049,1.80635,1.45293,1.21731,4.39806,1.53146,4.39806,1.53146,0,0,.78537.5105,2.35611.7461,1.57073.23561,2.02296-.47123,2.02296-.47123,0,0,.56875,0,1.15777-.15707.58903-.15708,1.92416-.35342,1.92416-.35342,0,0,2.27757.7461,3.33781.70684s3.06293-.8639,3.06293-.8639c0,0-.39269-.31415-.70683-.66757-.31415-.35342-.7461-1.13878-.7461-1.13878l.66757.03927,2.27757,1.09951.51049-.98171s.90317-.7461.7461-1.02097c-.15707-.27488.31415-.98171.6283-1.33512s.03927-.66757-.1178-1.13878c-.15708-.47123.98171-1.29586.8639-1.64927-.11781-.35342-1.21732.07853-2.23831.31415-1.02097.23561-1.33512,1.17804-1.68854,1.25658-.35341.07854-1.45292-.23561-1.45292-.23561l2.78805-2.70952-1.84562-.78537s-2.04196.39269-2.70951.47123c-.66757.07853-2.70952-.54977-4.08392-.8639-1.37439-.31415-4.47659-.54976-7.85367-.19635-3.37708.35342-7.14685,4.28025-7.5788,4.71221,0,0-.23561.43195-.19634.8639ZM352.59978,272.69073c0-.46278.37516-.83795.83794-.83795s.83795.37517.83795.83795c0,.46278-.37517.83794-.83795.83794s-.83794-.37516-.83794-.83794Z"/>
    </g>
  </g>
  <g id="Pollution">
    <g>
      <rect class="cls-11" x="19.8379" y="189.10732" width="25.11197" height="20.90717"/>
      <path class="cls-8" d="M19.8379,191.91051h22.31824c.44602,0,.80813.36211.80813.80813h0c0,.44602-.36211.80813-.80813.80813h-22.31824v-1.61626h0Z"/>
      <path class="cls-11" d="M48.88821,195.48187s9.8775.35991,16.36742,5.77483c9.59327,8.00424,10.68045,21.04611,10.68045,21.04611l-19.92059.73719s-.36324-4.55844-1.87935-8.03502c-1.9654-4.50683-5.24792-4.9905-5.24792-4.9905"/>
      <path class="cls-11" d="M55.91256,221.32284s-.05241.9006-1.04141,1.04895c-.989.14835-1.87909-.84065-1.92854-1.5824s-.1597-2.58186-1.19815-2.13682.2586,1.93902.3575,2.53241-.0267.87049-.82927,1.20172-2.38448-.67102-4.65966-.21272c-1.90481.38369-4.64821,1.53385-7.86249,2.1268-3.21428.59295,14.34042,3.41159,14.34042,3.41159l5.14279-4.67237-2.32118-1.71717Z"/>
      <path class="cls-11" d="M75.34617,218.83271s.29081,1.90974,1.62907,2.15448c1.67031.30547,2.37359-.32484,2.57139-1.07724s-.10739-2.08784.83216-1.93949.28204,1.49925.09049,2.14399c-.34128,1.14871,1.59929,1.60246,2.48939,1.41068s2.07689-.63683,3.26369-.58738c1.1868.04945,3.1162,1.22932,4.89449,1.27917s-10.38342,5.74271-10.38342,5.74271l-7.17023-4.68708v-4.65894l1.78297.21911Z"/>
      <path class="cls-10" d="M49.09908,205.87327c3.69345,1.12836,6.55077,4.25008,8.06285,7.80373,1.51208,3.55365,1.8205,7.50888,1.67961,11.36828-.08904,2.43915-.39374,4.99539-1.80477,6.98697s-4.24951,3.16176-6.38614,1.98187c-1.14137-.63028-1.95937-1.83207-3.21533-2.18212-2.07596-.57859-4.10933,2.27073-2.88721,4.04577-2.38025-.74154-5.16784,1.40971-5.05388,3.90018-3.02002.965-3.58925,5.56693-1.36475,7.82599,2.22451,2.25905,6.02489,2.27548,8.8452.82718.43459,2.35737-1.73256,5.88082,2.92755,9.48581,2.78092,2.15128,4.75327.95778,7.65594,4.45677.28714.34613.43275.83787.33121,1.27598-.15419.66533-.92149.93864-1.51025,1.28476-2.15714,1.26814-3.65029,3.70543-2.8719,6.08357s3.34121,2.28609,4.11751,7.57604c.12449.84832.28761,1.71781.72539,2.45502.83224,1.40148,2.70289,1.85827,4.31383,1.60996s3.07615-1.04424,4.60208-1.61723c.51626-.19385,1.08794-.36337,1.60969-.18483.93757.32083.35836,3.63822.98586,4.40516,3.16536,3.86877,6.22738.04249,8.80424,1.66543.89289.56236,1.84461,1.43934,2.83946,1.08754.56425-.19953.93228-.75559,1.47423-1.00952.78924-.3698,1.71523-.01755,2.49568.37046,2.64111,1.31304.15256,2.74403,2.23551,4.8323,3.69292,1.49475,5.65426-.57751,6.02452-1.02383.9526,2.36064,2.41897,4.71259,4.75602,5.72168,2.33705,1.00909,5.62487.01678,6.25464-2.44968,1.41362,1.41353,2.87481,2.84478,4.68561,3.69176s4.06712,1.01291,5.7398-.08185c1.67268-1.09476,2.37023-3.6615,1.09012-5.19698,1.84593.81448,3.87981,1.64554,5.82303,1.10268,1.94323-.54286,3.31072-3.19591,1.91275-4.65073,1.59114-.48959,3.23362-1.00712,4.48691-2.10288,1.25329-1.09576,2.01415-2.93902,1.35446-4.4675-.7559-1.75139-3.14533-2.77331-3.04898-4.67842.04374-.86499,1.49959-2.78779,1.27948-3.62545-.83755-3.1874-4.39634-3.60499-4.39634-3.60499,0,0-2.17639-5.29798-5.43182-7.48451s-7.37775-3.35073-11.16765-2.34308c-1.01306.26935-1.99725.68884-3.04225.77134-.85181.06725-1.70429-.09339-2.53775-.28163-3.49489-.78934-6.87583-2.0814-10.0064-3.82405-1.62802-.90625-3.25606-2.00565-4.12067-3.65616-.86461-1.65051-.68897-3.97825.83861-5.04513.5196-.36289,1.14166-.55177,1.67909-.88768,1.62908-1.01822,2.16497-3.25438,1.68506-5.11459s-1.76891-3.40121-3.14448-4.74229c-2.38107-2.32138-5.42528-4.34456-8.746-4.16816-1.02744.05458-2.05513.32001-3.0737.17463-1.71474-.24475-3.08315-1.63234-3.82978-3.19528s-.99127-3.30876-1.32281-5.00885c-1.17649-6.03286-3.61282-11.89876-7.59279-16.58271-3.97996-4.68396-9.57945-8.1116-15.67658-8.88915"/>
      <rect class="cls-8" x="44.94986" y="187.73492" width="3.93834" height="23.65197" rx=".83565" ry=".83565"/>
      <path class="cls-11" d="M77.5605,218.78082s-1.0879-3.01644,0-3.06589,0,3.06589,0,3.06589Z"/>
      <path class="cls-11" d="M82.52653,219.93405s.78599-3.46026,1.95478-2.36189c1.03948.97685-1.95478,2.36189-1.95478,2.36189Z"/>
      <path class="cls-11" d="M50.16108,221.09246s-2.72698-1.68701-1.90544-2.40187,1.90544,2.40187,1.90544,2.40187Z"/>
    </g>
  </g>
  <g id="Habitat">
    <g>
      <g>
        <path class="cls-12" d="M426.57678,159.6962c-1.04602,0-2.02194.52479-2.59796,1.39827-.79349,1.20059-1.40278,2.51261-1.80896,3.89292-.02336.07998-.09076.13839-.17344.15187-.08178.01258-.16445-.02247-.21118-.09076-.16086-.23454-.41248-.39-.69374-.43045-.01258-.0027-.02516.00539-.02876.01797-.13659.51223.00719,1.0586.37742,1.43692l-.16086,2.58002c.04583.30914.31542.53468.62726.52571.31273-.00809.56885-.24891.5976-.56075l1.49174-1.65259-.0009.0009c.12761-.17793.09256-.42417-.07908-.55985-.05212-.04044-.08268-.10334-.08268-.16984s.03055-.1285.08268-.16984c.67129-.52389,1.57891-.62636,2.34997-.26509.77193.36035,1.27517,1.12329,1.30303,1.97429v.76025h.69464v-2.36883c0-.14378.06291-.28039.17254-.37383.10874-.09436.25432-.1348.39631-.11323.95255.14827,1.92219.14288,2.87379-.01618.27857-.08986.54009-.22556.77373-.40169.28667-.21657.67308-.24174.98489-.0647.54906.31273.89683.88606.9202,1.5178.00449.14648-.01528.29295-.05931.43404-.14737.47358-.32711.93637-.53648,1.38658h.79259c.19321-.50772.37652-1.01995.55086-1.53487.28936-.61377.25342-1.33179-.09615-1.91409-.27319-.45382-.31811-1.00916-.12311-1.50071l.37563-.94806h-.0009c.2624-.66229.17973-1.41085-.22017-1.99946-.3999-.5895-1.06578-.94178-1.77751-.94268l-6.71369-.00004ZM421.98474,166.55009c.04763-.0018.09346.01618.12761.04942s.05302.07908.05302.12671c.0009.04673-.01797.09166-.05032.12581-.03325.03325-.07818.05212-.12581.05212-.04673,0-.09166-.01887-.12491-.05212-.03325-.03415-.05122-.07908-.05122-.12581,0-.09526.07638-.17344.17164-.17613h0Z"/>
        <path class="cls-12" d="M438.00984,164.21623c-.0629.31722-.33339.55175-.65691.56974-.48076-.08088-.86807-.43944-.98671-.9121-.1959-.7827-.29474-1.58519-.29474-2.39138,0-.0647.00539-.1285.01438-.19231.03864-.27677-.04493-.55626-.22825-.76743-.18332-.21118-.44931-.33159-.7288-.33249h-.18063l-.21567-.19051h.39631c.33429,0,.6533.14558.87258.3981.22017.25253.31991.58771.27408.91931-.00899.05482-.01438.10963-.01528.16535.0009.7908.09795,1.57801.29026,2.34445.09795.3918.41427.69105.81146.76653.22825-.02067.41517-.18961.4601-.41428.01078-.05122.06111-.08447.11233-.07459.05122.00988.08447.06021.07459.11143l.00091.00017Z"/>
        <path class="cls-12" d="M432.24454,166.25885l-.17973-.0638-.12581.34956c-.01707.04942.00809.10334.05751.12132s.10424-.00809.12221-.05661l.12581-.35046Z"/>
        <path class="cls-12" d="M432.88891,166.40355l-.18961-.02965v.43493c.0027.05032.04493.08896.09436.08896.05032,0,.09166-.03864.09526-.08896v-.40528Z"/>
        <path class="cls-12" d="M433.46404,166.42863l-.1986.0018.11413.38731c.01528.04942.0683.07728.11772.0629.05032-.01528.07908-.0674.0647-.11772l-.09795-.33429Z"/>
        <path class="cls-12" d="M434.31131,169.23064c-.01618.03954-.05482.0656-.09795.0656h-.63713c-.03684.0009-.07189-.01887-.09076-.05032-.01887-.03235-.01977-.07189-.0018-.10514.07369-.13659.14558-.27498.21388-.41427h.81056c-.0647.16804-.1303.33608-.1977.50413h.0009Z"/>
        <path class="cls-12" d="M428.26351,168.7266h-.69464v.46548c0,.05751.04673.10514.10514.10514h.48437c.05841,0,.10514-.04763.10514-.10514v-.46548Z"/>
        <path class="cls-12" d="M425.55053,169.23686c-.01707.03684-.05392.05931-.09436.05931h-.60568c-.03774,0-.07189-.02067-.09076-.05392-.01797-.03325-.01707-.07369.0027-.10604.08178-.1339.15906-.27049.23095-.40977h.79708c-.07818.17074-.15726.34149-.23905.51044l-.00088-.00002Z"/>
        <path class="cls-12" d="M425.70512,165.81669c-.00449.94086-.21567,1.86916-.61916,2.7192h.789c.31722-.7198.5994-1.45399.84562-2.20076-.28308-.26419-.63533-.44393-1.01547-.51851v.00007Z"/>
        <path class="cls-12" d="M432.59583,165.41319c-.25163.19051-.53379.33698-.83393.43314.70722.37922,1.52767.48975,2.30948.30914-.13929-.33429-.38552-.61377-.70094-.79259-.24533-.13929-.54996-.11862-.77463.05122l.00002-.00091Z"/>
        <path class="cls-12" d="M435.33757,169.15243c-.01258.03235-.00809.06919.01078.09795.01977.02876.05212.04583.08717.04583h.40887c.04224.0009.08088-.02426.09705-.0638.07099-.16625.13569-.33518.195-.50593h-.6614c-.03684.14468-.08268.28756-.13839.42596h.00091Z"/>
        <path class="cls-12" d="M435.91638,164.6064c.5284.82225.73059,1.81254.56613,2.77671-.0674.39-.16175.77552-.28308,1.15295h-.68116c.11323-.57961.07818-1.17811-.10155-1.73976.18961-.60568.11053-1.26348-.21567-1.80806-.24174-.40259-.28218-.89503-.10963-1.33268l.28128-.71081h.0009c.03505.5913.22196,1.16373.54188,1.66159l.00089.00007Z"/>
      </g>
      <g>
        <path class="cls-12" d="M377.30237,157.68734c-.64899,0-1.25448.3256-1.61187.86754-.49231.74489-.87034,1.55892-1.12234,2.41531-.0145.04962-.05631.08586-.10761.09423-.05074.00781-.10203-.01394-.13102-.05631-.0998-.14552-.25592-.24197-.43042-.26707-.00781-.00167-.01561.00335-.01784.01115-.08475.31781.00446.6568.23417.89152l-.0998,1.60074c.02844.1918.1957.33174.38917.32617.19403-.00502.35293-.15444.37077-.34791l.92553-1.02533-.00056.00056c.07917-.11039.05743-.26317-.04906-.34735-.03234-.02509-.05129-.06412-.05129-.10538s.01896-.07973.05129-.10538c.41649-.32504.97961-.38862,1.45801-.16447.47894.22358.79116.69693.80845,1.22493v.47169h.43098v-1.46971c0-.08921.03903-.17396.10705-.23194.06746-.05854.15779-.08363.24588-.07025.591.092,1.1926.08865,1.78301-.01004.17283-.05575.33509-.13994.48005-.24922.17786-.13437.4176-.14998.61106-.04014.34066.19403.55643.54975.57093.9417.00279.09088-.00948.18175-.0368.26929-.09144.29383-.20295.58096-.33285.86029h.49175c.11987-.31501.23361-.63282.34177-.95229.17953-.38081.15723-.82629-.05966-1.18757-.16949-.28157-.19737-.62612-.07638-.9311l.23305-.58821h-.00056c.1628-.41091.11151-.87535-.1366-1.24054-.24811-.36575-.66125-.58432-1.10283-.58487l-4.16542-.00002ZM374.4533,161.93975c.02955-.00112.05798.01004.07917.03067s.0329.04906.0329.07861c.00056.02899-.01115.05687-.03122.07806-.02063.02063-.04851.03234-.07806.03234-.02899,0-.05687-.01171-.0775-.03234-.02063-.02119-.03178-.04906-.03178-.07806,0-.0591.04739-.10761.10649-.10928h0Z"/>
        <path class="cls-12" d="M384.39586,159.97375c-.03903.19681-.20685.34233-.40757.35349-.29828-.05018-.53858-.27265-.61219-.5659-.12155-.48562-.18287-.98351-.18287-1.4837,0-.04014.00335-.07973.00892-.11932.02397-.17172-.02788-.34513-.14162-.47614-.11374-.13102-.27877-.20573-.45217-.20629h-.11207l-.13381-.1182h.24588c.2074,0,.40533.09032.54138.247.1366.15668.19848.36464.17005.57037-.00558.03401-.00892.06802-.00948.10259.00056.49064.06077.97905.18009,1.45458.06077.24309.25703.42875.50346.47558.14162-.01282.25759-.11764.28546-.25703.00669-.03178.03791-.05241.06969-.04628.03178.00613.05241.03736.04628.06914l.00056.00011Z"/>
        <path class="cls-12" d="M380.81885,161.24107l-.11151-.03959-.07806.21688c-.01059.03067.00502.06412.03568.07527s.06467-.00502.07583-.03513l.07806-.21744Z"/>
        <path class="cls-12" d="M381.21864,161.33085l-.11764-.0184v.26985c.00167.03122.02788.0552.05854.0552.03122,0,.05687-.02397.0591-.0552v-.25145Z"/>
        <path class="cls-12" d="M381.57547,161.3464l-.12322.00112.07081.2403c.00948.03067.04237.04795.07304.03903.03122-.00948.04906-.04182.04014-.07304l-.06077-.20741Z"/>
        <path class="cls-12" d="M382.10116,163.08488c-.01004.02453-.03401.0407-.06077.0407h-.3953c-.02286.00056-.0446-.01171-.05631-.03122-.01171-.02007-.01227-.0446-.00112-.06523.04572-.08475.09032-.17061.1327-.25703h.5029c-.04014.10426-.08084.20852-.12266.31278h.00056Z"/>
        <path class="cls-12" d="M378.34888,162.77215h-.43098v.2888c0,.03568.02899.06523.06523.06523h.30052c.03624,0,.06523-.02955.06523-.06523v-.2888Z"/>
        <path class="cls-12" d="M376.66564,163.08873c-.01059.02286-.03345.0368-.05854.0368h-.37578c-.02342,0-.0446-.01282-.05631-.03345-.01115-.02063-.01059-.04572.00167-.06579.05074-.08307.09869-.16782.14329-.25423h.49454c-.04851.10593-.09757.21187-.14831.31669h-.00055Z"/>
        <path class="cls-12" d="M376.76156,160.96674c-.00279.58374-.13381,1.1597-.38415,1.68709h.48953c.19681-.44659.37189-.90211.52465-1.36543-.17563-.16391-.39418-.27543-.63003-.3217v.00004Z"/>
        <path class="cls-12" d="M381.0368,160.71638c-.15612.1182-.33118.20907-.5174.26874.43879.23528.94783.30386,1.43289.1918-.08642-.2074-.23919-.38081-.43489-.49175-.15221-.08642-.34122-.0736-.48061.03178v-.00057Z"/>
        <path class="cls-12" d="M382.73788,163.03635c-.00781.02007-.00502.04293.00669.06077.01227.01784.03234.02843.05408.02843h.25368c.0262.00056.05018-.01505.06022-.03959.04405-.10315.08419-.20796.12099-.3139h-.41035c-.02286.08976-.0513.17841-.08586.26428h.00056Z"/>
        <path class="cls-12" d="M383.097,160.21582c.32784.51015.45329,1.12457.35125,1.72277-.04182.24197-.10036.48116-.17563.71533h-.42261c.07025-.35961.04851-.73094-.063-1.07941.11764-.37578.06858-.78391-.13381-1.12179-.14998-.24978-.17508-.55531-.06802-.82685l.17452-.44101h.00056c.02174.36686.13771.72202.3362,1.03091l.00055.00004Z"/>
      </g>
      <g>
        <path class="cls-12" d="M399.5918,159.16865c-.65425.00083-1.26636.32465-1.63397.86655-.3676.54107-.44359,1.22919-.20239,1.83799h-.00083l.34529.8715c.17925.45185.13795.96235-.11317,1.37952-.32135.53528-.35438,1.19531-.08839,1.75952.16025.47334.32877.9442.50637,1.41092h.72859c-.19246-.41385-.35768-.83927-.49315-1.27461-.04048-.1297-.05865-.26434-.05452-.39899.02149-.58073.34117-1.10776.84589-1.39523.28663-.16274.64184-.13961.90536.05948.21477.16191.45517.28665.71125.36925.87476.14621,1.76609.15117,2.64172.01487.13052-.01983.26435.01735.3643.10408.10078.0859.1586.21147.1586.34364v2.17753s.63854,0,.63854,0v-.69885c.02561-.78228.48821-1.48361,1.1978-1.81486.70879-.3321,1.54312-.23791,2.16019.24368.04791.038.076.095.076.15613,0,.06113-.02809.11895-.076.15613-.15778.12473-.19.35108-.07269.51464l-.00083-.00083,1.37127,1.51914c.02643.28665.26187.50803.54934.51546.28665.00825.53447-.19908.5766-.48326l-.14787-2.37167c.34033-.34777.4725-.85001.34694-1.32088-.0033-.01156-.01487-.019-.02643-.01652-.25855.03718-.48985.18009-.63772.39569-.04296.06278-.11895.095-.19413.08343-.076-.01239-.13795-.06609-.15943-.13961-.37338-1.26884-.93346-2.47491-1.66287-3.57854-.52951-.80294-1.42662-1.28535-2.38816-1.28535l-6.17152.00003ZM409.98454,165.46902c.08756.00248.15778.07434.15778.16191,0,.04296-.01652.08426-.04709.11565-.03056.03056-.07187.04791-.11482.04791-.04378,0-.08509-.01735-.11565-.04791-.02974-.03139-.04709-.0727-.04626-.11565,0-.04378.01735-.08591.04874-.11648s.07352-.04709.1173-.04543h0Z"/>
        <path class="cls-12" d="M395.25439,163.32347c-.00909-.04709.02148-.09335.06856-.10243.04709-.00909.09335.02148.10326.06856.0413.20652.21312.36182.42295.38082.36511-.06938.65589-.34447.74593-.70463.17677-.70454.26599-1.42818.26682-2.15512-.00083-.05122-.00578-.10161-.01404-.152-.04213-.30482.04956-.61293.25195-.84507.20158-.23213.49482-.36595.80212-.36595h.3643l-.19826.17513h-.16604c-.25692.00083-.50143.11152-.66995.30564-.16852.19411-.24534.45103-.20982.70545.00826.05865.01322.1173.01322.17678,0,.74108-.09086,1.47877-.27094,2.19826-.10906.43449-.46509.7641-.90703.83845-.29739-.01654-.54604-.23213-.60386-.52373l.00083-.00016Z"/>
        <path class="cls-12" d="M400.66893,165.52346c.01652.04461.06691.06856.11234.05204s.06856-.06609.05287-.11152l-.11565-.32133-.16521.05865.11565.32216Z"/>
        <path class="cls-12" d="M399.96094,165.70686c.0033.04626.0413.08178.08756.08178.04543,0,.08426-.03552.08674-.08178v-.39981s-.1743.02726-.1743.02726v.37255Z"/>
        <path class="cls-12" d="M399.34222,165.66466c-.01322.04626.01322.09417.05948.10821.04543.01322.09417-.01239.10821-.05782l.10491-.35604-.18256-.00165-.09004.3073Z"/>
        <path class="cls-12" d="M398.65423,167.9331c-.06196-.15448-.12226-.30895-.18174-.46342h.7451c.06278.12805.12887.25526.1966.38082.01652.03056.0157.06691-.00165.09665-.01735.02891-.04956.04709-.08343.04626h-.58567c-.03965,0-.07517-.02395-.09004-.0603h.00083Z"/>
        <path class="cls-12" d="M404.2128,167.89766c0,.05287.04295.09665.09665.09665h.44526c.0537,0,.09665-.04378.09665-.09665v-.42789s-.63854,0-.63854,0v.42789Z"/>
        <path class="cls-12" d="M406.7059,167.93883c-.07518-.15531-.14787-.31226-.21974-.46922h.73271c.06608.12803.13713.25359.2123.37667.01817.02974.019.06691.00248.09748-.01735.03057-.04874.04957-.08343.04957h-.55677c-.03717,0-.07104-.02065-.08674-.05452l-.00081.00002Z"/>
        <path class="cls-12" d="M406.5646,164.79478c-.34944.06856-.67324.23378-.93346.47664.22634.68646.48573,1.36136.77733,2.02303h.72529c-.3709-.78139-.56503-1.63473-.56916-2.49961v-.00006Z"/>
        <path class="cls-12" d="M400.23038,164.42476c-.20652-.15612-.48656-.17513-.71207-.04709-.28995.16438-.5163.42129-.64434.72859.71867.16603,1.47286.06441,2.12297-.28418-.27591-.0884-.53528-.22304-.76659-.39816l.00002.00084Z"/>
        <path class="cls-12" d="M397.71086,167.86121c-.05121-.12722-.09335-.25857-.12721-.39156h-.60798c.05452.15696.114.31225.17926.46507.01487.03635.05039.05948.08922.05865h.37585c.03222,0,.06195-.0157.08013-.04213.01735-.02643.02148-.0603.00991-.09004h.00083Z"/>
        <path class="cls-12" d="M397.17878,163.68223c.29409-.45765.46591-.98386.49812-1.5274h.00083l.25857.65341c.15861.40231.12143.85498-.10078,1.22506-.29986.5006-.37256,1.10528-.19826,1.66205-.16521.51629-.19743,1.06646-.09335,1.59926h-.62615c-.11153-.34694-.19826-.70133-.26022-1.05984-.15118-.8863.03468-1.79663.52041-2.55248l.00082-.00006Z"/>
      </g>
      <g>
        <path class="cls-12" d="M416.02899,157.18618c-.38775.00049-.75052.19241-.96838.51357-.21786.32067-.2629.72848-.11995,1.0893h-.00049l.20464.5165c.10624.26779.08176.57034-.06707.81758-.19045.31724-.21002.70841-.05238,1.04279.09498.28053.19485.55959.3001.83619h.4318c-.11406-.24527-.21198-.4974-.29227-.7554-.02399-.07687-.03476-.15666-.03231-.23646.01273-.34417.2022-.65652.50132-.82689.16987-.09645.38039-.08274.53656.03525.12729.09596.26976.16988.42152.21884.51843.08665,1.04669.08959,1.56563.00881.07735-.01175.15667.01028.21591.06169.05973.05091.094.12533.094.20366v1.29053s.37844,0,.37844,0v-.41418c.01518-.46362.28934-.87927.70989-1.07559.42007-.19682.91454-.141,1.28025.14442.0284.02252.04504.0563.04504.09253,0,.03623-.01665.0705-.04504.09253-.09351.07392-.1126.20807-.04308.305l-.00049-.00049.81269.90032c.01567.16989.1552.30109.32557.30549.16989.00489.31676-.11799.34173-.28641l-.08763-1.40558c.2017-.20611.28003-.50377.20562-.78283-.00196-.00685-.00881-.01126-.01567-.00979-.15323.02203-.29031.10673-.37795.23451-.02546.03721-.0705.0563-.11505.04945-.04504-.00734-.08176-.03917-.09449-.08274-.22128-.75198-.55322-1.46677-.98551-2.12084-.31382-.47587-.84549-.76177-1.41536-.76177l-3.65759.00002ZM422.18831,160.92014c.05189.00147.09351.04406.09351.09596,0,.02546-.00979.04994-.02791.06854-.01811.01811-.04259.0284-.06805.0284-.02595,0-.05043-.01028-.06854-.0284-.01762-.0186-.02791-.04308-.02742-.06854,0-.02595.01028-.05092.02888-.06903s.04357-.02791.06952-.02693h0Z"/>
        <path class="cls-12" d="M413.4584,159.64857c-.00539-.02791.01273-.05532.04063-.06071.02791-.00539.05532.01273.0612.04063.02448.1224.12631.21444.25066.2257.21638-.04112.38871-.20415.44208-.4176.10477-.41755.15764-.84642.15813-1.27724-.00049-.03035-.00343-.06022-.00832-.09008-.02497-.18065.02937-.36326.14932-.50083.11947-.13757.29326-.21688.47538-.21688h.21591l-.1175.10379h-.0984c-.15226.00049-.29717.06609-.39705.18114-.09987.11504-.1454.26731-.12435.41809.0049.03476.00783.06952.00783.10477,0,.43921-.05385.8764-.16057,1.30281-.06463.2575-.27564.45285-.53756.49691-.17625-.0098-.32361-.13758-.35788-.31039l.00049-.00009Z"/>
        <path class="cls-12" d="M416.66736,160.9524c.00979.02644.03966.04063.06658.03084s.04063-.03917.03133-.06609l-.06854-.19044-.09791.03476.06854.19093Z"/>
        <path class="cls-12" d="M416.24776,161.0611c.00196.02742.02448.04847.05189.04847.02693,0,.04994-.02105.05141-.04847v-.23695s-.1033.01616-.1033.01616v.22079Z"/>
        <path class="cls-12" d="M415.88107,161.03609c-.00783.02742.00783.05581.03525.06413.02693.00783.05581-.00734.06413-.03427l.06218-.21101-.1082-.00098-.05336.18212Z"/>
        <path class="cls-12" d="M415.47334,162.38049c-.03672-.09155-.07246-.1831-.10771-.27465h.44159c.03721.07589.07637.15128.11652.22569.00979.01811.0093.03966-.00098.05728-.01028.01714-.02937.02791-.04945.02742h-.3471c-.0235,0-.04455-.0142-.05336-.03574h.00049Z"/>
        <path class="cls-12" d="M418.76765,162.35949c0,.03133.02546.05728.05728.05728h.26388c.03182,0,.05728-.02595.05728-.05728v-.25359s-.37844,0-.37844,0v.25359Z"/>
        <path class="cls-12" d="M420.2452,162.38389c-.04456-.09204-.08764-.18507-.13023-.27808h.43425c.03916.07588.08127.15029.12582.22324.01077.01762.01126.03966.00147.05777-.01028.01812-.02889.02938-.04945.02938h-.32997c-.02203,0-.0421-.01224-.05141-.03231h-.00048Z"/>
        <path class="cls-12" d="M420.16146,160.52055c-.2071.04063-.399.13855-.55322.28248.13414.40684.28787.80682.46069,1.19896h.42985c-.21982-.4631-.33487-.96883-.33731-1.48141v-.00004Z"/>
        <path class="cls-12" d="M416.40745,160.30125c-.1224-.09253-.28836-.10379-.42201-.02791-.17184.09742-.30599.24968-.38187.4318.42592.0984.8729.03818,1.25819-.16842-.16352-.05239-.31724-.13218-.45432-.23597v.0005Z"/>
        <path class="cls-12" d="M414.91424,162.33789c-.03035-.0754-.05532-.15324-.07539-.23206h-.36033c.03231.09302.06756.18506.10624.27563.00881.02154.02986.03525.05287.03476h.22275c.01909,0,.03672-.0093.04749-.02497.01028-.01567.01273-.03574.00587-.05336h.00049Z"/>
        <path class="cls-12" d="M414.5989,159.86118c.17429-.27123.27612-.58309.29522-.90523h.00049l.15324.38725c.094.23843.07197.50671-.05973.72604-.17771.29668-.2208.65505-.1175.98502-.09791.30598-.11701.63204-.05532.94781h-.37109c-.0661-.20562-.1175-.41565-.15422-.62812-.0896-.52527.02055-1.06478.30843-1.51274l.00048-.00004Z"/>
      </g>
    </g>
    <g>
      <path class="cls-6" d="M168.09565,163.01928c-.45452.35708-.78058.86163-1.21184,1.405.10201-1.41206,2.73491-3.53124,5.17083-4.30047.40223-.36837.10782-.83341.17368-1.17073.10007,1.26246-.75087.63792-.27245-1.02465-.23566-.91386-.64111,2.11636-.94262,1.92577-.53523-.28439.0297-1.24552.15108-1.70563-.52941,2.02748-1.16084,1.46922-.34347-.17713v-.00071c.00904-.00988.01808-.01976.02647-.03105-.30409.60618-.69018,1.20319-.91034,1.88765-.06263.40295-.47196.20887-.30215-.14043.04584-.1736.09814-.34508.14785-.51727-.051-.10585.36155-.49468-.16012-.31262-.43773.35778-.59915.93221-.86644,1.42335-.83545.43964.05617-1.27094.33185-1.5172v.00071c.84642-1.019,1.91495-1.78748,3.10614-2.23342.07619-.20183.16979-1.23141-.12654-.97242-.12138.24629-.07941.75297-.38932.79459-.53523-.45799.28473-1.3281.44937-1.90608-1.18925.05434-1.13049,1.98864-1.72124,2.18122-.30151-.38741.28795-1.00277.31572-1.46145h-.00065c.01485-.00917.02905-.01835.04326-.02893-.6043.03317-1.12662,1.07616-1.27835,1.76067-.35898.51938-.45195-.30626-.26407-.58853.7399-2.47767,3.38695-1.63436,3.11126-3.23623q.07941-.5709-.15495-.72332c-.42482.25122-.21111,1.12979-.61658,1.1566-.49391-.6591.32863-1.35209.66952-2.00417-.87355.31121-1.15051,1.0797-1.51013,1.86868-.04971.12208-.11105.27875-.27181.21171-.38028-.76637.86644-2.26811,1.62247-2.50802.38997-.14466.48745-.3733.43968-.76214-.15237-.59135.41902-.79883.43773-.12208-.1033.54408.15883.67816.59399.8701.77669.35424,1.69083,1.60966,1.36873,2.48688-.44291.00565-.88323-1.83761-1.58826-1.99496.11169.04799.29893.48762-.01033.40011-.16915.59348.40159.99289.1556,1.70563-.32734-.44316-.2447-.91527-.47003-1.31892,0,.50457-.18401,1.15731.00968,1.61178.17497.30767.583.08962.88128.18418.91292.28298,2.54319,1.18766,2.26618,2.37253-.15818.0748-.27569-.09174-.32605-.2364-.31959-.78472-.89872-1.25399-1.59988-1.57649-.52748.04234.68954.87362.28924,1.20671-.49584-.0868-.62045-1.43042-1.34938-1.29493.09168.51374.73537,1.29634.36284,1.73457-.25761.09597-.30086-.15807-.34671-.36131-.21758-.32744-.2292.37612-.12073.55043,1.98272.20394,3.63553.96538,4.70408,2.92714.23953.22582.11815.80872-.22662.54055-.7399-1.04935-1.44686-2.27516-2.74268-2.52211.00581.00212-.01937-.03528-.01937-.03528.54168.44952,2.00734,1.80443,1.69678,2.55589-.18916.09456-.26276-.08751-.32798-.223-.26729-.53914-.48938-1.19472-1.03108-1.45511h.00065c-.0142-.00565-.02776-.012-.04132-.01976.17239.24347.60883,1.52849-.02324,1.06698-.37317-.85317-.76378-1.55391-1.65217-2.06632.14785.38812.98071,2.42817.20789,1.5906-.1627-.36483-.215-.78543-.50295-1.20601-.25308,3.60531.62238,1.33232,3.10878,2.87276.63789.38319,2.93441,1.73668,2.62186,2.55174-.1685.16654-.30861.01411-.43322-.11785h.00194c-.52812-.57513-1.12405-1.06981-1.77231-1.47204.21629.26321.92389,1.35138.50489,1.616-.15237.05998-.24017-.05081-.28473-.18913-.32734-.75931-.78509-1.61671-1.49464-1.98358-.45066-.1496.44484.81012.42418,1.06275.22855.41211-.30408.69086-.42096.21171-.33703-.67886-1.00848-2.03796-1.82586-1.64706-.15237.06281-.03228.12491.00646.18842.17755.37189.23308.79954.42225,1.18061-.04067.80658-.58235-.14819-.67663-.47774-.23308,1.24552-.08845,1.87717,1.21895,1.70633,1.82256.24488,5.1153,1.82984,5.21414,3.9574-.53394.11785-.73408-.92444-1.17828-1.19754-.36995-.07268.14979,1.16861.11686,1.50169l-.00065-.00141c.03874.08468.03874.18418-.00065.26816-.03938.08398-.11363.14184-.19885.15666-.08522.01411-.17174-.01694-.23242-.08398-.06069-.06704-.08845-.1616-.07489-.25476-.17755-1.22294-.49262-2.7472-1.72058-3.18475.04842.96466.96974,2.2215.46614,3.07527-.22404.07268-.2886-.13337-.3325-.31333-.33638-1.1305-.14139-3.06696-1.58632-3.16433.27309.87151,1.27318,2.81856.65466,3.4373-.38803-.02117-.24405-.41283-.33831-.63792-.08974-.57372-.44419-1.03029-.55201-1.6153-.18336-.43046-.20273-.99289-.75927-1.1185-.13106.07198-.43.06281-.28795.29779.1924.33237,1.37326,3.7296.27505,2.44515-.13042-.61818-.2292-1.17777-.59075-1.71762-.21629,1.28927.47583,2.98296-.17561,4.00763-.86515-.13196-.5901-1.57931-.81479-2.29774-.28085.26535.07554.82776-.3764.87787-.63336-.72473.07683-2.6287.0962-3.63982,0,.00141.03034-.04798.03034-.04798-.91421.51938-1.07626,1.94203-1.21056,2.97374-.04907.24699.0736.72968-.26987.73391-.59979-.35002.05682-2.10859.13558-2.74377-.00194.00423.02841-.03317.02841-.03317-.49778.38459-.62303,1.04299-.8051,1.63929-.52555-.10938.21564-1.75997.52232-1.98575-.64176.70215-1.34614,2.12557-1.62118,3.31663-.06521.21805-.11298.50738-.39254.39236-.48229-.48058.62691-2.25601.7399-2.96598-.00452.00353.00194-.04657.00194-.04657-.73861.52926-1.26092,1.33725-1.78967,2.10715-.0665.08539-.1401.19406-.25308.07268.06069-.7198.85417-1.38596,1.25316-1.99984,2.33014-3.02379,4.25269-.8955,3.7828-4.00112-.55654.38178-.23695,1.25047-.77927,1.32596-.44613-.24628.00129-.93926.09039-1.31045h-.00065c.01227-.11503.05294-.2237.11751-.31544.07231-.03599.04713.07198.03616-.01835-.06263-.05434-.21693.16019-.33121.13902-.70826.54408-1.28029,1.19047-1.3823,2.19043-.01356.13055-.08006.24134-.18594.23429-.50424-.43117.22791-1.43112.38221-1.95052-.00129-.00071-.05036-.03176-.05036-.03176h.00065c-.80188.57231-1.39714,1.43042-1.68637,2.42763-.08716.55607-.65531.31896-.39448-.16795.09103-.36413.34154-1.07686.37188-1.21801v.00071c-.04713.17571-.18916.30203-.35638.31685l-.00006.00041Z"/>
      <path class="cls-6" d="M141.41693,158.64334c-.31868.27015-.54729.65187-.84967,1.06296.07152-1.06831,1.91755-2.67159,3.62546-3.25355.28202-.27869.0756-.63052.12177-.88572.07016.95513-.52647.48263-.19102-.77521-.16523-.69139-.44951,1.60115-.6609,1.45696-.37527-.21515.02082-.94231.10593-1.29041-.37119,1.53391-.81391,1.11155-.24082-.13401v-.00053c.00634-.00747.01268-.01495.01856-.02349-.21321.45861-.48391.91028-.63827,1.42812-.04391.30485-.33091.15802-.21185-.10624.03214-.13134.06881-.26108.10366-.39134-.03576-.08008.2535-.37426-.11226-.23652-.30691.27069-.42008.70527-.60749,1.07685-.58576.33261.03938-.96154.23267-1.14785v.00053c.59346-.77093,1.34264-1.35233,2.17783-1.68972.05342-.15269.11905-.93163-.08872-.7357-.0851.18633-.05568.56966-.27297.60115-.37527-.3465.19963-1.00478.31507-1.44206-.83383.04111-.79263,1.50452-1.20683,1.65022-.2114-.2931.20189-.75866.22136-1.10568h-.00045c.01041-.00694.02037-.01388.03033-.02189-.4237.02509-.78992.81417-.8963,1.33205-.25169.39294-.31688-.23171-.18515-.44526.51877-1.8745,2.37472-1.23649,2.18142-2.4484q.05568-.43192-.10864-.54723c-.29786.19006-.14802.85475-.43231.87504-.3463-.49865.23041-1.02293.46943-1.51628-.61248.23545-.80666.81685-1.05881,1.41377-.03486.09236-.07786.21089-.19057.16017-.26663-.5798.60749-1.71596,1.13757-1.89746.27342-.10945.34177-.28243.30828-.57661-.10683-.44739.29379-.60436.30691-.09236-.07243.41162.11136.51307.41647.65828.54457.26801,1.1855,1.2178.95967,1.88147-.31054.00427-.61927-1.39026-1.11359-1.5093.07831.0363.20959.36891-.00724.30271-.1186.44901.28157.75118.10909,1.29041-.22951-.33528-.17157-.69245-.32955-.99784,0,.38173-.12901.87557.00679,1.2194.12268.23277.40876.0678.6179.13934.64008.21409,1.78312.89853,1.5889,1.79496-.11091.05659-.1933-.0694-.22861-.17885-.22408-.59369-.63012-.94872-1.12173-1.19271-.36984.03203.48346.66095.2028.91295-.34766-.06567-.43502-1.08219-.9461-.97969.06428.38868.5156.98075.2544,1.3123-.18062.07261-.21095-.11959-.24309-.27335-.15255-.24772-.1607.28456-.08465.41644,1.39016.15429,2.54901.73037,3.2982,2.21455.16794.17084.08284.61184-.15889.40896-.51877-.79389-1.01445-1.72129-1.923-1.90812.00407.0016-.01358-.02669-.01358-.02669.37979.34009,1.40742,1.36515,1.18968,1.93368-.13263.07154-.18423-.0662-.22996-.16871-.18741-.40789-.34312-.90387-.72293-1.10088h.00045c-.00996-.00427-.01947-.00908-.02897-.01495.12087.1842.42687,1.1564-.0163.80723-.26164-.64548-.53552-1.17563-1.1584-1.56329.10366.29363.68762,1.83705.14576,1.20338-.11408-.27602-.15074-.59422-.35264-.91242-.17744,2.72763.43638,1.00798,2.17968,2.17341.44725.2899,2.05742,1.3139,1.83828,1.93054-.11814.126-.21638.01068-.30375-.08916h.00136c-.37029-.43512-.78811-.80938-1.24264-1.11368.15165.19914.64777,1.0224.35399,1.2226-.10683.04538-.16839-.03844-.19964-.14309-.22951-.57446-.55045-1.22313-1.04795-1.50069-.31597-.11318.31189.61291.29741.80403.16025.31178-.21321.52267-.29515.16017-.2363-.5136-.70708-1.54183-1.28018-1.2461-.10683.04752-.02263.0945.00453.14255.12448.28136.16342.6049.29605.8932-.02852.61023-.40831-.11212-.47441-.36144-.16342.94231-.06202,1.42019.85465,1.29094,1.27786.18526,3.58653,1.38438,3.65583,2.99401-.37437.08916-.51469-.69939-.82613-.90601-.25939-.05499.10502.88413.08193,1.13611l-.00045-.00107c.02716.06407.02716.13934-.00045.20288-.02761.06353-.07967.10731-.13942.11852-.05975.01068-.12042-.01281-.16296-.06353-.04255-.05072-.06202-.12226-.05251-.19274-.12448-.92522-.3454-2.07842-1.20636-2.40945.03395.72982.67992,1.68069.32683,2.32662-.15708.05499-.20235-.1009-.23313-.23705-.23585-.85529-.09914-2.32034-1.11223-2.394.19148.65935.89267,2.13241.45901,2.60052-.27206-.01602-.17112-.31233-.2372-.48263-.06292-.43405-.31144-.77947-.38703-1.22207-.12856-.32567-.14214-.75118-.53235-.84621-.09189.05446-.30149.04752-.2019.2253.1349.25145.96284,2.82166.19284,1.8499-.09144-.46769-.1607-.89105-.4142-1.29948-.15165.97541.33362,2.25678-.12313,3.032-.60659-.09984-.41374-1.19484-.57128-1.73837-.19691.20075.05296.62625-.26391.66416-.44407-.5483.05387-1.98876.06745-2.75373,0,.00107.02128-.0363.02128-.0363-.64098.39294-.75461,1.46926-.84877,2.24981-.0344.18686.0516.55205-.18922.55524-.42054-.26481.03984-1.59527.09506-2.07582-.00136.0032.01992-.02509.01992-.02509-.34901.29097-.43683.78908-.56449,1.24022-.36848-.08275.1512-1.33152.36622-1.50233-.44996.53122-.94383,1.60812-1.13667,2.50922-.04572.16497-.07922.38387-.27523.29684-.33815-.36358.43955-1.7068.51877-2.24393-.00317.00267.00136-.03524.00136-.03524-.51787.40042-.88408,1.01171-1.2548,1.59418-.04663.0646-.09823.14682-.17744.05499.04255-.54457.59889-1.04856.87864-1.51299,1.63375-2.28767,2.98172-.6775,2.65226-3.02708-.39021.28884-.16613.94605-.54637,1.00317-.3128-.18633.00091-.7106.06338-.99143h-.00045c.0086-.08702.03712-.16924.08239-.23865.0507-.02723.03305.05446.02535-.01388-.04391-.04111-.1521.12119-.23222.10518-.49659.41163-.89766.90066-.96918,1.65719-.00951.09877-.05613.18258-.13037.17725-.35354-.3262.15979-1.08273.26798-1.47568-.00091-.00053-.03531-.02402-.03531-.02402h.00045c-.56223.43299-.97959,1.08219-1.18237,1.83664-.06111.4207-.45946.24131-.27658-.12707.06383-.27548.23946-.81471.26074-.92149v.00053c-.03305.13294-.13263.22851-.24987.23971l-.00004.00031Z"/>
      <path class="cls-6" d="M153.84202,157.21258c-.39278.31603-.67455.76257-1.04723,1.24347.08815-1.24972,2.36342-3.12525,4.46846-3.80604.34759-.32602.09317-.73759.15009-1.03613.08648,1.11732-.64888.56458-.23544-.90685-.20365-.80879-.55403,1.87304-.81458,1.70436-.46253-.25169.02567-1.10232.13056-1.50953-.4575,1.79438-1.00316,1.3003-.29682-.15676v-.00062c.00781-.00874.01562-.01749.02288-.02748-.26278.53649-.59643,1.06486-.78668,1.67063-.05412.35662-.40785.18486-.26111-.12428.03961-.15364.08481-.30541.12777-.4578-.04408-.09368.31244-.43781-.13837-.27668-.37827.31665-.51776.82503-.74875,1.25971-.72197.38909.04854-1.12482.28678-1.34277v.00062c.73145-.90184,1.65484-1.58197,2.68422-1.97665.06584-.17862.14673-1.08983-.10935-.86062-.10489.21797-.06863.6664-.33644.70323-.46253-.40534.24605-1.1754.38833-1.68694-1.02771.04809-.97693,1.76-1.48744,1.93044-.26055-.34287.24884-.88748.27283-1.29343h-.00056c.01283-.00812.02511-.01624.03738-.02561-.52222.02935-.97359.95243-1.10471,1.55825-.31021.45967-.39056-.27105-.2282-.52087.6394-2.19281,2.92689-1.44645,2.68865-2.86416q.06863-.50527-.1339-.64016c-.36712.22233-.18244.9999-.53283,1.02362-.42682-.58332.28399-1.19664.57858-1.77375-.75489.27543-.99423.95556-1.305,1.65384-.04296.10805-.09596.2467-.23489.18737-.32862-.67826.74875-2.00734,1.40208-2.21967.337-.12803.42124-.33038.37996-.67452-.13167-.52336.3621-.70699.37827-.10805-.08927.48152.13725.60019.51331.77006.67119.31352,1.46116,1.4246,1.18281,2.20096-.38274.005-.76326-1.62634-1.37252-1.7656.09652.04247.25832.43156-.00893.35411-.14617.52525.34704.87874.13446,1.50953-.28288-.39221-.21146-.81004-.40618-1.16728,0,.44656-.15901,1.02425.00837,1.42647.1512.2723.50381.07932.76157.163.78891.25044,2.19774,1.05111,1.95835,2.09976-.13669.0662-.23824-.08119-.28176-.20922-.27618-.6945-.77664-1.10982-1.38256-1.39524-.45583.03747.59588.77318.24995,1.06798-.42849-.07682-.53617-1.26596-1.16608-1.14605.07923.45468.63548,1.1473.31356,1.53514-.22262.08494-.25999-.1399-.29962-.31977-.18802-.28979-.19806.33288-.10433.48715,1.7134.18049,3.1417.85439,4.0651,2.5906.20699.19985.1021.71574-.19584.47841-.6394-.9287-1.25033-2.01358-2.37013-2.23214.00502.00187-.01674-.03123-.01674-.03123.4681.39784,1.73468,1.59697,1.4663,2.26204-.16347.08369-.22707-.07745-.28343-.19736-.23099-.47716-.42291-1.05736-.89102-1.28782h.00056c-.01227-.005-.02399-.01062-.03571-.01749.14897.21548.52613,1.35276-.02009.94431-.32248-.75508-.66004-1.37526-1.42775-1.82875.12777.34349.8475,2.149.17965,1.40773-.1406-.32289-.18579-.69513-.43463-1.06735-.2187,3.1908.53784,1.17914,2.6865,2.54247.55124.33913,2.53582,1.53701,2.26572,2.25836-.14562.14739-.26669.01249-.37437-.1043h.00167c-.45639-.50901-.97136-.94682-1.53157-1.3028.18691.23295.79839,1.19601.43631,1.43021-.13167.05309-.20755-.04497-.24605-.16738-.28288-.67201-.67845-1.43083-1.29162-1.75553-.38944-.1324.38441.71698.36656.94056.19751.36473-.26278.61143-.36378.18737-.29125-.60081-.8715-1.80365-1.57785-1.45769-.13167.05558-.0279.11054.00558.16676.15343.32914.20142.70761.36489,1.04487-.03515.71385-.50325-.13115-.58472-.42281-.20142,1.10232-.07644,1.66135,1.05338,1.51015,1.57499.21672,4.42047,1.61946,4.50588,3.50242-.46141.1043-.63437-.81816-1.01823-1.05985-.3197-.06433.12944,1.03426.10099,1.32904l-.00056-.00125c.03348.07495.03348.163-.00056.23733-.03403.07432-.0982.12553-.17184.13865-.07365.01249-.14842-.01499-.20085-.07432-.05245-.05933-.07644-.14302-.06472-.22547-.15343-1.08233-.42571-2.43136-1.48687-2.81859.04184.85375.83802,1.96609.40283,2.7217-.19361.06433-.2494-.11804-.28733-.2773-.29069-1.00052-.12219-2.71435-1.37085-2.80053.236.77131,1.10024,2.49451.56574,3.04211-.33532-.01874-.2109-.36537-.29236-.56458-.07755-.50776-.38386-.91183-.47703-1.42959-.15846-.38097-.1752-.87874-.65614-.98991-.11326.0637-.37159.05558-.24884.26355.16627.29415,1.18672,3.3008.23768,2.16403-.1127-.54711-.19806-1.04236-.51051-1.52014-.18691,1.14104.4112,2.64-.15176,3.54687-.74763-.11679-.50995-1.39774-.70411-2.03356-.2427.23484.06528.73259-.32527.77694-.54733-.64141.06639-2.32647.08313-3.22134,0,.00125.02622-.04247.02622-.04247-.79003.45967-.93007,1.71875-1.04612,2.63185-.0424.21859.0636.64579-.23321.64953-.51832-.30978.0491-1.86616.11717-2.42832-.00167.00375.02455-.02935.02455-.02935-.43016.34038-.5384.92307-.69574,1.45082-.45416-.0968.18635-1.55762.45137-1.75744-.55458.62142-1.16328,1.88119-1.40097,2.93531-.05635.19298-.09764.44905-.33922.34725-.41678-.42532.54176-1.99663.6394-2.62497-.00391.00312.00167-.04122.00167-.04122-.63828.46841-1.08964,1.18351-1.54657,1.86489-.05747.07557-.12107.17175-.2187.06433.05245-.63704.73815-1.22661,1.08294-1.76992,2.01363-2.67614,3.67503-.79254,3.26897-3.54111-.48094.33788-.20476,1.1067-.67342,1.17352-.38553-.21797.00112-.83127.07811-1.15978h-.00056c.0106-.1018.04575-.19798.10154-.27917.06249-.03185.04073.0637.03124-.01624-.05412-.04809-.18747.14177-.28622.12304-.61206.48152-1.10638,1.0536-1.19454,1.93859-.01172.11554-.06918.21359-.16068.20735-.43575-.3816.19695-1.26658.3303-1.72627-.00112-.00062-.04352-.0281-.04352-.0281h.00056c-.69296.50651-1.20736,1.26596-1.4573,2.14852-.07532.49214-.5663.28229-.34089-.14864.07867-.32226.29515-.95305.32137-1.07797v.00062c-.04073.15551-.16347.26731-.30797.28042l-.00005.00036Z"/>
      <g>
        <path class="cls-6" d="M190.97412,159.02085h-2.58488s.54219,3.90116.54219,3.90116h.77948s0-.59427,0-.59427c0-.07945.06442-.14441.14441-.14441h.22493c.4928,0,.89382-.40101.89382-.89382l.00006-2.26867Z"/>
        <path class="cls-6" d="M190.97406,158.73155h-2.60687v-.46489h2.60687v.46489Z"/>
        <path class="cls-6" d="M188.4086,155.56753l-.21152.50837,1.5708.62755-.21043-.57655-1.14885-.55937Z"/>
        <path class="cls-6" d="M187.54916,155.52987l.46973.22064.12884-.30975-.54971-.26787-.04886.35698Z"/>
        <path class="cls-6" d="M191.30533,164.89213h1.5128s.23191-.43752.23191-.43752h-1.97662s.23191.43752.23191.43752Z"/>
        <path class="cls-6" d="M189.71097,163.67578h-.76123v-.46489h.76123v.46489Z"/>
        <path class="cls-6" d="M191.07281,157.22472l1.16814-1.46553v-.64526s-4.97365-2.51616-4.97365-2.51616c-.25445-.12884-.56528-.03596-.707.21152-.07247.12616-.09019.27271-.051.41228.03918.13957.13098.255.25821.32478l.18359.10039c.27593.15085.38168.48959.23996.77089l-.09502.18843,2.64012,1.28624c.03382.01664.05959.04509.07247.08052l.31941.87449.94476.37742ZM187.27906,153.08193c0,.11971-.09716.21687-.21687.21687s-.21687-.09716-.21687-.21687c0-.11971.09716-.21687.21687-.21687s.21687.09716.21687.21687Z"/>
        <path class="cls-6" d="M184.49641,164.09497c-.01289-.20721-.16427-.37739-.36827-.41335l-.23889-.04295v3.27628s.38812-.07838.38812-.07838c.2185-.04402.37256-.24479.35914-.46703l-.14011-2.27457h0Z"/>
        <path class="cls-6" d="M184.5073,168.47835c-.49496-.33126-.90778-.81118-.90778-1.3872v-3.50496s-.24103-.04295-.24103-.04295c-.06335-.01127-.11166-.06335-.1181-.12776l-.29418-2.8978c-.03704-.36343-.33982-.63721-.70485-.63721h-.75157s.30437.175.30437.175c.31887.18305.52501.51212.55078.87878l.17393,2.45542c.00268.04026-.01127.07945-.03865.10898s-.06549.04617-.10575.04617h-1.24329s0,.34035,0,.34035h1.28785c.07623,0,.13904.05851.14441.13421l.17232,2.43123c.00268.04026-.01127.07945-.03865.10898s-.06549.04617-.10575.04617l-1.46017.00054v.34035s1.46017,0,1.46017,0c.06871,0,.12829.04885.14171.11649.01396.06764-.02255.13528-.08643.16159-.72359.29848-1.28349.71989-1.66947,1.25349h3.53024l-.0001.00013Z"/>
        <path class="cls-6" d="M194.35289,165.18146h-4.42132s-.51428.74405-.51428.74405h5.44928s-.51368-.74405-.51368-.74405Z"/>
        <path class="cls-6" d="M184.56786,161.83022c-.05261.01664-.0918.06281-.09985.11703l-.20668,1.46924c.102.03113.1938.08267.2711.14977l.13796-.98185c.00752-.05476.04617-.10092.09931-.11757s.11112-.00161.14923.03865l.42302.44932c.0263.02845.06227.04456.10092.04563.03973.00161.07569-.01288.10361-.03919.05851-.05476.0612-.14655.00644-.20453l-.83584-.88791c-.03757-.03973-.09716-.05529-.14923-.03865v.00006Z"/>
        <path class="cls-6" d="M185.57041,155.77629h-1.1939v-.36827h1.1939v.36827Z"/>
        <path class="cls-6" d="M186.62844,153.80018c-.18145-.09932-.31511-.25982-.38221-.45362l-.50032-.16427c-.06334-.02094-.12883-.01074-.18252.02845-.05422.03919-.08374.0977-.08374.16427v1.74368s.23512,0,.23512,0c.07945,0,.14441.06442.14441.14441v.65816c0,.07945-.06442.14441-.14441.14441h-.53039s.49657,1.2814.49657,1.2814c.00913.02308.01181.04778.00859.07247l-.61896,4.40305.69305.73653c.16427.17393.15568.44932-.01825.61305-.08428.07945-.19433.12025-.31028.11757-.11595-.00376-.22332-.05207-.30277-.13635l-.21634-.22977-.14655,1.04251c.00752.03597.01342.07301.01557.11112l.04724.76766c.20989.27377.4112.481.61305.63077.14118.10468.28398.18198.42946.23245l1.44945-10.66893-.48637-.23675c-.03489-.01718-.0612-.04724-.07355-.08375s-.00913-.07677.00805-.11112l.16052-.31941c.07086-.14172.01771-.31136-.12079-.38759l-.18363-.1004Z"/>
        <path class="cls-6" d="M186.20066,153.02723c.00752-.12562.04348-.24855.1079-.36128.00966-.01718.02094-.03328.03167-.04939l-.3688-.12132c-.09502-.03114-.19326-.04724-.2915-.04724-.1938,0-.38061.0612-.54059.17716-.24319.17607-.38276.44932-.38276.74994v1.74313s.43375,0,.43375,0v-1.74368c0-.15943.07409-.30491.20346-.39832.1283-.09287.29203-.1181.44235-.06871l.3645.11971h.00001Z"/>
        <path class="cls-6" d="M190.00031,164.16596h5.45684s0-6.62237,0-6.62237h-4.19374s.00054,3.74545.00054,3.74545c0,.65225-.53092,1.18317-1.18317,1.18317h-.08052s.00006,1.69374.00006,1.69374ZM193.86485,161.54941c-.07032-.03812-.09609-.12616-.05744-.19594l1.035-1.89815c.03812-.07032.12562-.09609.19594-.05798.07033.03812.09609.12562.05798.19594l-1.035,1.8987c-.0263.04778-.07623.07516-.12723.07516-.02362,0-.04724-.00591-.06925-.01772h0ZM193.63187,160.55361c-.07032-.03812-.09609-.12616-.05744-.19541l1.035-1.8987c.03812-.07032.12562-.09609.19594-.05798.07033.03812.09609.12562.05798.19594l-1.035,1.8987c-.0263.04778-.07623.07516-.12723.07516-.02362,0-.04724-.00591-.06925-.01772h0ZM193.36026,159.524l-.81866-1.50099h1.63676s-.81811,1.50099-.81811,1.50099ZM193.08861,160.55361c-.02201.01181-.04563.01772-.06871.01718-.05154,0-.10092-.02684-.12723-.07516l-1.035-1.8987c-.03811-.06979-.01235-.15783.05798-.19594.06979-.03811.15783-.01235.19594.05798l1.035,1.8987c.03811.06979.01235.15783-.05798.19594h0ZM192.91307,161.35349c.03865.06979.01235.15783-.05744.19594-.02201.01181-.04563.01772-.06925.01772-.05154,0-.10092-.02684-.12723-.07516l-1.035-1.8987c-.03811-.06979-.01235-.15783.05798-.19594.06979-.03811.15783-.01235.19594.05798l1.035,1.89815h0ZM191.11942,162.84042c0-.19057.15461-.34571.34571-.34571h.71076c0,.01396.72901,1.1429.72901,1.1429h-1.44024c-.19057,0-.34571-.15461-.34571-.34571l.00047-.45148Z"/>
        <path class="cls-6" d="M195.51619,167.95043c0-.37202.16748-.70539.43107-.92925h-7.16507s0,1.85802,0,1.85802h7.16507c-.26357-.22332-.43107-.55669-.43107-.92871v-.00007Z"/>
        <path class="cls-6" d="M195.8055,167.9502c0,.51214.41657.92871.92871.92871s.92871-.41657.92871-.92871c0-.51214-.41657-.92871-.92871-.92871s-.92871.41657-.92871.92871Z"/>
        <path class="cls-6" d="M191.4191,157.2542h1.97442s-1.00601-1.21538-1.00601-1.21538l-.96841,1.21538Z"/>
        <path class="cls-6" d="M180.90274,168.7682c.1385.35055.46112.65923.9475.65923h3.07495s0-.65923,0-.65923h-4.02244Z"/>
        <path class="cls-6" d="M195.93438,163.77928c.15138-.0628.24909-.20882.24909-.37202v-5.08428c0-.16373-.0977-.30975-.24909-.37202l-.18843-.07784v5.98347s.18843-.0773.18843-.0773h0Z"/>
        <path class="cls-6" d="M185.79043,167.95036c0,.95717.77895,1.73557,1.73557,1.73557h9.23184c.95717,0,1.73557-.77895,1.73557-1.73557s-.77842-1.73557-1.73557-1.73557h-9.23184c-.95663,0-1.73504.77842-1.73557,1.73557ZM186.3321,167.95032c0-.67157.5465-1.21806,1.21806-1.21806h9.18402c.67157,0,1.21806.54649,1.21806,1.21806,0,.67157-.5465,1.21806-1.21806,1.21806h-9.18402c-.67157,0-1.21806-.54649-1.21806-1.21806Z"/>
        <path class="cls-6" d="M184.92521,166.35223c.00215.03865.00107.07677-.00268.11381.11541.12346.24962.22493.39939.30277.13634.07085.29041.12346.45845.15836.10361-.17555.23245-.33498.38221-.47187v-.39135c-.31137-.02738-.60394-.14439-.88899-.35591-.13796-.102-.27432-.22709-.41121-.37632l.06281,1.02051h.00003Z"/>
        <path class="cls-6" d="M187.55019,167.02156c-.51214,0-.92925.41657-.92871.92925,0,.51214.41657.92871.92871.92871h.94321s0-1.85802,0-1.85802h-.94321s0,.00007,0,.00007Z"/>
      </g>
    </g>
  </g>
  <g id="Fishing-pressure">
    <g>
      <g>
        <polyline class="cls-10" points="443.46043 195.33274 337.27211 195.33274 337.27211 204.79371 443.46043 204.94096"/>
        <polyline class="cls-1" points="337.27211 195.33274 358.71423 190.66529 443.45771 190.08876 443.45771 195.33274"/>
        <path class="cls-10" d="M357.56167,211.46244s-.80365.57787-2.61264.57787-2.61264-.57787-2.61264-.57787v-7.89123h5.22527v7.89123Z"/>
        <path class="cls-10" d="M409.06113,211.46244s-.80365.57787-2.61264.57787-2.61264-.57787-2.61264-.57787v-7.89123h5.22527v7.89123Z"/>
        <path class="cls-10" d="M367.96572,207.05225s-.80365.57787-2.61264.57787-2.61264-.57787-2.61264-.57787v-7.89123h5.22527v7.89123Z"/>
        <path class="cls-10" d="M419.85651,207.05225s-.80365.57787-2.61264.57787-2.61264-.57787-2.61264-.57787v-7.89123h5.22527v7.89123Z"/>
      </g>
      <g>
        <path class="cls-1" d="M345.66622,150.14005c-.88444.83488-1.95533,1.65554-2.47883,2.76398-.04333.11053-.01092.17816.0575.30291.48273.70935,1.23979,1.23133,1.92765,1.73794-1.91459,4.66618-3.88211,9.30985-5.9669,13.90367-5.95095,13.75857-11.37626,27.74158-17.69478,41.34284.00014.00006-.04588-.01947-.04588-.01947,5.41697-13.98481,11.72836-27.59092,17.51364-41.41998,1.84629-4.64459,3.80796-9.24017,5.822-13.81342l.05829.20837c-.45624-.34814-.89154-.71118-1.29663-1.12146-.2642-.3155-.75951-.7188-.61606-1.18836.46257-.97595,1.87836-2.17863,2.72-2.69702h0Z"/>
        <path class="cls-1" d="M316.12448,212.04032c3.76008-8.08872,10.06531-20.67395,14.0362-28.7798,4.01787-8.11281,10.12307-20.7245,14.26047-28.66912-3.76012,8.08861-10.06522,20.67382-14.03617,28.77961-4.01791,8.11281-10.12306,20.72461-14.2605,28.6693h0Z"/>
        <path class="cls-1" d="M304.83755,211.00956c10.78285-16.03698,28.07014-41.00223,39.12823-57.11838-.00006.00009.21094.13388.21094.13388l-16.758,28.75867c-4.15162,7.17481-12.61622,21.57851-16.86602,28.69555,4.10379-7.21867,12.44943-21.66336,16.65008-28.82144-.00007.00003,16.75793-28.75864,16.75793-28.75864l.211.13379-19.6156,28.52368c-4.86113,7.11937-14.75976,21.40108-19.71857,28.45288h0Z"/>
        <path class="cls-1" d="M296.77371,210.18168c6.43235-7.95833,16.9007-20.25393,23.55189-28.19032,6.70101-7.93501,16.97544-20.29681,23.74311-28.02922-6.4323,7.95827-16.90066,20.25387-23.55184,28.19026-6.70105,7.93496-16.97545,20.29681-23.74316,28.02929h0Z"/>
        <path class="cls-1" d="M288.00521,209.60038c17.61066-18.05258,37.5409-38.13877,55.45504-55.89005-17.61068,18.05256-37.54066,38.13901-55.45504,55.89005h0Z"/>
        <path class="cls-1" d="M281.87216,201.12601c19.83056-16.3076,42.23158-34.41846,62.33085-50.39349-19.83041,16.30778-42.2314,34.41869-62.33085,50.39349h0Z"/>
        <path class="cls-1" d="M283.35745,206.85856c18.97631-17.37982,40.42842-36.70215,59.69077-53.76421-18.97608,17.38007-40.42829,36.7023-59.69077,53.76421h0Z"/>
        <path class="cls-1" d="M343.05856,151.40079c-.56258,1.32388-2.42693,3.42047-.0163,3.95357.51283.16468,1.14062.18196,1.64351.31065-.563.09027-1.14558.08136-1.71046-.06158-.54666-.1319-1.23021-.48241-1.26392-1.12524.06901-1.1224.54198-2.33725,1.34718-3.07739h0Z"/>
        <path class="cls-1" d="M344.07247,157.11344c-1.21942.51928-2.74327.58142-3.87586-.19493-1.05288-1.0179-.48203-2.70846.07634-3.82886.00008-.00002.02309.00975.02309.00975-1.11326,4.02624-.05603,4.60494,3.77643,4.01404h0Z"/>
        <path class="cls-1" d="M337.54184,155.07059c-.1497,2.91984-.62439,4.92158,3.13694,4.61452.7761-.00645,1.62662-.16118,2.3724-.17281-1.51468.42966-3.2489.74016-4.73944.04469-1.35345-.95164-1.22649-3.12855-.76989-4.4864h0Z"/>
        <path class="cls-1" d="M341.91549,162.18937c-4.76077,3.15852-8.76359.84027-7.70156-4.92365.03586,1.00282.00752,2.12493.24593,3.13129.88292,4.40685,4.48561,3.12643,7.45563,1.79236h0Z"/>
        <path class="cls-1" d="M330.06851,160.04581c-.43708,7.17977,2.89537,9.65077,9.67561,7.34682-.00014.0001.00999.02293.00999.02293-6.29232,3.02505-10.83053-.66541-9.68561-7.36975h0Z"/>
        <path class="cls-1" d="M337.00735,173.72831c-2.87525,2.2353-7.24957,3.1776-10.46695,1.12088-3.03303-2.36454-3.38609-6.70798-3.3048-10.27255.11393,1.79007.27052,3.70576.74525,5.47357,1.51185,7.1241,7.86046,6.79427,13.02649,3.67811h0Z"/>
        <path class="cls-1" d="M316.42086,169.10782c1.39579,1.87249,1.84914,4.35422,2.09926,6.64252.11277,5.1097,4.44492,8.69337,9.45937,7.0812,2.22542-.65414,4.33791-1.68588,6.35116-2.86545-.87131.68891-1.99415,1.25969-3.01627,1.7946-4.31159,2.43565-9.8558,2.56455-12.09843-2.59901-1.40691-3.1865-.81667-7.06288-2.79509-10.05386h0Z"/>
        <path class="cls-1" d="M331.50479,186.66007c-3.37872,1.69983-7.49804,3.09461-11.2185,1.7219-2.41823-.9004-4.68597-2.43551-6.09708-4.63789-.72885-1.08542-1.09002-2.41202-1.16626-3.69827-.31357-2.54833-.94852-5.05846-1.71915-7.51952.51439,1.12116.85697,2.45561,1.20855,3.68224.33448,1.24904.61543,2.51796.75276,3.81007.28222,5.12833,5.88418,9.19033,10.84014,8.70681,2.5546-.20745,5.07311-1.10142,7.39955-2.06533h0Z"/>
        <path class="cls-1" d="M305.24484,176.56083c1.99616,2.27494,2.51625,5.4658,2.78234,8.37876,1.46688,11.24685,10.73343,13.34483,20.14422,9.508-1.26478.67273-2.79728,1.1002-4.22482,1.46972-8.54702,2.29603-14.85207-2.36291-16.10716-10.95347-.3067-2.92818-.7987-6.0296-2.59458-8.40302h0Z"/>
        <path class="cls-1" d="M325.24942,201.36075c-4.71344,1.43896-10.11162,3.2014-14.85631,1.01001-4.88848-2.09594-8.11867-6.36503-8.75393-11.64209-.46524-3.37278-1.76689-6.56809-4.03221-9.0818,2.45578,2.40338,3.79709,5.67958,4.27102,9.03511.67689,6.69919,6.53508,12.74904,13.45519,12.53936,3.35296-.14717,6.71083-1.03218,9.91623-1.86059h0Z"/>
        <path class="cls-1" d="M289.02603,187.35965c2.69898,2.62569,3.91678,6.28027,5.31648,9.6535,1.54619,3.30732,3.69475,6.52228,6.84728,8.482,6.609,3.32657,14.52232,3.15985,21.61083,1.58084-1.69371.57667-3.62171.85049-5.43919,1.07667-5.47657.58287-11.33259.14744-16.24386-2.5411-3.10999-2.05525-5.33118-5.20858-6.94644-8.51799-1.44514-3.3899-2.63197-6.98813-5.1451-9.73393h0Z"/>
        <path class="cls-1" d="M285.11685,209.1099c-4.99588-3.85878-3.74531-11.44854-3.46396-17.00969,5.036-3.63497,10.57155-6.90716,15.77119-10.42355,15.02552-10.19214,31.58077-21.41335,46.8163-31.10674-14.6088,10.3472-31.60143,21.29879-46.72894,31.2379-4.99142,3.26107-10.88405,7.61591-15.42018,10.34475-.41971,5.62171-1.59531,12.81798,3.02559,16.95734h0Z"/>
      </g>
      <path class="cls-1" d="M345.15025,148.74114c-.4573.40649-.9146,1.47353-.63514,1.82921s1.09244.20325,1.88002,1.3211c.78758,1.11785,2.08327,4.0141,2.08327,4.0141,0,0-1.3211-.66055-1.82921-1.16866s-.48271-1.09244-.81298-1.3211-1.40651-.33027-1.40651-.33027c0,0-.24486,1.09244-.11783,1.47353s.96542.27946.96542.27946l.86379,1.06704-.33027.9146h.83839s1.19407,1.95624,2.03245,2.64219,3.04868,2.21029,3.04868,2.21029c0,0-.78758,2.10867-1.14326,2.79463-.35568.68595-1.42272,2.48976-1.47353,3.25193s-.38109,1.90543-.27946,2.18489.63514.35568.63514.35568c0,0-.27946,1.82921-.38109,2.46435s-.27946,2.26111-.55893,3.1249-.55893,4.26816-.71136,4.80167-.58433,1.82921-.4573,2.46435.73676,2.15948.94001,2.38813.55893.35568.60974.55893-.20325.68595-.10162.83839.4573.58433.4573.83839.66055,3.1249.73676,3.70923-.17784,1.27028-.05081,1.37191.58433,0,.58433,0l3.17571.04517s-.20325-3.83061-.20325-4.38954-.58433-3.53139-.76217-4.06491.17784-.4573.05081-.81298-.4573-.60974-.4319-.83839.4573-1.11785.60974-1.70218.73676-4.39518.73676-4.39518c0,0,1.37191-3.42977,1.49894-4.14113s0-1.95624,0-1.95624l1.11785.07622s-.60974-.96542-.55893-1.52434c.05081-.55893,1.37191-3.30274,1.42272-3.42977s.38109-.10162,1.01623-.48271,1.09244-.81298,1.01623-1.44812c-.07622-.63514-.63514-2.46435-.63514-2.46435,0,0,.50811-1.01623-.10162-1.21947-.60974-.20325-1.27028-.10162-1.27028-.10162,0,0,.02541-.73676-.50811-.8892s-1.44812-.05081-1.44812-.05081c0,0,.68595-2.28651.38109-3.35355s-1.49894-1.42272-2.33732-1.39731-2.08327,1.24488-2.08327,1.24488l-1.8038-2.46435-.40649-.63514-.58433.05081-1.62596-1.93083s-.17784-.68595-.50811-1.14326-1.14326-.66055-1.14326-.66055Z"/>
    </g>
    <path class="cls-1" d="M217.11608,193.5103s-6.12241,2.02499-8.81456,2.6585c-2.69221.63345-15.22372.34158-15.22372.34158l-.27065-3.00008s1.10852-3.24644,1.34608-4.67174c.23756-1.42524,1.18774-5.78031-.55429-7.52228-1.74197-1.74203-2.61298-2.61304-4.43418-2.92977-1.82119-.31673-4.67179.71262-4.67179.71262,0,0-1.02935-.79179-2.61298-.31673-1.58364.47512-1.74203,2.37548-1.26691,3.16733.47506.79179,1.26691,1.26691,1.26691,1.26691,0,0-.71262,2.29626-.71262,2.69221,0,.39589.07917,1.82119.07917,1.82119,0,0-.47512,2.69215-.63345,3.484-.15839.79185.23756,2.4244.23756,2.4244,0,0-.41377.70309-.52307,1.10386-.1093.40072-.07287,1.05648-.07287,1.05648,0,0,1.16583-.32785,1.67586-.61932.51002-.29142,1.56655-1.8944,1.56655-1.8944l.69219-.25504-1.31151-1.12934.07281.94717-.94717.36434s-.03643-1.27508-.03643-1.8944c0-.61938.47359-2.51378.58289-3.35171s.9108-2.58659.9108-2.58659c0,0,1.8944-.32791,2.29518.18211.40072.51008.80144,2.33161.76506,3.13311-.03643.80149-.43721,2.00371-.43721,2.00371l.07287,1.45725s-.72863.47364-.98366.76506c-.25498.29147-1.09291,1.1294-.94717,1.45725.14568.32791,1.16578.43721,1.31151.40078s.61932-.14574.61932-.14574l-.12661,1.87738-22.31504.04847-6.08404-4.47606s-.1093-.80144-.61932-.98361-1.60299,0-1.60299,0c0,0-4.15315-1.78516-4.44462-1.96727-.29142-.18217-3.09662-2.00376-3.42452-2.33161-.32785-.32791-1.71229-.76506-1.71229-.76506l.03643-.87436s.83793.18217,1.0201-.69219.54645-3.20597-1.0201-4.04385c-1.5665-.83793-2.95094.29142-3.20592,1.34795-.25504,1.05648.29142,2.98737.29142,2.98737l-.14568,1.38438s-1.38438,1.09291-1.85803,1.6758c-.47359.58295-.18217,3.09667-.1093,3.60669.07287.51008.58295,5.13182.58295,5.13182h-1.82233s-6.3346-.27717-9.4227-.91063c-3.0881-.63345-5.78031-2.13792-5.78031-2.13792l8.15579,11.40229h10.61038l.47512,4.03828h1.74203l-.39595-4.03828,64.05848.55429,8.07657-11.95657ZM149.75168,196.51038c0-.1093-1.01005-1.73164-1.04643-1.95025-.03643-.2186,0-4.11671,0-4.11671l6.12042,1.60299s.94723.87431,1.34795.87431h1.16583l4.88177,3.63813-12.46954-.04847ZM190.5639,191.6958c-.18512.52444-.24681,1.82006-.18512,2.65294.06175.83288.18512,2.21011.18512,2.21011l-3.1465-.11242.18506-2.80798s.77125-2.25114,1.14138-2.71383c.37019-.46275.52444-2.1285.52444-2.1285,0,0,.95631-.80206,1.29562-.3085s.18506,2.68381,0,3.20819Z"/>
  </g>
  <g id="Climate-and-weather">
    <g id="clouds">
      <path id="Big-modified" class="cls-11" d="M142.93527,24.08285c1.07002.0461,2.15583.07832,3.21576.19145.69646.07448,1.43068.14573,2.08263-.05747.58459-.1822,1.0335-.56593,1.6166-.75096,1.37295-.43566,2.92944.34979,4.39283.15741-.15825.22662.10271.5183.42418.58699s.66087-.01509.97663-.09808c.88126-.23162,1.76252-.46324,2.64378-.69485.59275-.15579,1.2152-.31377,1.83326-.23618s1.21711.47593,1.18024.95835c-.06172.8075.12617.9487,1.10021,1.01461.40522.02742.81319.03816,1.2195.05114,4.78576.15289,9.58364.09281,14.37209.16718,2.54934.03959,5.10096.09361,7.64514.23002,1.68826.09052,3.53588.13203,5.15811.54483.81707.20792,1.3744.49671.57626,1.02253-1.4985.98722-4.27642,1.29647-6.10046,1.66313-7.16691.29795-14.4848-.16865-20.8988,2.59344,6.08194.6807,21.60158,1.55789,7.718,4.08611,1.42858.88483,3.63238.29191,4.96147,1.58665-6.99071.95497-13.96473.54851-20.98059-.0297-5.73428-.14249-9.90658,4.02057-16.29032,3.26383-4.60797-.54865.91125,4.8485-6.97218,6.66402,5.84642,1.49591,1.72109,2.84096,8.25449,4.04507,1.64534,1.97822,3.6887,2.82144,6.79919,3.47337,5.22718,1.76196.45329,6.11281.76909,7.91475,1.66599.54447,3.39048,1.04707,3.72221,2.5067,1.61483,2.60607,6.83425.03686,7.3539,3.53464.37991.60884.14978,1.39796,1.21919,1.69584,4.36482,1.77307-.61922,4.34328-3.95409,4.18744-1.81318.35257.49803,1.68488-2.21222,2.19312-.51106.30491-1.82646.25438-1.66007.82553,2.61779-.66395,5.36855,1.92863,6.98617.60125,1.31139-1.30983,3.33464.11092,4.87082-.26816,7.32417-2.9467,7.67018,2.17838,11.84333,4.29287,3.2706,1.58538-.12656,4.12502,2.48902,4.64414,4.58747.66574,3.86701,4.86257,7.23951,5.86364,3.39735.5441,1.56197,2.43443,1.58396,3.94561-1.194,3.13036-5.03117-1.55461-9.01682,2.65524,2.53144.65127,5.32752.98362,5.98382,3.09499,2.40419-.06018,4.59497-.524,6.41937,1.28763.95716.78608.955.87302.14957,1.72918-6.64036,9.42171-27.14629,4.03863-39.73352,4.55874-8.08017-.53272-15.98798.24377-24.00108.30232-2.99333.29681-7.54379-.93909-9.40863,1.10662-2.53156,2.08803-7.44007.12543-10.86988,1.03432-3.56215.56396-6.75216,2.27972-10.54911,1.47937-6.38627-2.29251,2.11527-2.96252.12839-4.37763-2.6631-3.03365,4.03968-7.40198,8.64299-5.64872.57491.15376,2.13044.62101,2.10508-.1287-.12357-.44611-.60602-.72693-1.32079-.62588-3.28053-.28671-7.85013-2.89439-7.56979-5.15009.38096-1.66499,3.30977-2.03606,3.58523-3.64364.2015-1.01204.71517-2.03518,2.01147-2.65972,2.27235-4.9093,2.7413-5.58127,10.81252-6.23887-1.13561-4.29484,2.91287-3.02761,4.33387-4.84038-2.51974-1.7459-7.98582,3.4463-10.24201-3.5842-1.73505,1.35022-5.7359,1.25493-6.78271-.21346.01774-.11969.16932-.5685-.28711-1.27755,4.21865.85077-1.02347-4.65077-3.78461-3.09132-1.02313.25173-3.12937.36435-3.23004-.61548-.00825-.56594-.25953-1.1413.65783-1.57658,1.06021-1.30291-.637-1.72381-1.61545-.40223-.0253-1.24046-3.05895-2.16007-3.20718-.4502-2.34755-4.90446-.80433-6.23464,5.28627-8.74413-.81522-1.50076-1.67548-3.00797.03193-4.45758,6.50265-4.22183-.44225-3.98769.26808-7.85456-2.31799.01419-4.60874.45896-6.91264-.42792-3.2067-.95231-2.69313-4.03845-7.2158-2.94589-13.44634,3.18447-3.2912-6.72078-11.52251-8.32917-3.98855-.92888-3.10066-4.72597.19195-5.85241,4.68228-1.63929,10.25442-.65715,15.31813-1.38626,6.03139-.57248,8.67175-4.00947,14.94379-3.42787,1.02371.09493,2.1151.57146,3.15239.73663,1.06405.16943,2.14718.26271,3.23313.28423,2.06443.0409,4.12102-.18207,6.1272-.54591,2.09622-.38017,4.13986-.91221,6.16932-1.46298.98662-.26776,2.05702-.69897,3.08451-.84221.92241-.12859,1.71863-.0314,2.59631-.41404.38761-.16898.8119-.39572,1.23701-.29372.24435.05863.42324.21517.62198.33956.85898.53759,2.10287.47551,3.17951.28039,1.07664-.19513,2.17148-.49734,3.26004-.34665.26054.03607.55744.13183.60893.33221.02658.10344-.0219.21103-.00182.31534.05887.30578.59054.36619.99052.3495.39102-.01631.82292-.04658,1.09148-.26652s.16327-.68633-.22795-.69941c.47893-.39437,1.23019-.57913,1.91647-.47131.94057.14776,1.18365.84235,2.03674.95878.58831.08029,1.25516.03722,1.85312.06492.09707.0045.1943.00881.29166.013ZM154.92987,103.27425c3.52296.62077,6.11328-2.12858,9.70686-1.97196,8.25187,1.16357,2.81727,1.71113,10.7484-1.43544-1.64939-.97712-7.1275-1.66309-8.84412-.1129-4.11289,1.64932-9.08234,1.27318-13.60336.89054-1.0953,1.50871-.60354,2.43968,1.99221,2.62976ZM154.13926,87.6736c3.45822-.29679,7.37904-1.07567,10.56639.85682.28945-1.65677-2.18731-1.34943-2.93733-2.6239-.9055-1.04227-2.23227-1.89071-4.33282-1.62304-2.24376-.32585-7.14563,1.6708-6.20354,3.37225,1.04747-.25174,1.95127-.4809,2.9073.01787ZM139.49438,91.16378c1.49542.01637,2.91816.05419,3.31956,1.1778.31524.65186.72831.99508,1.80771.93262,1.30737-.27427,2.58735,2.1933,3.20366.66664.11153-.49551-.22276-.91856-.85751-1.11191-2.17823-.92768-1.08339-3.86891-5.00644-3.09969-1.83565-.16069-3.64146-1.58194-5.58587-.87104,1.16436.76443,2.64709,1.19586,3.1189,2.30559ZM115.52557,93.80069c-2.52189-1.01329-3.44518.91592-5.8586.83283,3.86838,2.482,6.6234-1.67107,14.42237.58898-1.31244-2.94555-5.65487-1.52367-8.56377-1.42181ZM129.5656,85.49946c.95517-.40236.24904-.77238.15893-1.11646-.26069-2.23864-3.56629-1.68479-5.64676-2.6867-1.48953-.8674-4.40406.69873-5.76624,1.33898,4.0306.3975,9.46971-.76832,11.25406,2.46418ZM124.44099,103.00963c-1.14941-1.12169-4.97664-3.86399-5.7525-1.15212.89596.70372,5.94107,3.13384,5.7525,1.15212Z"/>
      <path class="cls-8" d="M62.0556,97.80191c.91867.6915.34496,1.55029,1.86219,1.25579,6.08385-1.57541.7347,3.11998,4.03469,5.12753,1.66485,2.12481-4.031,1.09748-4.03701,2.91596.62194,3.22612-5.13695,1.76309-2.44587,4.52591.17734,1.70388-4.95254,1.12433-2.2815,3.53677,1.3332,3.24036,11.65847.28515,9.10613,2.91398-12.45517,4.19306,9.97785,4.45043,14.65382,3.2538,8.89817,1.06017,17.32204,3.8263,26.69015,2.36183,8.45568-1.95371,22.07542-.75144,28.06731-4.01313-10.22704-3.04613.68657-2.50422,5.9817-5.35516,4.03914-1.78927,8.62769-1.23903,12.93795-1.99974,7.85068-2.2457-.56994-2.4808-4.71628-1.80131,2.12583-2.17184,10.72403-3.13305,8.95687-6.12386-4.19479-.93416-6.77744,2.11019-10.38307,2.28304-1.40416-.4401-2.55193.58346-3.4494,1.35327-7.08475-3.73212-15.33598,1.11231-23.01075,2.14463,14.16766-10.48173-2.82485-5.78049-10.85308-5.86154-11.11315,3.18134,6.35102-5.21959-2.7943-10.32021-2.71176-4.57806,12.16028-5.14416,7.91673-10.70708-1.24108-.65473.26782-1.78606.54209-2.59351.90704-3.49502-7.22036.19177-6.61183-3.47222-11.48653-3.49579,11.67148-7.46346,10.17515-14.20797.19523-1.43385-2.75298-1.29322-2.53707-2.97391-.45299-.82013-.88196-1.98654-2.26895-1.71253-3.09174-.03708-7.50289-4.32367-10.53556-2.66061-2.01407,2.10451-2.46293-1.6954-4.57132-1.40119-1.31148-.28196-4.38914,1.24642-4.60478-.40043,1.71836-2.34487-3.51434-2.18297-1.59245-4.12794.8132-.73545-.62321-.33766-.87021-.59616-.40665-.70845-1.22663-1.53343-.93511-.91438.17307.3675-.02217.59034-.52791.63566-6.05229-.41542,3.29788-6.52322-9.8983-1.95712-1.52333-.34661-5.35876-1.1977-4.72635.83679.53315,1.89288-2.61124.68784-1.87547,2.39429-1.32473-.97768-1.4458-.70604.35427.63488-.6181,1.03335-.70971,2.07653-.22019,3.21254.4166,4.10184-6.06607.43167-8.28912,1.43376-1.69756.52397-1.36414,2.6059-3.02634,2.79818-.91866-.025-1.18039.7408-1.34463,1.19878-.46128,2.27168-4.28814,1.29891-4.60696,3.47262-.23797.95558-1.63719,1.20925-2.25213,1.98413-3.78305,3.35484,9.37839,4.21885,6.40277,6.28561-1.28712,1.26136-6.43692-.53642-5.06383,2.14747,1.86156,2.83174,5.66952,3.29294,8.62264,5.0002,2.1708,3.98018-4.23967,1.49144,2.17593,6.37203-1.71033,1.42537-3.89151,1.74808-4.14142,4.15743-1.7571-1.41182-1.4973-.54226-2.90587-.06246-2.99736-.8514.10969,4.09222-2.13166,1.43324-.88515,3.68033,1.30732,1.51522.99297,4.11036-1.28556,1.31719.84623,2.3293.03537,3.48198Z"/>
    </g>
    <g id="precipitation">
      <line class="cls-5" x1="176.26619" y1="115.75375" x2="147" y2="173.50915"/>
      <line class="cls-5" x1="174.71223" y1="112.64584" x2="145.44604" y2="170.40123"/>
      <line class="cls-5" x1="150.88489" y1="114.1998" x2="121.61871" y2="171.95519"/>
      <line class="cls-5" x1="157.35971" y1="112.38685" x2="128.09353" y2="170.14224"/>
      <line class="cls-5" x1="144.92806" y1="119.37965" x2="115.66187" y2="177.13505"/>
      <line class="cls-5" x1="145.44604" y1="114.71778" x2="116.17986" y2="172.47318"/>
      <line class="cls-5" x1="142.59712" y1="115.49476" x2="113.33094" y2="173.25016"/>
      <line class="cls-5" x1="135.60432" y1="121.96958" x2="106.33813" y2="179.72498"/>
      <line class="cls-5" x1="107.89209" y1="126.89044" x2="78.6259" y2="184.64584"/>
      <line class="cls-5" x1="89.5036" y1="123.78253" x2="60.23741" y2="181.53793"/>
      <line class="cls-5" x1="83.02878" y1="121.45159" x2="53.76259" y2="179.20699"/>
      <line class="cls-5" x1="131.46043" y1="125.07749" x2="102.19424" y2="182.83289"/>
      <line class="cls-5" x1="129.64748" y1="122.74656" x2="100.38129" y2="180.50195"/>
      <line class="cls-5" x1="126.53957" y1="122.48757" x2="100.64029" y2="173.76814"/>
      <line class="cls-5" x1="105.04317" y1="127.40843" x2="79.14388" y2="178.689"/>
      <line class="cls-5" x1="93.64748" y1="126.11347" x2="67.7482" y2="177.39404"/>
      <line class="cls-5" x1="97.53237" y1="125.07749" x2="71.63309" y2="176.35807"/>
      <line class="cls-5" x1="98.82734" y1="128.4444" x2="72.92806" y2="179.72498"/>
      <line class="cls-5" x1="102.97122" y1="125.07749" x2="77.07194" y2="176.35807"/>
      <line class="cls-5" x1="111.77698" y1="124.04152" x2="85.8777" y2="175.3221"/>
      <line class="cls-5" x1="115.40288" y1="123.78253" x2="89.5036" y2="175.06311"/>
      <line class="cls-5" x1="118.76978" y1="123.78253" x2="92.8705" y2="175.06311"/>
      <line class="cls-5" x1="77.84892" y1="124.55951" x2="62.30935" y2="155.63865"/>
      <line class="cls-5" x1="75.77698" y1="123.26454" x2="60.23741" y2="154.34368"/>
      <line class="cls-5" x1="91.83453" y1="124.8185" x2="76.29496" y2="155.89764"/>
      <line class="cls-5" x1="84.58273" y1="122.74656" x2="58.68345" y2="174.02713"/>
      <line class="cls-5" x1="83.02878" y1="130.51634" x2="57.1295" y2="181.79692"/>
      <line class="cls-5" x1="69.82014" y1="123.78253" x2="55.31655" y2="152.27174"/>
      <line class="cls-5" x1="69.56115" y1="129.73936" x2="55.05755" y2="158.22857"/>
      <line class="cls-5" x1="120.84173" y1="127.66742" x2="106.33813" y2="156.15663"/>
      <line class="cls-5" x1="172.52368" y1="127.58374" x2="158.02008" y2="156.07295"/>
      <line class="cls-5" x1="180.15108" y1="116.27174" x2="165.64748" y2="144.76095"/>
      <line class="cls-5" x1="185.07194" y1="112.38685" x2="170.56835" y2="140.87606"/>
      <line class="cls-5" x1="171.34532" y1="113.9408" x2="142.07914" y2="171.6962"/>
      <line class="cls-5" x1="166.68345" y1="118.34368" x2="137.41727" y2="176.09908"/>
      <line class="cls-5" x1="166.42446" y1="112.38685" x2="137.15827" y2="170.14224"/>
      <line class="cls-5" x1="163.57554" y1="113.16382" x2="134.30935" y2="170.91922"/>
      <line class="cls-5" x1="130.16547" y1="172.99116" x2="161.5036" y2="111.60987"/>
      <line class="cls-5" x1="121.61871" y1="177.39404" x2="152.95683" y2="116.01275"/>
    </g>
  </g>
  <g id="overlay">
    <rect class="cls-2" x="19.64029" y="19.60267" width="423.83453" height="315.71223" rx="9.08543" ry="9.08543"/>
  </g>
  <g id="Invasive-species">
    <g>
      <path class="cls-14" d="M255.88042,307.1226s1.76633-.46591,1.7151-1.22222c-.05123-.75631-3.40392-2.80236-6.10171-3.78155-6.8068-2.47061-17.60848-2.31935-18.7119-2.6723-1.10343-.35295-7.20433-2.36977-7.20433-2.36977,0,0-1.66389,1.7143-1.91599,2.36977s-.2521,1.36136-.2521,1.36136c0,0-5.8488,1.31094-7.5631,1.41178-1.7143.10084-2.9985-.35294-3.91945-.55463-.92094-.20168-2.1144.35295-2.34961,1.00842s.42026,1.05883.42026,1.05883c0,0-.94144.37347-2.01683.2521-1.30652-.14745-7.34297-1.91598-8.71355-2.11767-1.37059-.20169-2.42942-.60505-2.58068.50421-.15126,1.10925-.23559,4.78996.20994,5.64711.44553.85716.44359,5.49586,1.40256,6.05049.95896.55463,5.33032-1.41178,6.24551-2.16809.91519-.75631,4.44316-2.21851,4.44316-2.21851,0,0,.62317,1.2101.58964,2.82356-.03353,1.61347.16264,3.47903.9217,3.63029.75907.15126,6.20451-3.98324,6.20451-3.98324,0,0,2.77314.45379,3.78155.60505,1.00842.15126,2.87398.30252,2.87398.30252,0,0-.94167,1.10925-.82378,2.16809.1179,1.05883.82378,1.51262.82378,1.51262l4.78997-2.82356s7.15034.75631,8.84413.75631,3.86188-.10084,3.86188-.10084c0,0,1.10925,1.2101,2.06725.70589.95799-.50421,3.58046-2.36977,3.58046-2.36977,0,0,6.40283-2.57146,7.61292-3.02524,1.2101-.45378,3.52945-1.51262,3.47903-2.16809-.05042-.65546-1.71429-.59292-1.71429-.59292ZM252.15479,305.82557c-.44553,0-.80672-.36119-.80672-.80673s.36119-.80674.80672-.80674.80674.36119.80674.80674-.36118.80673-.80674.80673Z"/>
      <path class="cls-14" d="M281.70193,287.02241s1.1268-.29722,1.09412-.7797c-.03268-.48248-2.17148-1.78772-3.89249-2.41238-4.34229-1.57609-11.23306-1.47959-11.93697-1.70475-.70392-.22516-4.59589-1.51176-4.59589-1.51176,0,0-1.06145,1.09361-1.22228,1.51176s-.16083.86846-.16083.86846c0,0-3.73115.83629-4.82476.90062-1.09361.06433-1.91285-.22515-2.50035-.35382-.5875-.12866-1.34885.22516-1.4989.6433s.2681.67547.2681.67547c0,0-.60058.23825-1.2866.16083-.83347-.09406-4.68433-1.22227-5.55867-1.35093-.87435-.12866-1.54981-.38598-1.64631.32165-.0965.70763-.15029,3.05568.13393,3.60249.28422.54681.28298,3.506.89474,3.85981s3.4004-.90062,3.98423-1.3831c.58383-.48248,2.83444-1.41526,2.83444-1.41526,0,0,.39754.77196.37615,1.80124-.02139,1.02929.10375,2.21939.58799,2.31589.48424.09649,3.95807-2.54105,3.95807-2.54105,0,0,1.76908.28949,2.41238.38598.6433.0965,1.83341.19299,1.83341.19299,0,0-.60073.70763-.52552,1.3831.07521.67547.52552.96495.52552.96495l3.05569-1.80125s4.56145.48248,5.64198.48248,2.46363-.06433,2.46363-.06433c0,0,.70763.77196,1.31877.45031.61113-.32165,2.2841-1.51176,2.2841-1.51176,0,0,4.08458-1.64042,4.85655-1.92991s2.25156-.96495,2.21939-1.3831c-.03217-.41814-1.09361-.37824-1.09361-.37824ZM279.32522,286.19498c-.28422,0-.51464-.23041-.51464-.51464s.23042-.51464.51464-.51464.51464.23041.51464.51464-.23041.51464-.51464.51464Z"/>
      <path class="cls-14" d="M90.66268,312.39808s1.1268-.29722,1.09412-.7797c-.03268-.48248-2.17148-1.78772-3.89249-2.41238-4.34229-1.57609-11.23306-1.47959-11.93697-1.70475-.70392-.22516-4.59589-1.51176-4.59589-1.51176,0,0-1.06145,1.09361-1.22228,1.51176s-.16083.86846-.16083.86846c0,0-3.73115.83629-4.82476.90062-1.09361.06433-1.91285-.22515-2.50035-.35382-.5875-.12866-1.34885.22516-1.4989.6433s.2681.67547.2681.67547c0,0-.60058.23825-1.2866.16083-.83347-.09406-4.68433-1.22227-5.55867-1.35093-.87435-.12866-1.54981-.38598-1.64631.32165-.0965.70763-.15029,3.05568.13393,3.60249.28422.54681.28298,3.506.89474,3.85981s3.4004-.90062,3.98423-1.3831c.58383-.48248,2.83444-1.41526,2.83444-1.41526,0,0,.39754.77196.37615,1.80124-.02139,1.02929.10375,2.21939.58799,2.31589.48424.09649,3.95807-2.54105,3.95807-2.54105,0,0,1.76908.28949,2.41238.38598.6433.0965,1.83341.19299,1.83341.19299,0,0-.60073.70763-.52552,1.3831.07521.67547.52552.96495.52552.96495l3.05569-1.80125s4.56145.48248,5.64198.48248,2.46363-.06433,2.46363-.06433c0,0,.70763.77196,1.31877.45031.61113-.32165,2.2841-1.51176,2.2841-1.51176,0,0,4.08458-1.64042,4.85655-1.92991s2.25156-.96495,2.21939-1.3831c-.03217-.41814-1.09361-.37824-1.09361-.37824ZM88.28597,311.57065c-.28422,0-.51464-.23041-.51464-.51464s.23042-.51464.51464-.51464.51464.23041.51464.51464-.23041.51464-.51464.51464Z"/>
    </g>
  </g>
</svg>