<?xml version="1.0" encoding="UTF-8"?>
<svg width="1200pt" height="1200pt" version="1.1" viewBox="0 0 1200 1200" xmlns="http://www.w3.org/2000/svg">
 <path d="m562.08 356.23c-6.8633-16.176-18.996-29.426-26.352-36.406 2.207-9.9258 4.6562-27.59 0-44.137l-3.0586-10.906-11.027 2.207c-31.379 6.1328-74.41 54.926-91.57 75.875-13.367-9.3125-27.949-22.922-27.949-36.527 0-12.266 23.293-38.734 43.883-62.027 42.168-47.809 94.766-107.39 77.723-166.36l-2.0898-7.3555-7.4766-1.3438c-29.914-5.2695-72.816 9.5625-114.25 38.375-0.23828 0.12109-0.37109 0.23828-0.49219 0.37109-7.7266 5.3867-15.324 11.027-22.801 17.281-17.773 14.953-33.215 31.02-46.211 47.809-13.848 4.043-56.387 18.516-72.203 48.301l-2.9414 5.7617 2.9414 5.6406c7.3555 14.461 20.23 21.457 30.156 25.008-2.9414 12.625-4.5352 25.246-4.5352 37.754 0 27.59 9.5625 49.031 28.199 63.863 21.949 17.531 53.074 22.188 79.559 22.188 23.902 0 44.004-3.6719 50.629-5.0273 6.8633 0.85156 29.051 3.4336 54.059 3.4336 19.98 0 41.809-1.7148 58.477-7.3555l12.383-4.2969zm-108.61-238.68c4.6562-5.2695 12.012-6.2539 16.43-2.3281 4.4141 3.9258 4.043 11.398-0.61328 16.547-4.7773 5.2695-12.133 6.3711-16.43 2.4492-4.4141-3.9219-4.1641-11.398 0.61328-16.668zm-55.07 26.715c0.12109-3.6602 0.66016-7.3555 1.5352-10.992 0.69531-2.5664 1.2109-4.0312 1.2109-4.0312s0.44531 1.4648 1.2109 4.0195c3.1914 10.621 5.2422 21.48 13.414 29.652 10.945 10.934 27.215 12.758 41.508 16.297 2.5664 0.63672 4.0664 1.1172 4.0664 1.1172s-1.4297 0.55078-3.9844 1.3203c-14.688 4.4297-32.23 3.8164-44.902-5.6523-10.434-7.8281-14.477-19.602-14.059-31.73z" fill="#b74e49"/>
 <path d="m1147 413.16 0.32422-44.242-428.65 87.082h-651.35l140.96 522.5c21.684 80.723 95.219 137.5 178.8 137.5h14.34c81.816 0 154.91-54.191 177.77-132.73l137.75-472.93 2.9023-9.2031zm-530.73 102.84c-2.5938 24-5.7227 31.633-9.3477 50.016-7.7188-17.543-13.285-26.016-16.742-50.016zm-55.105 0h4.1055c4.0547 24 14.594 57.023 34.355 87.504-6.0352 28.691-13.043 60.758-20.879 93.035-15-22.402-28.262-52.703-39.301-82.105 12.289-49.918 19.656-86.434 21.719-98.434zm-261.49 259.82c8.7734 26.543 18.336 53.328 28.68 79.402-15.035 26.773-30.648 49.98-46.523 67.488-10.043-26.867-19.645-55.512-28.691-84.961 16.559-16.211 32.137-37.703 46.535-61.93zm-54.492 35.387c-8.1016-27.742-15.672-55.848-22.703-83.531 16.262-19.285 30.266-44.508 42.023-70.883 7.1758 27.156 15.516 56.676 24.926 87.035-13.98 26.352-28.859 49.766-44.246 67.379zm70.812-64.859c14.496-28.031 27.551-58.043 38.832-86.977 8.4727 24.996 18.035 51.492 28.535 78.203-12.395 30.887-25.727 61.129-39.719 88.895-9.8633-26.215-19.117-53.18-27.648-80.121zm80.844 24.324c12.695 30 26.543 59.41 41.316 86.387-12.887 31.766-26.711 61.645-41.316 88.141-14.605-26.496-28.43-56.387-41.316-88.152 14.785-26.977 28.621-56.375 41.316-86.375zm13.488-33.098c10.5-26.711 20.062-53.207 28.535-78.215 11.281 28.945 24.336 58.969 38.844 87-8.543 26.941-17.797 53.902-27.648 80.125-13.988-27.758-27.336-58.02-39.73-88.91zm83.688 38.246c14.398 24.227 29.977 45.719 46.547 61.945-9.0352 29.449-18.637 58.094-28.691 84.961-15.887-17.52-31.5-40.727-46.535-67.5 10.344-26.078 19.91-52.863 28.68-79.406zm10.238-31.992c9.4219-30.359 17.746-59.879 24.926-87.035 11.762 26.387 25.766 51.613 42.035 70.895-7.0312 27.672-14.605 55.777-22.703 83.52-15.387-17.613-30.277-41.027-44.258-67.379zm31.918-227.83c-3.1094 24-6.9492 33.926-11.496 53.797-6.2031-20.102-11.137-29.797-14.641-53.797zm-51.301 0c3.707 24 13.355 57.996 28.934 100.86-7.3672 29.387-15.938 61.848-25.523 94.117-13.68-29.219-26.172-61.609-37.055-91.391 15.504-48.746 25.82-79.586 29.77-103.59zm-29.242 0c-4.7891 24-10.848 39.492-18.059 63.133-7.8867-23.711-14.449-39.133-19.371-63.133zm-30.578 106.18c-8.4492 25.883-17.902 53.184-28.211 80.664-10.309-27.469-19.766-54.77-28.211-80.652 12.898-36.348 22.523-68.195 28.211-88.152 5.6992 19.969 15.312 51.805 28.211 88.141zm-49.559-106.18c-4.9219 24-11.484 39.422-19.379 63.133-7.2109-23.641-13.273-39.133-18.062-63.133zm-62.809 0c3.9492 24 14.27 55.273 29.762 104-10.871 29.785-23.363 61.738-37.043 90.949-9.5898-32.258-18.156-65.148-25.523-94.535 15.586-42.855 25.234-76.418 28.93-100.42zm-29.039 0c-3.5039 24-8.4375 33.695-14.641 53.785-4.5352-19.859-8.375-29.785-11.484-53.785zm-51.133 0c2.0625 12 9.4336 48.938 21.719 98.867-11.039 29.398-24.301 59.258-39.301 81.672-7.8359-32.305-14.855-64.812-20.891-93.516 19.68-30.406 30.219-63.023 34.309-87.023zm-28.895 0c-3.4453 24-9.0234 32.555-16.824 50.16-3.6367-18.445-6.7695-26.16-9.3711-50.16zm-93.746 0h42.648c2.2188 12 7.5586 44.438 15.742 84.371-8.5547 11.426-18.492 19.246-29.832 22.777zm34.238 130.86c11.219-3.1328 21.156-9.2773 29.902-17.352 5.9648 27.875 13.043 59.137 21.191 92.062-8.5078 8.1836-17.426 13.824-26.688 16.141zm30.754 114.47c9.4688-2.5078 18.457-7.1875 26.93-13.645 7.0195 27.203 14.723 55.164 23.051 82.957-9.1914 7.0195-18.492 11.688-27.805 13.273zm28.539 106.18c9.875-2.125 19.535-6.3594 28.934-12.59 9.3359 29.605 19.391 58.68 30.145 86.09-11.664 9.1094-23.398 14.617-35.062 15.84zm72.574 185.03c-24-18.863-35.316-43.465-44.316-71.82 12.828-2.2188 26.641-7.9805 38.914-16.727 12.574 29.773 24.156 56.965 38.375 79.934-10.195 5.1836-20.973 8.2422-32.973 8.375zm32.242 19.43c5.8789-2.0039 11.664-4.6094 17.363-7.7891 6.2148 8.5195 12.574 16.152 19.055 22.836-12.801-3.5273-25.016-8.6055-36.418-15.047zm23.512-41.125c-14.016-23.219-27.551-51.637-40.402-83.543 17.016-16.703 33.371-38.426 48.805-63.527 13.129 30.602 27.359 59.652 42.648 85.5-16.215 25.906-33.281 47.062-51.051 61.57zm65.109 61.164c-17.723-3.3125-35.113-17.93-51.887-41.004 18.336-14.734 35.664-35.051 51.887-59.293 16.234 24.254 33.562 44.566 51.898 59.305-16.773 23.062-34.172 37.668-51.898 40.992zm14.078-122.76c15.277-25.848 29.508-54.887 42.637-85.488 15.445 25.105 31.789 46.836 48.816 63.539-12.852 31.906-26.387 60.324-40.414 83.543-17.766-14.516-34.828-35.672-51.039-61.594zm40.344 115.52c5.7227-6.1211 11.328-13.031 16.836-20.578 4.5977 2.5664 9.2539 4.7891 13.957 6.6016-9.7227 5.6836-20.008 10.41-30.793 13.977zm57.047-32.941c-9.0117-0.76953-17.902-3.4453-26.641-7.9062 14.207-22.969 27.648-50.148 40.211-79.934 10.754 7.668 21.742 12.949 32.93 15.672-8.7969 28.414-25.152 53.148-46.5 72.168zm53.398-95.461c-10.152-2.0508-20.34-7.4297-30.48-15.348 10.738-27.406 20.809-56.484 30.145-86.09 8.5781 5.6875 17.398 9.6484 26.387 11.93zm32.844-112.88c-8.6172-1.8828-17.207-6.3359-25.727-12.84 8.3398-27.793 16.031-55.738 23.051-82.945 8.375 6.3828 17.258 11.039 26.605 13.57zm30.77-105.73c-9.3125-2.2812-18.289-7.9453-26.844-16.176 8.1367-32.914 15.215-64.176 21.18-92.039 9.2773 8.5547 19.871 14.988 31.945 17.902zm32.23-112.46c-12.324-3.0469-23.004-13.285-32.16-25.656 8.2109-39.984 13.551-71.617 15.77-83.617h47.699z" fill="#b74e49"/>
</svg>
