<?xml version="1.0" encoding="UTF-8"?>
<svg width="100pt" height="100pt" version="1.1" viewBox="0 0 100 100" xmlns="http://www.w3.org/2000/svg">
 <path d="m50 18c-17.641 0-32 14.359-32 32s14.359 32 32 32 32-14.359 32-32-14.359-32-32-32zm0 59.359c-15.09 0-27.359-12.27-27.359-27.359s12.27-27.359 27.359-27.359 27.359 12.27 27.359 27.359-12.27 27.359-27.359 27.359z"/>
 <path d="m49.102 61.789c-0.89062 0-1.6602 0.32031-2.2891 0.94922-0.62891 0.62891-0.94922 1.3906-0.94922 2.2891 0 0.89844 0.32031 1.6289 0.94922 2.2617 0.62891 0.62891 1.3906 0.94922 2.2891 0.94922 0.89844 0 1.6484-0.32031 2.2695-0.94922 0.62109-0.62891 0.92969-1.3906 0.92969-2.2617s-0.30859-1.6602-0.92969-2.2891c-0.62109-0.62891-1.3789-0.94922-2.2695-0.94922z"/>
 <path d="m55.512 32.98c-1.5195-0.80859-3.3203-1.2109-5.3984-1.2109-1.8789 0-3.6016 0.37109-5.1484 1.1094-1.5508 0.73828-2.8008 1.8203-3.75 3.2188-0.94922 1.3984-1.4609 3.1094-1.5391 5.1211h4.5508c0.10156-1.3203 0.42969-2.3984 1.0117-3.2305 0.57031-0.82812 1.3008-1.4414 2.1719-1.8281 0.87109-0.39062 1.7812-0.58984 2.7188-0.58984 1.0898 0 2.0703 0.21875 2.9414 0.67188 0.87891 0.44922 1.5781 1.0703 2.0898 1.8789 0.51953 0.80859 0.78125 1.7695 0.78125 2.8789 0 1.3906-0.35938 2.5703-1.0781 3.5586-0.71875 0.98047-1.6016 1.7891-2.6602 2.4297-1.1016 0.64844-2.0508 1.3281-2.8516 2.0195-0.80078 0.69141-1.4102 1.6406-1.8281 2.8281-0.42188 1.1914-0.62891 2.8789-0.62891 5.0586v0.26172h4.3281v-0.26172c0-1.4219 0.14062-2.5508 0.42188-3.3789s0.73047-1.5391 1.3594-2.1211c0.62891-0.57812 1.4609-1.1797 2.4805-1.8086 1.5508-0.94141 2.7383-2.1016 3.5898-3.4688 0.85156-1.3711 1.2695-3.0195 1.2695-4.9609 0-1.8203-0.42188-3.4414-1.2695-4.8594-0.85156-1.4219-2.0312-2.5312-3.5586-3.3398z"/>
</svg>
