<?xml version="1.0" encoding="UTF-8"?>
<svg width="100pt" height="100pt" version="1.1" viewBox="0 0 100 100" xmlns="http://www.w3.org/2000/svg">
 <path d="m33.879 68.449c0 3.6953-2.9961 6.6875-6.6875 6.6875-3.6953 0-6.6914-2.9922-6.6914-6.6875 0-3.6953 2.9961-6.6914 6.6914-6.6914 3.6914 0 6.6875 2.9961 6.6875 6.6914"/>
 <path d="m84.879 30.914c-5.293 0-12.07-4.3984-12.07-9.3633 0-0.95312-0.76953-1.7227-1.7227-1.7227-0.95313 0-1.7227 0.76953-1.7227 1.7227 0 5.0273-4.0781 9.1055-9.1055 9.1055-5.0273 0-9.1016-4.0781-9.1016-9.1055 0-0.95312-0.77344-1.7227-1.7266-1.7227-0.94922 0-1.7227 0.76953-1.7227 1.7227 0.066407 5.0977-4.0078 9.2891-9.1055 9.3633-1.4219 0.011719-2.8398-0.22266-4.1875-0.69141v3.6055c1.3672 0.35156 2.7773 0.52734 4.1875 0.51562 4.4922-0.019531 8.625-2.4492 10.828-6.3594 2.25 4.0234 6.543 6.4688 11.152 6.3555 4.6055-0.11719 8.7695-2.7773 10.816-6.9102 3.207 4.207 8.1406 6.7422 13.43 6.8984 0.95312 0 1.7227-0.77344 1.7227-1.7266 0-0.94922-0.76953-1.7227-1.7227-1.7227z"/>
 <path d="m84.879 54.672c-5.293 0-12.07-4.3984-12.07-9.3633 0-0.94922-0.76953-1.7227-1.7227-1.7227-0.95313 0-1.7227 0.77344-1.7227 1.7227 0 5.0312-4.0781 9.1055-9.1055 9.1055-5.0273 0-9.1016-4.0742-9.1016-9.1055 0-0.94922-0.77344-1.7227-1.7266-1.7227-0.94922 0-1.7227 0.77344-1.7227 1.7227 0.066407 5.0977-4.0078 9.2891-9.1055 9.3633-1.4375-0.007813-2.8516-0.37109-4.1172-1.0508v3.7578c1.3398 0.48828 2.7578 0.74219 4.1875 0.74219 4.4961-0.03125 8.6328-2.4727 10.828-6.3984 2.2461 4.0273 6.5391 6.4727 11.148 6.3594 4.6094-0.11719 8.7734-2.7773 10.816-6.9102 3.207 4.207 8.1445 6.7422 13.434 6.8984 0.94922 0 1.7227-0.77344 1.7227-1.7266 0-0.94922-0.77344-1.7227-1.7227-1.7227z"/>
 <path d="m27.191 83.57c-4.1094 0.007813-8.043-1.6562-10.898-4.6094-2.8516-2.9531-4.3828-6.9414-4.2344-11.047 0.15234-4.1016 1.9648-7.9688 5.0273-10.707v-29.07c0.22266-5.4102 4.6758-9.6836 10.094-9.6836 5.418 0 9.8711 4.2734 10.098 9.6836v29.07c3.0586 2.7383 4.875 6.6055 5.0234 10.707 0.15234 4.1055-1.3789 8.0938-4.2344 11.047-2.8516 2.9531-6.7852 4.6172-10.895 4.6094zm0-62.07c-3.6758 0-6.6562 2.9805-6.6562 6.6562v30.691l-0.63672 0.51562c-3.8711 3.0977-5.3633 8.3008-3.7227 12.977 1.6406 4.6758 6.0586 7.8086 11.016 7.8086 4.9531 0 9.3711-3.1328 11.012-7.8086 1.6406-4.6758 0.14844-9.8789-3.7188-12.977l-0.63672-0.51562-0.003906-30.711c-0.007812-3.668-2.9844-6.6367-6.6523-6.6367z"/>
</svg>
