<?xml version="1.0" encoding="UTF-8"?>
<svg width="100pt" height="100pt" version="1.1" viewBox="0 0 100 100" xmlns="http://www.w3.org/2000/svg">
 <path d="m27.586 61.984v-17.242c0-0.95313-0.77344-1.7266-1.7227-1.7266-0.95312 0-1.7266 0.77344-1.7266 1.7266v17.242c-3.0742 0.55469-5.2344 3.3477-5 6.4648 0.18359 3.5742 3.1367 6.3828 6.7148 6.3828 3.582 0 6.5352-2.8086 6.7188-6.3828 0.23438-3.1133-1.9141-5.9023-4.9844-6.4648z"/>
 <path d="m84.879 54.672c-2.9258-0.13281-5.7422-1.1641-8.0703-2.9492-1.1406-0.82812-2.1172-1.8633-2.8789-3.0508-0.66797-1.0273-1.0352-2.2227-1.0508-3.4492 0-0.94922-0.77344-1.7227-1.7227-1.7227-0.95312 0-1.7266 0.77344-1.7266 1.7227 0.015624 2.4805-0.94531 4.8633-2.6719 6.6406-1.668 1.7695-3.9805 2.7812-6.4141 2.8086-2.4219 0-4.7422-0.98047-6.4297-2.7227-1.7266-1.7773-2.6875-4.1602-2.6719-6.6406 0-0.94922-0.77344-1.7227-1.7266-1.7227-0.94922 0-1.7227 0.77344-1.7227 1.7227 0.015625 2.4805-0.94531 4.8633-2.6719 6.6406-1.6875 1.7422-4.0078 2.7227-6.4297 2.7227-1.4727-0.003906-2.918-0.37891-4.207-1.0859v3.793c4.5664 1.6641 9.6914 0.48047 13.066-3.0156 0.76172-0.79297 1.4141-1.6797 1.9492-2.6406 0.53125 0.94141 1.1797 1.8125 1.9297 2.5859 2.332 2.4062 5.5391 3.7656 8.8906 3.7656 3.3477 0 6.5547-1.3594 8.8867-3.7656 0.91016-0.93359 1.6719-2.0039 2.2578-3.1719 1.4805 2.0195 3.4023 3.668 5.6211 4.8281 2.3906 1.3125 5.0664 2.0273 7.793 2.0859 0.95312 0 1.7227-0.76953 1.7227-1.7227s-0.76953-1.7266-1.7227-1.7266z"/>
 <path d="m84.879 30.914c-2.9219-0.12109-5.7383-1.1289-8.0703-2.8984-1.1406-0.82812-2.1172-1.8633-2.8789-3.0508-0.66797-1.0273-1.0352-2.2227-1.0508-3.4492 0-0.94922-0.77344-1.7227-1.7227-1.7227-0.95312 0-1.7266 0.77344-1.7266 1.7227 0.015624 2.4805-0.94531 4.8633-2.6719 6.6406-1.6836 1.7422-4 2.7227-6.4219 2.7227-2.4219 0-4.7383-0.98047-6.4219-2.7227-1.7266-1.7773-2.6875-4.1602-2.6719-6.6406 0-0.94922-0.77344-1.7227-1.7266-1.7227-0.94922 0-1.7227 0.77344-1.7227 1.7227 0.015625 2.4805-0.94531 4.8633-2.6719 6.6406-1.6875 1.7422-4.0078 2.7227-6.4297 2.7227-1.4336 0.023438-2.8594-0.21094-4.207-0.6875v3.6016c1.3633 0.36328 2.7734 0.55078 4.1875 0.55078 3.3516 0.003906 6.5625-1.3516 8.8984-3.7578 0.75-0.77734 1.3984-1.6445 1.9297-2.5859 0.53125 0.94141 1.1797 1.8086 1.9297 2.5859 2.332 2.4062 5.5391 3.7617 8.8906 3.7617 3.3477 0 6.5547-1.3555 8.8867-3.7617 0.91016-0.9375 1.6719-2.0039 2.2578-3.1719 1.4805 2.0156 3.4023 3.668 5.6211 4.8281 2.3945 1.3086 5.0664 2.0273 7.793 2.0859 0.95312 0 1.7227-0.77344 1.7227-1.7266 0-0.94922-0.76953-1.7227-1.7227-1.7227z"/>
 <path d="m25.863 83.57c-4.1094 0.007813-8.043-1.6562-10.898-4.6094-2.8516-2.9531-4.3828-6.9414-4.2305-11.047 0.14844-4.1016 1.9609-7.9688 5.0234-10.707v-29.07c-0.11328-2.75 0.89844-5.4258 2.8047-7.4102 1.9062-1.9883 4.5391-3.1094 7.2891-3.1094 2.7539 0 5.3867 1.1211 7.293 3.1094 1.9062 1.9844 2.918 4.6602 2.8047 7.4102v29.07c3.0586 2.7383 4.875 6.6016 5.0234 10.703 0.15234 4.1016-1.375 8.0898-4.2227 11.043-2.8516 2.9531-6.7812 4.6211-10.887 4.6172zm0-62.07c-3.6758 0-6.6562 2.9805-6.6562 6.6562v30.691l-0.63672 0.51562c-3.8711 3.0977-5.3633 8.3008-3.7227 12.977 1.6406 4.6758 6.0586 7.8086 11.016 7.8086s9.3711-3.1328 11.012-7.8086c1.6406-4.6758 0.14844-9.8789-3.7188-12.977l-0.63672-0.51562-0.003906-30.711c-0.007813-3.668-2.9844-6.6367-6.6523-6.6367z"/>
</svg>
