<?xml version="1.0" encoding="UTF-8"?>
<svg width="100pt" height="100pt" version="1.1" viewBox="0 0 100 100" xmlns="http://www.w3.org/2000/svg">
 <path d="m53 31.754s-0.49219-6.7266 2.5195-6.7383 5.2188 4.25 5.2188 4.25l-2.1406 0.34375 0.40234 3.6445h6l4.5-3 1.5 1.5039-4.7773 6.1914-5.3984 2.4219 1.1797 8.3828h-16.5c-0.003906 0 3.75-14.324 7.4961-17z"/>
 <path d="m74.117 58.754-6.1172-3 3-1.5s0.28125-7.4062 7.5-7.5c0 0 3 6.5625-4.4258 9z"/>
 <path d="m69.5 27.254 3 3 3-3s4.5 5.0625 1.5 18h1.5s5.25-12.5-1.5-21l1.5-1.5-1.5-1.5z"/>
 <path d="m66.5 28.863-4.5 2.8906h3l2.9141-1.5z"/>
 <path d="m24.5 44.27 4.082 4.4844h-6.7539z"/>
 <path d="m33.5 34.754 4.8828 1.5h8.6172l-0.17188-1.5-7.3281-3-4.5117-7.5 0.011719-1.4688 1.5-0.03125s0.89844-4.3438-3-4.5234c-3.8984-0.17578-4.5 4.7266-4.5 4.7266s-7.5 2.6641-7.5 16.293l10.5 9.5h3z"/>
 <path d="m38.383 38.57-3.168 1.6172 1.0586 2.6094 5.2773-4.2266z"/>
 <path d="m29 55.754 3-1.5 2-3.2539h-17s-0.43359 6.8125 5.4414 8.7227c0.86328-0.34375 3.0156-1.3438 5.2305-1.9805z"/>
 <path d="m66.5 51h-22.5l-3.2305 4.4844-0.92188 4.1797c0.3125 0.0625 0.625 0.10938 0.94141 0.13672 3.2891 0.27734 6.0156-2.332 9.3359-2.332 3.8984 0 7.1797 2.082 9.8789 2.082l-0.019531 0.019531c0.97656-0.33203 1.7656-0.71875 2.2148-1.1836 2.6133-2.707 3.2422-3.832 4.3008-7.3867z"/>
 <path d="m37.156 58.816c0.22266 0.085938 0.45312 0.17188 0.67969 0.25391l0.16406-0.28906v-3.0273l7.9531-16.277h-1.9297l-9.0234 14.777-4.4023 2.9453c0.1875-0.007813 0.375-0.015625 0.55078-0.011719 2.082 0.058594 4.0938 0.88672 6.0078 1.6289z"/>
 <path d="m77.434 64.637s-1.4727 2.9062-4.832 2.9805c-3.3594 0.074218-5.5469-2.1133-5.5469-2.1133-2.3281 1.5352-7.0352 2.1602-9.5547 0.75l1.5-3c0.75391 0.44922 2.5273 0.79688 3.75 0.55078 2.832-0.56641 3.75-3.6367 3.75-3.6367s1.6797 3.4609 5.8438 3.332c4.1602-0.12891 4.6562-3.3906 4.6562-3.3906s2.1562 3.1484 6 3.1484v3.0938c0-0.003906-2.3203 1.2578-5.5664-1.7148z"/>
 <path d="m38 79.75s-3.1797 3.1172-7.5 3c-3.4688-0.09375-4.2461-2.4961-4.2461-2.4961l-4.7539 2.4961v-7.5s4.5625 2.5469 4.5664 2.5508c0.11328 0.046875 1.918-1.1758 2.1406-1.2734 4.1211-1.7695 7.7578-0.38672 9.793 3.2227z"/>
 <path d="m46.426 69.238s-3.0352-3.8828-7.1406-4.082c-4.1016-0.19922-5.0195 2.8672-5.0195 2.8672l-4.7773-1.9922v6.5977l4.1562-2.3203s1.6953 2.4336 5.543 2.3203c4.8359-0.14453 7.2383-3.3906 7.2383-3.3906z"/>
 <path d="m61.5 75.262s-2.293-2.8008-5.5-3c-3.2109-0.20312-4.9062 2.8516-4.9062 2.8516l-4.0938-1.3516v6l3.582-2.8633s1.2969 2.8633 4.3125 2.8633c4.4805 0 6.6055-4.5 6.6055-4.5z"/>
</svg>
