<?xml version="1.0" encoding="UTF-8"?>
<svg width="100pt" height="100pt" version="1.1" viewBox="0 0 100 100" xmlns="http://www.w3.org/2000/svg">
 <path d="m32.449 21.148 2.1562-4.375-5.7344 2.7227c-1.2461-1.332-3.9492-2.2539-7.0859-2.2539-4.3203 0-7.8203 2.1836-7.8203 3.9102 0 1.625 3.5 3.9102 7.8203 3.9102 3.1367 0 5.8398-0.92188 7.0859-2.2578l5.7344 2.7227z"/>
 <path d="m57.992 21.148 2.1562-4.375-5.7344 2.7227c-1.2461-1.332-3.9492-2.2539-7.0859-2.2539-4.3203 0-7.8203 2.1836-7.8203 3.9102 0 1.625 3.5 3.9102 7.8203 3.9102 3.1367 0 5.8398-0.92188 7.0859-2.2578l5.7344 2.7227z"/>
 <path d="m83.539 21.148 2.1602-4.375-5.7344 2.7227c-1.2461-1.332-3.9492-2.2539-7.0859-2.2539-4.3203 0-7.8203 2.1836-7.8203 3.9102 0 1.625 3.5039 3.9102 7.8203 3.9102 3.1367 0 5.8398-0.92188 7.0859-2.2578l5.7344 2.7227z"/>
 <path d="m32.449 49.055 2.1562-4.375-5.7344 2.7227c-1.2461-1.332-3.9492-2.2578-7.0859-2.2578-4.3203 0-7.8203 2.1836-7.8203 3.9102 0 1.625 3.5 3.9102 7.8203 3.9102 3.1367 0 5.8398-0.92188 7.0859-2.2578l5.7344 2.7227z"/>
 <path d="m57.992 49.055 2.1562-4.375-5.7344 2.7227c-1.2461-1.332-3.9492-2.2578-7.0859-2.2578-4.3203 0-7.8203 2.1836-7.8203 3.9102 0 1.625 3.5 3.9102 7.8203 3.9102 3.1367 0 5.8398-0.92188 7.0859-2.2578l5.7344 2.7227z"/>
 <path d="m83.539 49.055 2.1602-4.375-5.7344 2.7227c-1.2461-1.332-3.9492-2.2578-7.0859-2.2578-4.3203 0-7.8203 2.1836-7.8203 3.9102 0 1.625 3.5039 3.9102 7.8203 3.9102 3.1367 0 5.8398-0.92188 7.0859-2.2578l5.7344 2.7227z"/>
 <path d="m57.992 77.066 2.1562-4.375-5.7344 2.7227c-1.2461-1.332-3.9492-2.2578-7.0859-2.2578-4.3203 0-7.8203 2.1836-7.8203 3.9102 0 1.6211 3.5 3.9102 7.8203 3.9102 3.1367 0 5.8398-0.92578 7.0859-2.2578l5.7344 2.7227z"/>
 <path d="m42.852 35.031 2.1562-4.375-5.7344 2.7227c-1.2461-1.332-3.9492-2.2578-7.0859-2.2578-4.3203 0-7.8203 2.1875-7.8203 3.9102 0 1.625 3.5 3.9102 7.8203 3.9102 3.1367 0 5.8398-0.92188 7.0859-2.2539l5.7344 2.7227z"/>
 <path d="m68.398 35.031 2.1562-4.375-5.7344 2.7227c-1.2461-1.332-3.9492-2.2578-7.0859-2.2578-4.3203 0-7.8203 2.1875-7.8203 3.9102 0 1.625 3.5039 3.9102 7.8203 3.9102 3.1367 0 5.8398-0.92188 7.0859-2.2539l5.7344 2.7227z"/>
 <path d="m42.77 63.113 2.1562-4.375-5.7344 2.7227c-1.2461-1.332-3.9492-2.2578-7.0859-2.2578-4.3203 0-7.8203 2.1875-7.8203 3.9102 0 1.625 3.5 3.9062 7.8203 3.9062 3.1367 0 5.8398-0.92188 7.0859-2.2578l5.7344 2.7227z"/>
 <path d="m68.316 63.113 2.1562-4.375-5.7344 2.7227c-1.2461-1.332-3.9492-2.2578-7.0859-2.2578-4.3164 0-7.8203 2.1875-7.8203 3.9102 0 1.625 3.5039 3.9062 7.8203 3.9062 3.1367 0 5.8398-0.92188 7.0859-2.2578l5.7344 2.7227z"/>
 <path d="m39.648 93.828-7.2422-2.8242 1.5156-3.875 7.2383 2.8281z"/>
 <path d="m28.773 89.586-7.2422-2.8242 1.5117-3.875 7.2422 2.8242z"/>
 <path d="m17.898 85.344-7.2422-2.8281 1.5117-3.875 7.2422 2.8281z"/>
 <path d="m7.0234 81.098-2.1133-0.79688c-2.8516-0.92188-4.2852-2.5586-4.2852-5.1836v-2.75h4.1602v2.75c0 0.50781 0.30469 0.89062 0.57812 0.89062l0.39062 0.15625 2.7852 1.0586z"/>
 <path d="m4.7812 68.473h-4.1602v-7.7734h4.1602z"/>
 <path d="m4.7812 56.801h-4.1602v-7.7773h4.1602z"/>
 <path d="m4.7812 45.125h-4.1602v-7.7773h4.1602z"/>
 <path d="m4.7812 33.449h-4.1602v-7.7734h4.1602z"/>
 <path d="m4.7812 21.773h-4.1602v-7.7734h4.1602z"/>
 <path d="m4.7812 10.102h-4.1602v-7.7773h4.1602z"/>
 <path d="m56.395 95.246-1.5117-3.8711-5.043 1.9688-5.043-1.9688-1.5156 3.8711 6.5156 2.5781 0.042969-0.015625 0.042968 0.015625z"/>
 <path d="m60.027 93.828 7.2422-2.8242-1.5078-3.875-7.2461 2.8281z"/>
 <path d="m70.902 89.586 7.2422-2.8242-1.5078-3.875-7.2422 2.8242z"/>
 <path d="m81.781 85.344 7.2422-2.8281-1.5117-3.875-7.2422 2.8281z"/>
 <path d="m92.656 81.098 2.1133-0.79688c2.7344-0.98828 4.2852-2.5586 4.2852-5.1836v-2.75h-4.1602v2.75c0 0.50781-0.30469 0.89062-0.57422 0.89062l-0.39062 0.15625-2.7852 1.0586z"/>
 <path d="m94.895 68.473h4.1602v-7.7734h-4.1602z"/>
 <path d="m94.895 56.801h4.1602v-7.7773h-4.1602z"/>
 <path d="m94.895 45.125h4.1602v-7.7773h-4.1602z"/>
 <path d="m94.895 33.449h4.1602v-7.7734h-4.1602z"/>
 <path d="m94.895 21.773h4.1602v-7.7734h-4.1602z"/>
 <path d="m94.895 10.102h4.1602v-7.7773h-4.1602z"/>
</svg>
