<?xml version="1.0" encoding="UTF-8"?>
<svg width="100pt" height="100pt" version="1.1" viewBox="0 0 100 100" xmlns="http://www.w3.org/2000/svg">
 <path d="m45.312 85.156c-21.969 0-39.844-17.875-39.844-39.844s17.875-39.844 39.844-39.844c18.688 0 34.648 12.699 38.816 30.883 0.28906 1.2617-0.5 2.5195-1.7617 2.8086-1.2656 0.28906-2.5195-0.5-2.8086-1.7617-3.6758-16.039-17.758-27.242-34.246-27.242-19.387 0-35.156 15.77-35.156 35.156s15.77 35.156 35.156 35.156c3.2969 0 6.5586-0.45703 9.6914-1.3555 1.2422-0.35938 2.543 0.36328 2.8984 1.6055 0.35547 1.2422-0.36328 2.543-1.6055 2.8984-3.5547 1.0195-7.25 1.5352-10.984 1.5352z"/>
 <path d="m56.863 41.461c-0.4375 0-0.86719-0.050782-1.2852-0.16406-2.0977-0.5625-3.6406-2.1328-5-3.5156-1.0195-1.0352-1.9805-2.0117-2.9492-2.3945-0.63672-0.23438-3.1719-0.21875-5.0273-0.20703-6.0547 0.042968-12.918 0.082031-15.02-4.1172-2.1523-4.3047-7.5078-13.945-7.5586-14.043-0.62891-1.1328-0.22266-2.5586 0.91016-3.1875 1.1289-0.62891 2.5586-0.22266 3.1875 0.91016 0.22266 0.39844 5.457 9.8281 7.6562 14.223 0.79688 1.5898 7.8125 1.5469 10.793 1.5273 3.4102-0.027344 5.4062-0.007813 6.7773 0.53125 1.8906 0.74609 3.3164 2.1914 4.5703 3.4688 1.0352 1.0508 2.0117 2.043 2.8789 2.2773 1.2227 0.28125 5.4688-2.9297 6.6094-6.2969 0.46094-1.3633-0.41797-2.8477-1.8086-4.9492-0.87109-1.3164-1.6953-2.5586-1.9805-3.9375-0.75-3.5977 3.332-8.0234 4.6016-9.293 0.91406-0.91797 2.3984-0.91406 3.3125 0 0.91406 0.91406 0.91797 2.3984 0.003906 3.3125-1.7812 1.7852-3.3984 4.2383-3.3281 5.043 0.10156 0.47656 0.73438 1.4375 1.2969 2.2852 1.5078 2.2773 3.5742 5.3984 2.3398 9.043-1.4062 4.1523-6.5898 9.4844-10.98 9.4844z"/>
 <path d="m41.164 84.93c-0.28906 0-0.58594-0.054688-0.87109-0.16797-1.2031-0.48047-1.7852-1.8438-1.3047-3.0469 0.69141-1.7305 1.2461-3.832 1.2188-4.582-0.39844-0.55859-1.7812-1.8594-2.6289-2.6562-1.6523-1.5547-2.6914-2.5547-3.1914-3.4648-0.69922-1.2734-0.40234-2.6953-0.089844-4.1992 0.3125-1.5078 0.66797-3.2148-0.015625-4.332-1.7109-2.7891-7.5859-7.293-10.977-7.207-2.8164 0.089843-8.6797 3.3555-11.715 5.3945-1.0781 0.71875-2.5312 0.43359-3.2539-0.63672-0.72266-1.0742-0.4375-2.5312 0.63672-3.2539 0.91797-0.61719 9.1055-6.0234 14.176-6.1875 6.0039-0.20703 13.102 6.1406 15.125 9.4453 1.6562 2.7031 1.0273 5.7305 0.60937 7.7344-0.082031 0.39062-0.18359 0.88672-0.22266 1.2031 0.42578 0.49219 1.4297 1.4375 2.1289 2.0938 1.9453 1.8281 3.1641 3.0156 3.7031 4.125 0.98047 2.0195-0.085938 5.6133-1.1523 8.2734-0.36719 0.91406-1.2461 1.4727-2.1758 1.4727z"/>
 <path d="m53.152 68.938c-0.11719 0-0.23047-0.003906-0.34375-0.011719-1.5352-0.10156-2.7773-0.88281-3.4062-2.1406-0.47656-0.94922-1.3828-2.3203-2.2617-3.6445-1.0273-1.5469-1.9961-3.0117-2.5078-4.1328-0.96094-2.1133 0.63672-4.3633 5.3516-7.5156 8.9492-5.9844 10.984-3.8125 11.648-3.0977 2.4336 2.6094 2.4609 12.137 0.046876 15.688-1.8086 2.6562-5.707 4.8477-8.5352 4.8516zm-3.793-11.023c0.44531 0.75781 1.0781 1.7109 1.6953 2.6406 0.83984 1.2695 1.707 2.5781 2.3164 3.6953 1.0273-0.10156 3.4062-1.2734 4.4453-2.7969 1.1328-1.6641 1.1797-6.9531 0.625-9.168-2.3477 0.76172-7.457 3.9219-9.0781 5.6328zm-0.45312-0.84375v0.003907z"/>
 <path d="m78.125 94.531c-9.0469 0-16.406-7.3594-16.406-16.406 0-5.0156 2.3164-9.7266 6.25-12.832v-21.543c0-5.6016 4.5547-10.156 10.156-10.156s10.156 4.5547 10.156 10.156v21.543c3.9336 3.1055 6.25 7.8164 6.25 12.832 0 9.0469-7.3594 16.406-16.406 16.406zm0-56.25c-3.0156 0-5.4688 2.4531-5.4688 5.4688v22.73c0 0.78125-0.38672 1.5117-1.0352 1.9453-3.2656 2.1953-5.2148 5.8203-5.2148 9.6992 0 6.4609 5.2578 11.719 11.719 11.719s11.719-5.2578 11.719-11.719c0-3.8789-1.9492-7.5039-5.2148-9.6992-0.64844-0.4375-1.0352-1.1641-1.0352-1.9453v-22.73c0-3.0156-2.4531-5.4688-5.4688-5.4688z"/>
 <path d="m78.125 77.344c-1.293 0-2.3438-1.0508-2.3438-2.3438v-31.25c0-1.293 1.0508-2.3438 2.3438-2.3438s2.3438 1.0508 2.3438 2.3438v31.25c0 1.293-1.0508 2.3438-2.3438 2.3438z"/>
 <path d="m84.375 78.125c0 3.4531-2.7969 6.25-6.25 6.25s-6.25-2.7969-6.25-6.25 2.7969-6.25 6.25-6.25 6.25 2.7969 6.25 6.25"/>
</svg>
