<?xml version="1.0" encoding="UTF-8"?>
<svg width="128pt" height="128pt" version="1.1" viewBox="0 0 128 128" xmlns="http://www.w3.org/2000/svg">
 <path d="m67.859 83.73c9.2812-2.2383 17.391-7.5391 23.191-14.758 4.1562 5.1758 9.4961 9.3555 15.613 12.125-2.4102-5.3203-3.75-11.211-3.75-17.43 0-6.2148 1.3516-12.109 3.75-17.426-6.1211 2.7695-11.461 6.9492-15.613 12.113-2.5352-3.1484-5.5117-5.9414-8.8086-8.2461 0.75391-2.4805 1.7148-4.8516 2.8555-7.0898-4.6836-2.4336-12.859-6.2344-18.18-7.3281-3.2383 1.8516-6.2383 4.1445-8.9102 6.8008-15.668 0-29.34 8.5352-36.668 21.168 7.3281 12.648 21 21.184 36.668 21.184 3.9414 3.9297 9.0352 6.5664 14.566 7.4688-2.0391-2.4766-3.6562-5.3594-4.7109-8.5859" fill-rule="evenodd"/>
</svg>
