<?xml version="1.0" encoding="UTF-8"?>
<svg width="100pt" height="100pt" version="1.1" viewBox="0 0 100 100" xmlns="http://www.w3.org/2000/svg">
 <path d="m25.863 83.57c-4.1094 0.007813-8.043-1.6562-10.898-4.6094-2.8516-2.9531-4.3828-6.9414-4.2305-11.047 0.14844-4.1016 1.9609-7.9688 5.0234-10.707v-29.07c-0.11328-2.75 0.89844-5.4258 2.8047-7.4102 1.9062-1.9883 4.5391-3.1094 7.2891-3.1094 2.7539 0 5.3867 1.1211 7.293 3.1094 1.9062 1.9844 2.918 4.6602 2.8047 7.4102v29.07c3.0586 2.7383 4.875 6.6016 5.0234 10.703 0.15234 4.1016-1.375 8.0898-4.2227 11.043-2.8516 2.9531-6.7812 4.6211-10.887 4.6172zm0-62.07c-3.6758 0-6.6562 2.9805-6.6562 6.6562v30.691l-0.63672 0.51562c-3.8711 3.0977-5.3633 8.3008-3.7227 12.977 1.6406 4.6758 6.0586 7.8086 11.016 7.8086s9.3711-3.1328 11.012-7.8086c1.6406-4.6758 0.14844-9.8789-3.7188-12.977l-0.63672-0.51562-0.003906-30.711c-0.007813-3.668-2.9844-6.6367-6.6523-6.6367z"/>
 <path d="m27.586 61.984v-33.848c0-0.94922-0.77344-1.7227-1.7227-1.7227-0.95312 0-1.7266 0.77344-1.7266 1.7227v33.848c-3.0742 0.55469-5.2344 3.3477-5 6.4648 0.18359 3.5742 3.1367 6.3828 6.7148 6.3828 3.582 0 6.5352-2.8086 6.7188-6.3828 0.23438-3.1133-1.9141-5.9023-4.9844-6.4648z"/>
 <path d="m84.879 54.672c-5.293 0-12.07-4.3984-12.07-9.3633 0-0.94922-0.76953-1.7227-1.7227-1.7227-0.95313 0-1.7227 0.77344-1.7227 1.7227 0 5.0312-4.0781 9.1055-9.1055 9.1055-5.0273 0-9.1016-4.0742-9.1016-9.1055 0-0.94922-0.77344-1.7227-1.7266-1.7227-0.94922 0-1.7227 0.77344-1.7227 1.7227 0.058594 2.4375-0.85547 4.7969-2.543 6.5547-1.6836 1.7578-4.0039 2.7695-6.4414 2.8086-1.4883-0.074219-2.9414-0.49219-4.2383-1.2227v3.793c1.3789 0.52344 2.8359 0.80859 4.3086 0.84375 4.4727-0.023438 8.582-2.457 10.758-6.3633 2.2422 4.0195 6.5273 6.4648 11.125 6.3477 4.5977-0.11719 8.7539-2.7734 10.789-6.8984 3.2031 4.207 8.1328 6.7383 13.414 6.8984 0.95312 0 1.7227-0.77344 1.7227-1.7266 0-0.94922-0.76953-1.7227-1.7227-1.7227z"/>
 <path d="m84.879 30.914c-5.293 0-12.07-4.3984-12.07-9.3633 0-0.95312-0.76953-1.7227-1.7227-1.7227-0.95313 0-1.7227 0.76953-1.7227 1.7227 0 5.0273-4.0781 9.1055-9.1055 9.1055-5.0273 0-9.1016-4.0781-9.1016-9.1055 0-0.95312-0.77344-1.7227-1.7266-1.7227-0.94922 0-1.7227 0.76953-1.7227 1.7227 0.058594 2.4375-0.85547 4.7969-2.543 6.5547-1.6836 1.7578-4.0039 2.7695-6.4414 2.8086-1.4688-0.015624-2.9258-0.27734-4.3086-0.77734v3.6406c1.4062 0.37891 2.8555 0.58203 4.3086 0.60156 4.4727-0.023437 8.582-2.457 10.762-6.3633 2.2383 4.0195 6.5234 6.4648 11.121 6.3477 4.6016-0.11719 8.7539-2.7734 10.793-6.8984 3.1992 4.207 8.1289 6.7383 13.41 6.8984 0.95312 0 1.7266-0.77344 1.7266-1.7266 0-0.94922-0.77344-1.7227-1.7266-1.7227z"/>
</svg>
