<?xml version="1.0" encoding="UTF-8"?>
<svg width="100pt" height="100pt" version="1.1" viewBox="0 0 100 100" xmlns="http://www.w3.org/2000/svg">
 <path d="m0 21.109v62h28l-19.602-62z" fill="#4d6c6e"/>
 <path d="m72 83.109h28v-62h-8.3984z" fill="#4d6c6e"/>
 <path d="m50 82.465c4.1602 0 6.9336-3 11.094-3 2.0703 0 4.293 0.96094 6.0195 1.7031l2.3906-8.1133c-2.8242-0.81641-5.207-2.5898-8.4062-2.5898-4.1602 0-6.9336 3-11.094 3h-0.003906c-4.1602 0-6.9336-3-11.094-3-3.1992 0-5.5859 1.7695-8.4062 2.5898l2.3906 8.1133c1.7227-0.74219 3.9492-1.7031 6.0156-1.7031 4.1602 0 6.9336 3 11.094 3z" fill="#4d6c6e"/>
 <path d="m50 38.328c4.1289 0 6.8828-3 11.012-3 4.1328 0 6.8828 3 11.016 3 3.4102 0 5.8906-2.0234 8.9727-2.7344l-3.0898 10.43c-1.0156 0.34766-4.707 1.3086-5.8867 1.3086-4.1289 0-6.8828-3-11.012-3-4.1289 0-6.8828 3-11.012 3s-6.8828-3-11.012-3c-4.1289 0-6.8828 3-11.016 3-1.1758 0-4.8672-0.96094-5.8828-1.3086l-3.0898-10.43c3.082 0.71484 5.5625 2.7344 8.9727 2.7344 4.1289 0 6.8828-3 11.016-3 4.1289 0 6.8828 3 11.012 3z" fill="#4d6c6e"/>
 <path d="m50 55.898c4.1602 0 6.9297-3 11.09-3s6.9336 3 11.09 3c1.0078 0 1.9336-0.17578 2.8203-0.4375l-2.8203 9.4375c-4.1562 0-6.9297-3-11.09-3-4.1562 0-6.9297 3-11.09 3-4.1562 0-6.9297-3-11.09-3s-6.9297 3-11.09 3l-2.8203-9.4375c0.88672 0.26562 1.8125 0.4375 2.8203 0.4375 4.1602 0 6.9297-3 11.09-3s6.9297 3 11.09 3z" fill="#4d6c6e"/>
</svg>
