<?xml version="1.0" encoding="UTF-8"?>
<svg width="1200pt" height="1200pt" version="1.1" viewBox="0 0 1200 1200" xmlns="http://www.w3.org/2000/svg">
 <path d="m637.5 243.75v-75h-75v75c0 10.352 8.3984 18.75 18.75 18.75h37.5c10.352 0 18.75-8.3984 18.75-18.75z" fill="#79552a"/>
 <path d="m975 243.75v-75h-75v75c0 10.352 8.3984 18.75 18.75 18.75h37.5c10.352 0 18.75-8.3984 18.75-18.75z" fill="#79552a"/>
 <path d="m300 243.75v-75h-75v75c0 10.352 8.3984 18.75 18.75 18.75h37.5c10.352 0 18.75-8.3984 18.75-18.75z" fill="#79552a"/>
 <path d="m637.5 937.5c150 0 150-150 150-150-95.23 0-145.01 37.801-168.75 79.781v-154.78c62.137 0 112.5-50.363 112.5-112.5h-37.5c-54.863 0-100.5 39.301-110.44 91.258-19.781-32.215-55.238-53.758-95.812-53.758h-37.5c0 62.137 50.363 112.5 112.5 112.5h18.75v154.78c-23.738-41.98-73.52-79.781-168.75-79.781 0 0 0 150 150 150h18.75v93.75h-75v37.5h187.5v-37.5h-75v-131.25z" fill="#79552a"/>
 <path d="m262.5 937.5c150 0 150-150 150-150-95.23 0-145.01 37.801-168.75 79.781v-154.78c62.137 0 112.5-50.363 112.5-112.5h-37.5c-54.863 0-100.5 39.301-110.44 91.258-19.781-32.215-55.238-53.758-95.812-53.758h-37.5c0 62.137 50.363 112.5 112.5 112.5h18.75v154.78c-23.738-41.98-73.52-79.781-168.75-79.781 0 0 0 150 150 150h18.75v93.75h-75v37.5h187.5v-37.5h-75v-131.25z" fill="#79552a"/>
 <path d="m1012.5 937.5c150 0 150-150 150-150-95.23 0-145.01 37.801-168.75 79.781v-154.78c62.137 0 112.5-50.363 112.5-112.5h-37.5c-54.863 0-100.5 39.301-110.44 91.258-19.781-32.215-55.238-53.758-95.812-53.758h-37.5c0 62.137 50.363 112.5 112.5 112.5h18.75v154.78c-23.738-41.98-73.52-79.781-168.75-79.781 0 0 0 150 150 150h18.75v93.75h-75v37.5h187.5v-37.5h-75v-131.25z" fill="#79552a"/>
 <path d="m56.25 56.25h1087.5v75h-1087.5z" fill="#79552a"/>
 <path d="m510.36 288.28-79.105 98.906-79.105-98.906-29.289 23.438 84.395 105.47-46.895 58.594 29.289 23.438 41.605-52.031 41.605 52.031 29.289-23.438-46.895-58.594 84.395-105.47z" fill="#79552a"/>
 <path d="m581.25 318.75h37.5v112.5h-37.5z" fill="#79552a"/>
 <path d="m847.86 288.28-79.105 98.906-79.105-98.906-29.289 23.438 84.395 105.47-46.895 58.594 29.289 23.438 41.605-52.031 41.605 52.031 29.289-23.438-46.895-58.594 84.395-105.47z" fill="#79552a"/>
 <path d="m997.84 311.74 29.285-23.422 149.97 187.5-29.285 23.422z" fill="#79552a"/>
 <path d="m918.75 318.75h37.5v112.5h-37.5z" fill="#79552a"/>
 <path d="m22.859 475.78 149.97-187.5 29.285 23.422-149.97 187.5z" fill="#79552a"/>
 <path d="m243.75 318.75h37.5v112.5h-37.5z" fill="#79552a"/>
 <path d="m18.75 1143.8h1162.5v37.5h-1162.5z" fill="#79552a"/>
</svg>
