<?xml version="1.0" encoding="UTF-8"?>
<svg width="1200pt" height="1200pt" version="1.1" viewBox="0 0 1200 1200" xmlns="http://www.w3.org/2000/svg">
 <path d="m1140 908.18c-25.402-8.832-45.359-13.297-59.891-13.297s-34.512 4.4648-59.93 13.297c-25.402 8.9023-45.348 13.367-59.867 13.367-12.035 0-28.129-3.2266-47.867-9.3242-4.0781-1.2734-8.0898-2.5195-12.492-4.043-20.102-6.9961-36.625-11.125-49.883-12.59-3.4219-0.42188-6.707-0.71875-9.6016-0.71875-0.070313 0-0.14453 0.035156-0.23828 0.035156-0.046874 0-0.14453-0.035156-0.19141-0.035156-12.266 0-28.68 3.3594-48.73 9.707-3.7305 1.1523-7.3555 2.207-11.363 3.6016-25.656 8.8203-45.637 13.246-60.109 13.32-6.2656-0.046875-13.754-0.99609-22.078-2.6641-10.703-2.207-23.113-5.6523-37.645-10.668-12.707-4.3438-23.566-7.2617-33.469-9.4453-2.9766-19.512-7.4648-43.512-14.113-71.93 12.84 1.7539 28.645 5.7969 47.578 12.266 25.801 8.8906 45.551 13.344 59.281 13.344 14.531 0 34.691-4.4531 60.539-13.344 25.801-8.8203 45.984-13.273 60.516-13.273 13.68 0 33.434 4.4531 59.305 13.273 25.789 8.8906 45.984 13.344 60.539 13.344h12.109c0.78125 0 1.9688 0.035156 3.6016 0 6.2266-0.20312 12.613-1.8008 18.156-3.6836 20.23-6.8164 67.992-38.004 103.54-82.02 67.094-83.051 95.832-169.34 95.832-169.34l-284.39 44.102v-143.17h-154.87v-239.66h-54.562v394.85l-335.14-492.24-42.07 28.645 101.27 148.75h-128.17v50.914h53.074l-0.15625 0.9375c-0.27734 1.6094-27.504 162.68-78.098 279.45-45.828 105.74-111.67 181.96-156.01 225.32-14.016 0.88672-32.219 5.0742-55.066 12.91-25.812 8.9023-45.613 13.367-59.293 13.367v88.332c13.691 0 33.48-4.4141 59.293-13.332 25.801-8.8672 46.008-13.285 60.527-13.285 14.531 0 34.477 4.4141 59.914 13.285 25.43 8.9141 45.371 13.332 59.902 13.332 0.13281 0 0.27734-0.046875 0.43359-0.046875v0.046875c2.7969 0 6.0586-0.30078 9.3945-0.68359 13.309-1.4531 29.914-5.5664 50.102-12.66 5.3867-1.8594 10.379-3.4453 15.254-4.9336 18.371-5.4727 33.422-8.3164 44.844-8.3516 12.059 0.035156 28.164 3.2539 47.93 9.3477 3.9961 1.2461 7.9062 2.4375 12.215 3.9375 19.957 6.9961 36.395 11.113 49.633 12.625 3.5039 0.40625 6.875 0.71875 9.8281 0.71875h0.22656 0.19141c12.254 0 28.609-3.3359 48.574-9.6719 3.793-1.1641 7.4883-2.2695 11.566-3.6719 25.57-8.7969 45.613-13.223 60.109-13.285 6.0117 0.035156 13.199 0.96094 21.168 2.4961 10.871 2.1836 23.566 5.6641 38.52 10.789 14.531 5.0156 27.109 8.4727 38.074 10.645 8.2812 1.6797 15.672 2.6992 21.648 2.6992 0.12109 0 0.27734 0 0.43359-0.046875 0.097657 0.046875 0.26563 0.046875 0.39453 0.046875 14.531 0 34.453-4.4141 59.867-13.332 3.9375-1.3789 7.5234-2.4727 11.207-3.6367 20.23-6.2773 36.684-9.625 48.91-9.6602 3.0352 0 6.3477 0.30078 9.8281 0.67188 12.805 1.5 29.27 5.6172 49.715 12.625 4.4766 1.5352 8.5312 2.7734 12.672 4.043 19.453 6.0703 35.41 9.2891 47.426 9.2891v-0.046875c0.14453 0 0.28906 0.046875 0.44531 0.046875 14.52 0 34.465-4.4141 59.867-13.332 25.414-8.8672 45.395-13.285 59.93-13.285 14.531 0 34.488 4.4141 59.891 13.285 25.414 8.9141 45.422 13.332 59.941 13.332v-88.332c-14.5 0.019531-34.504-4.4414-59.918-13.348zm-369.86-343.55h78.301v78.266h-78.301zm-387.59-95.652c17.207 40.188 37.859 94.273 53.426 153.73-15.516-0.9375-32.605-1.0195-50.953-0.035156 1.5938-55.559-0.16797-110.94-2.4727-153.7zm1.332 182.53c21.91-1.2969 41.688-0.83984 59.281 0.67188 4.3438 19.391 8.0273 39.168 10.754 58.992 0.53906 3.9492 0.89844 7.6445 1.3789 11.484-20.723-5.9141-44.449-10.199-76.5-10.598 2.3281-19.488 3.9961-39.812 5.0859-60.551zm-28.801-152.27c1.5586 38.41 2.3867 83.352 0.99609 127.74-13.668 3.3359-29.305 8.1016-42.59 12.422 17.449-47.664 31.324-97.773 41.594-140.16zm-58.281 182.15c0.99609-2.2812 1.9219-4.6445 2.8906-6.9727 13.57-4.7656 36.086-12.254 55.066-17.398-1.0938 19.188-2.6992 37.906-4.9219 55.68-3.9258 0.19141-7.5234 0.25391-11.699 0.57422-19.859 1.4766-44.051 7.8477-63.383 13.906 7.6445-14.672 15.109-29.77 22.047-45.789zm7.3672 225.29c-1.6211 0.51562-3.0977 0.9375-4.7656 1.5-20.484 7.0664-37.043 11.23-49.883 12.66-3.4688 0.37109-6.8398 0.71875-9.8281 0.71875-14.531 0-34.477-4.4648-59.902-13.367-10.633-3.7188-20.074-6.4453-28.789-8.6289 11.867-12.312 24.648-26.594 37.859-42.637 8.4844-2.5664 81.086-24.254 115.46-27.949 8.7969-0.94922 16.945-1.5 24.875-1.9062-8.8906 37.238-17.723 62.68-25.031 79.609zm-2.918-106.32c-21.793 2.3516-56.113 10.883-82.777 18.156 11.914-16.512 23.773-34.402 35.316-53.711 10.895-4.1055 56.039-20.578 86.508-22.859 1.9062-0.14453 3.4805-0.16797 5.3164-0.26562-3.2539 20.82-6.6016 39.551-10.02 56.293-10.75 0.39453-22.055 1.0781-34.344 2.3867zm153.35 117.82c-9.9961-2.2188-21.371-5.4375-34.547-9.9961-4.3789-1.5-8.3516-2.6758-12.406-3.9258-19.598-6.1211-35.652-9.3711-47.711-9.3711-0.058593 0-0.13281 0.035156-0.21484 0.035156-0.070313 0-0.14453-0.035156-0.20313-0.035156-5.9766 0-12.949 0.81641-20.773 2.3516 6.5156-18.121 13.379-41.328 20.137-70.738 47.82 1.1641 77.734 11.953 101.16 20.375 0.38281 0.14453 0.71875 0.25391 1.0938 0.39453-1.0625 28.672-3.6523 52.453-6.5352 70.91zm-89.637-120.13c3.4062-17.23 6.7188-36.359 9.8984-57.301 36.492 0.12109 60.926 5.6055 83.711 12.984 1.957 22.656 2.9766 43.895 3.0859 63.227-23.352-8.2422-52.992-17.242-96.695-18.91zm101.46-172.31c-13.199-53.242-30.492-102.46-46.547-142.34 31.645 41.293 68.52 95.062 97.848 153.36-13.523-4.0781-30.695-8.1562-51.301-11.016zm6.9258 30.289c31.5 5.4258 52.414 13.57 61.535 17.664 5.6758 13.273 11.004 26.617 15.504 40.105 0.94922 2.7852 1.7383 5.4492 2.6523 8.2422h-68.855c-0.60156-4.9336-1.0781-9.707-1.7773-14.762-2.3633-17.277-5.5312-34.391-9.0586-51.25zm66.359 252.16c-4.0078 1.4141-7.6445 2.5078-11.387 3.707-18.227 5.6875-33.18 8.7969-44.93 9.3945 2.8789-18.66 5.3984-42.168 6.5039-70.152 14.004-1.7539 31.789-5.6523 50.387-12.059 16.98-5.7852 31.055-9.5391 42.793-11.52 6.2773 26.293 10.703 48.863 13.754 67.523-14.258 0.46875-33.168 4.7305-57.121 13.105zm43.547-186.16c-1.8359-5.7734-3.6016-11.387-5.5938-17.34-42.625-127.91-139.05-247.64-182.57-297.46h75.383l214.3 314.8z" fill="#79552a"/>
</svg>
