<?xml version="1.0" encoding="UTF-8"?>
<svg width="1200pt" height="1200pt" version="1.1" viewBox="0 0 1200 1200" xmlns="http://www.w3.org/2000/svg">
 <path d="m273.47 148.31c202.5 92.062 330.28 219.94 441 441.28 3.2344 6.4688 9.8438 10.359 16.781 10.359 1.8281 0 3.6562-0.28125 5.5312-0.84375 8.7656-2.6719 14.297-11.344 13.078-20.391-19.5-146.16-64.922-253.22-138.94-327.19-73.969-73.969-181.03-119.44-327.19-138.94-9.1875-1.2188-17.906 4.5-20.531 13.406-2.5781 8.9062 1.7812 18.375 10.266 22.219z" fill="#79552a"/>
 <path d="m1077.1 752.02 37.5 18.75c4.4531 2.25 7.8281 6.0938 9.375 10.828l15.797 47.344 60.188 20.062v-380.21c0-5.7656-2.625-11.25-7.2188-14.812-4.5469-3.5625-10.5-4.7812-16.078-3.4219l-75 18.75c-6.4688 1.5938-11.625 6.5625-13.5 13.031l-36.188 126.56-68.438 68.438-52.031 17.344c-6.375 2.1562-11.156 7.5-12.469 14.109l-17.625 88.172-48.562 48.562-60.938 15.234-86.484-69.188c-4.5938-3.6562-10.594-4.9688-16.266-3.5625l-75 18.75c-4.8281 1.2188-9 4.3125-11.531 8.5312l-43.875 73.125 48.984 48.984h48.469c4.9688 0 9.75 1.9688 13.266 5.4844l37.5 37.5c7.3125 7.3125 7.3125 19.219 0 26.531-3.6562 3.6562-8.4375 5.4844-13.266 5.4844s-9.5625-1.8281-13.266-5.4844l-32.016-32.016h-48.469c-4.9688 0-9.75-1.9688-13.266-5.4844l-60-60-100.59 28.734c-3.6094 1.0312-6.8438 3.1406-9.2812 6l-93.75 112.5c-4.6875 5.5781-5.6719 13.359-2.5781 19.969 3.0938 6.5625 9.7031 10.828 16.969 10.828h487.31l58.875-103.03c3.3281-5.8594 9.5625-9.4688 16.312-9.4688h64.969l31.922-47.906c3.4688-5.25 9.3281-8.3438 15.609-8.3438h75c10.359 0 18.75 8.3906 18.75 18.75s-8.3906 18.75-18.75 18.75h-64.969l-31.922 47.906c-3.4688 5.25-9.3281 8.3438-15.609 8.3438h-64.125l-42.844 75h313.22c10.359 0 18.75-8.3906 18.75-18.75v-180.24l-80.906-27c-5.625-1.875-9.9844-6.2812-11.859-11.859l-16.312-48.891-30.562-15.281c-9.2812-4.6406-13.031-15.891-8.3906-25.125 4.6406-9.2812 15.891-13.031 25.125-8.3906z" fill="#79552a"/>
 <path d="m473.53 320.39-467.81 453.66c-3.6562 3.5156-5.6719 8.2969-5.7187 13.312-0.046875 5.0156 1.9687 9.8438 5.4844 13.406l56.25 56.25c3.5156 3.5156 8.2969 5.4844 13.266 5.4844h0.14062c5.0156-0.046875 9.8438-2.0625 13.312-5.7188l452.81-466.97c-21.422-24.938-43.922-48-67.734-69.469z" fill="#79552a"/>
 <path d="m667.97 259.22 20.484-21.141c7.125-7.3594 7.0312-19.078-0.1875-26.344l-37.5-37.5c-7.2188-7.2188-18.938-7.3125-26.344-0.1875l-21.141 20.484c12 9.6562 23.391 19.781 34.125 30.562 10.734 10.734 20.906 22.125 30.562 34.125z" fill="#79552a"/>
</svg>
