<?xml version="1.0" encoding="UTF-8"?>
<svg width="1200pt" height="1200pt" version="1.1" viewBox="0 0 1200 1200" xmlns="http://www.w3.org/2000/svg">
 <path d="m1080 1060h-271.2l-26.602-178.6v-0.19922l-58.602-392.8 217.6 46.801v177.4h-29c-11 0-20 8.8008-20 20v170c0 11 9 20 20 20h98c11 0 20-9 20-20v-170c0-11.199-9-20-20-20h-29v-191.4l23.199-96.801c1.3984-5.1992 0.39844-10.602-2.3984-15.199-2.6016-4.6016-7.1992-7.8008-12.398-9l-620.4-133.4c5.8008-52.199 2.6016-103.8-10-151.8-1.6016-6.1992-6-11.199-11.801-13.398-5.6016-2.3984-12.398-2-17.602 1.1992-59.801 35-106.8 103.4-125.6 182.6-19 79.398-8 161.6 29.199 219.8 3.3984 5.1992 9 8.6016 15.199 9.1992h1.6016c5.8008 0 11.199-2.3984 15-6.6016 26.801-30 49-65 66.398-103.4l176 37.801-92.199 617.8h-295.4c-11 0-20 9-20 20s9 20 20 20h960c11 0 20-9 20-20s-9-20-20-20zm-345-224-210.8-173.6 160.6-163.6zm-81.199-362.4-130.2 132.6 23.199-155.6zm-144.6 228.4 218.6 180-269.2 159.4zm237.8 215 21.398 143h-262.8z" fill="#79552a"/>
</svg>
