<?xml version="1.0" encoding="UTF-8"?>
<svg width="1200pt" height="1200pt" version="1.1" viewBox="0 0 1200 1200" xmlns="http://www.w3.org/2000/svg">
 <path d="m798.67 433.33h-401.34c-13.332 0-25.332 12-25.332 25.332v401.33c0 13.332 12 25.332 25.332 25.332h401.33c13.332 0 25.332-12 25.332-25.332l0.003906-401.33c0-13.336-12-25.336-25.332-25.336zm-77.336 244c0 5.332-4 9.332-10.668 9.332l-83.996 0.003907v86.664c0 5.332-4 10.668-9.332 10.668h-36c-5.332 0-9.332-4-9.332-10.668v-85.332h-85.332c-5.332 0-10.668-4-10.668-9.332v-36c0-5.332 4-9.332 10.668-9.332h85.332l-0.003906-86.668c0-5.332 4-10.668 9.332-10.668h36c5.332 0 9.332 4 9.332 10.668v85.332h85.332c5.332 0 10.668 4 10.668 9.332l0.003907 36z" fill="#79552a"/>
 <path d="m820 189.33h28c24 0 42.668-18.668 42.668-42.668v-63.996c0-24-18.668-42.668-42.668-42.668h-498.67c-24 0-42.664 18.668-42.664 42.668v64c0 24 18.668 42.668 42.668 42.668h28c-65.332 33.332-110.67 101.33-110.67 178.67v682.67c0 56 45.332 100 100 100h461.33c56 0 100-45.332 100-100v-682.67c1.332-77.332-44-145.33-108-178.67zm-414.67-36v-78.664h29.332v78.668zm58.668-78.664h29.332v78.668h-29.332zm297.33 78.664v-78.664h29.332v78.668zm-29.332 0h-29.332v-78.664h29.332zm-60 0h-29.332v-78.664h29.332zm-58.668 0h-29.332v-78.664h29.332zm-60 0h-29.332v-78.664h29.332zm301.34-70.664v64c0 4-2.668 8-8 8h-25.332l-0.003907-80h25.332c4.0039 0 8.0039 4 8.0039 8zm-512 64v-64c0-4 2.668-8 8-8h25.332v78.668h-25.332c-5.3359-0.003907-8-2.668-8-6.668zm552 904c0 36-29.332 65.332-65.332 65.332h-461.34c-36 0-65.332-29.332-65.332-65.332v-682.67c0-90.668 74.668-165.33 165.33-165.33h260c90.668 0 165.33 74.668 165.33 165.33v682.67z" fill="#79552a"/>
</svg>
