<?xml version="1.0" encoding="UTF-8"?>
<svg width="1200pt" height="1200pt" version="1.1" viewBox="0 0 1200 1200" xmlns="http://www.w3.org/2000/svg">
 <path d="m888.97 295.37 40.02-40.02c9.0117-9.0117 25.328-7.3047 32.633 0l60.957 60.957c9.0117 9.0117 9.0117 23.621 0 32.633l-40.02 40.02c-9.0117 9.0117-25.328 7.3047-32.633 0l-60.957-60.957c-9.0117-9.0117-9.0117-23.621 0-32.633z" fill="#79552a"/>
 <path d="m608.52 423.13 54.797-54.797 246.29 246.29-54.797 54.797z" fill="#79552a"/>
 <path d="m940.98 573.34c10.418-21.543 13.883-45.793 9.9141-69.395-3.9648-23.602-15.168-45.387-32.055-62.34l-82.504-82.508c-16.957-16.887-38.742-28.09-62.344-32.059-23.602-3.9648-47.852-0.5-69.395 9.918z" fill="#79552a"/>
 <path d="m837.85 951.41c-47.16 1.0391-93.84-9.6289-135.86-31.047-32.875-17.215-69.613-25.715-106.71-24.68-37.082-1.0312-73.809 7.4648-106.67 24.68-41.98 21.418-88.621 32.086-135.74 31.047-47.129 1.0391-93.785-9.6289-135.78-31.047-32.867-17.211-69.602-25.711-106.69-24.68v-69.66c47.129-1.0391 93.785 9.6289 135.78 31.047 32.867 17.215 69.602 25.711 106.69 24.68 37.078 1.0312 73.801-7.4648 106.65-24.68 41.988-21.418 88.633-32.086 135.76-31.047 47.137-1.043 93.793 9.625 135.79 31.047 32.898 17.215 69.66 25.711 106.78 24.68 37.105 1.0273 73.855-7.4688 106.75-24.68 42.004-21.422 88.668-32.09 135.81-31.047v69.66c-37.105-1.0273-73.855 7.4688-106.75 24.68-42.004 21.426-88.668 32.094-135.81 31.047z" fill="#79552a"/>
 <path d="m443.59 651.49c34.637-16.902 71.715-28.262 109.88-33.66 14.27-1.5977 28.613-2.4062 42.969-2.4219 35.598-0.30859 71 5.3477 104.73 16.734 13.062 4.543 25.688 10.121 38.258 15.727 11.949 5.3281 23.523 9.9805 35.109 13.93l-202.35-202.35-211.48 211.48c28.641-0.96484 56.805-7.5703 82.887-19.445z" fill="#79552a"/>
 <path d="m1069.7 642.43c-86.316 28.016-188.56 67.793-280.63 49.738v-0.003906c-32.844-9.8203-64.945-21.961-96.066-36.332-44.059-14.383-90.754-18.848-136.74-13.07-35.598 5.082-70.164 15.762-102.42 31.652-34.41 15.719-72.004 23.223-109.81 21.926-39.469-2.8828-77.965-13.598-113.24-31.516-38.031-16.238-79.012-24.438-120.36-24.082-1.7461 19.867-1.7461 39.848 0 59.711 2.9375 15.574 4.2344 9.2383 24.227 10.887v0.003906c18.352 1.4102 36.438 5.2617 53.773 11.449 26.988 9.7656 51.836 24.227 79.512 32.316v0.003907c41.758 11.469 85.41 14.348 128.31 8.4609 68.523-8.6445 123.66-52.008 193.95-53.098h-0.003907c36.57-0.75781 72.844 6.7578 106.1 21.984 27.203 13.379 56.004 23.23 85.699 29.316 103.2 17.57 212.26-21.641 309.19-53.062z" fill="#79552a"/>
</svg>
