<?xml version="1.0" encoding="UTF-8"?>
<svg width="1200pt" height="1200pt" version="1.1" viewBox="0 0 1200 1200" xmlns="http://www.w3.org/2000/svg">
 <path d="m218.47 757.46c9.7812 0 17.785-7.9453 17.785-17.809 0-9.7812-8.0039-17.746-17.785-17.746-9.8398 0-17.809 7.957-17.809 17.746 0 9.8633 7.9688 17.809 17.809 17.809" fill="#79552a"/>
 <path d="m105.54 830.62c9.8281 0 17.797-7.9453 17.797-17.762 0-9.8281-7.9688-17.762-17.797-17.762-9.8398 0-17.785 7.9336-17.785 17.762 0.003906 9.8164 7.957 17.762 17.785 17.762" fill="#79552a"/>
 <path d="m157.74 874.03c9.8281 0 17.797-7.9219 17.797-17.746 0-9.8281-7.9688-17.773-17.797-17.773-9.7812 0-17.762 7.9453-17.762 17.773 0.003907 9.8281 7.9844 17.746 17.762 17.746" fill="#79552a"/>
 <path d="m107.61 903.79c9.8281 0 17.809-7.9336 17.809-17.785 0-9.7812-7.9805-17.746-17.809-17.746-9.793 0-17.746 7.957-17.746 17.746-0.003906 9.8516 7.9531 17.785 17.746 17.785" fill="#79552a"/>
 <path d="m19.824 824.35c9.8164 0 17.785-7.9453 17.785-17.809 0-9.7695-7.9805-17.734-17.785-17.734-9.8047 0-17.785 7.957-17.785 17.734-0.011718 9.8633 7.9688 17.809 17.785 17.809" fill="#79552a"/>
 <path d="m216.7 1066.6c9.7422 0 17.762-7.9219 17.762-17.785 0-9.793-8.0156-17.746-17.762-17.746-9.8281 0-17.809 7.9453-17.809 17.746 0 9.8672 7.9688 17.785 17.809 17.785" fill="#79552a"/>
 <path d="m216.36 849.46c9.793 0 17.762-7.957 17.762-17.809 0-9.7812-7.9805-17.723-17.762-17.723s-17.797 7.9336-17.797 17.723c0 9.8516 8.0156 17.809 17.797 17.809" fill="#79552a"/>
 <path d="m492.41 965.04c9.793 0 17.762-7.9336 17.762-17.797 0-9.7812-7.9805-17.734-17.762-17.734s-17.809 7.9453-17.809 17.734c0.003906 9.8672 8.0195 17.797 17.809 17.797" fill="#79552a"/>
 <path d="m552.21 1087.5c9.7812 0 17.762-7.9453 17.762-17.797 0-9.793-7.9805-17.734-17.762-17.734s-17.809 7.9336-17.809 17.734c0 9.8555 8.0195 17.797 17.809 17.797" fill="#79552a"/>
 <path d="m557.96 965.04c9.793 0 17.762-7.9336 17.762-17.797 0-9.7812-7.9805-17.734-17.762-17.734s-17.809 7.9453-17.809 17.734c0 9.8672 8.0273 17.797 17.809 17.797" fill="#79552a"/>
 <path d="m530.36 909.83c9.7812 0 17.762-7.9453 17.762-17.797 0-9.7812-7.9805-17.723-17.762-17.723-9.793 0-17.809 7.9336-17.809 17.723 0 9.8516 8.0156 17.797 17.809 17.797" fill="#79552a"/>
 <path d="m623.52 928.81c9.793 0 17.762-7.9453 17.762-17.809 0-9.7812-7.9688-17.734-17.762-17.734-9.7812 0-17.797 7.9453-17.797 17.734 0 9.8633 8.0156 17.809 17.797 17.809" fill="#79552a"/>
 <path d="m174.53 809.72c9.8398 0 17.809-7.9453 17.809-17.797 0-9.7812-7.9688-17.734-17.809-17.734-9.8164 0-17.785 7.9453-17.785 17.734 0 9.8438 7.9688 17.797 17.785 17.797" fill="#79552a"/>
 <path d="m33.434 1115c-1.8477 0-3.7305-0.3125-5.5781-0.96094-8.7109-3.0859-13.285-12.648-10.199-21.348 1.4414-4.0781 14.902-40.176 44.398-53.543 21.684-9.8047 42.277-10.801 61.246-2.9414 33.973 14.09 48.539 52.141 49.152 53.746 3.2383 8.6523-1.1523 18.301-9.793 21.527-8.6875 3.2539-18.301-1.1289-21.539-9.7812-0.070313-0.20313-10.285-26.219-30.793-34.633-10.176-4.1758-21.445-3.3359-34.465 2.5664-14.172 6.4062-24.254 27.359-26.664 34.199-2.4336 6.8594-8.8789 11.168-15.766 11.168z" fill="#79552a"/>
 <path d="m952.75 1087.2c-29.941 0-57.406-19.656-77.258-54.012-19.824 34.355-47.293 54.012-77.258 54.012-29.965 0-57.434-19.656-77.27-54.012-19.848 34.355-47.305 54.012-77.27 54.012-9.1562 0-16.57-7.4141-16.57-16.586 0-9.1445 7.4141-16.559 16.57-16.559 23.82 0 47.426-25.465 61.621-66.469 2.3047-6.6719 8.5938-11.16 15.66-11.16 7.0664 0 13.332 4.4883 15.66 11.16 14.184 41.004 37.777 66.469 61.621 66.469 23.809 0 47.426-25.465 61.609-66.469 2.3164-6.6719 8.6055-11.16 15.66-11.16s13.344 4.4883 15.66 11.16c14.207 41.004 37.789 66.469 61.609 66.469 23.832 0 47.449-25.465 61.633-66.469 2.3164-6.6719 8.5938-11.16 15.672-11.16 7.043 0 13.344 4.4883 15.637 11.16 13.391 38.688 35.699 64.094 58.234 66.289 9.1094 0.88672 15.742 8.9883 14.855 18.109-0.89844 9.0977-8.9648 15.695-18.109 14.855-27.672-2.6992-52.367-21.758-70.668-53.605-19.883 34.344-47.352 53.965-77.301 53.965z" fill="#79552a"/>
 <path d="m664.84 230.22h-69.781v332.61c-63.012 11.891-166.74 47.773-254.99 155.55-45.18 55.188-72.18 140.16-83.688 183.09-10.922-6.6133-25.477-12.289-43.199-12.289-37.176 0-55.812 17.52-57.805 19.523-6.5391 6.5273-6.5508 17.125-0.023438 23.664 6.5391 6.5508 17.125 6.5273 23.664 0.023438 0.097656-0.10938 11.207-9.7578 34.176-9.7578 24.422 0 39.215 18.359 39.758 19.043 3.2031 4.1875 8.1484 6.5625 13.285 6.5625 1.2227 0 2.4609-0.13281 3.6953-0.40625 6.3711-1.4414 11.328-6.4688 12.684-12.852 0.26562-1.2617 27.371-126.98 83.363-195.38 78.203-95.496 170.96-129.79 229.09-142.14v38.484c-47.773 10.656-116.52 40.98-183.9 123.91-60.938 75.023-90.59 187-104.2 259.57-15.758-30.035-41.578-58.262-82.945-58.262-0.35938 0-0.74219 0-1.1172 0.023438-25.922 0.27734-49.043 13.824-64.223 25.523-14.363-25.273-41.773-51.781-84-45.047-63.07 10.094-73.969 61.246-74.398 63.406-1.8008 9.0703 4.0781 17.867 13.141 19.68 9.0469 1.8711 17.867-4.0781 19.68-13.129 0.058594-0.30078 6.5156-30.457 46.859-36.91 40.895-6.6836 55.969 42.551 56.566 44.578 1.6914 5.8438 6.4219 10.309 12.348 11.664 5.9531 1.3906 12.121-0.625 16.188-5.1484 0.27734-0.30078 28.465-30.816 58.223-31.176h0.625c57.625 0 72.602 98.941 72.742 99.961 1.1875 8.2422 8.2695 14.316 16.547 14.316h0.46875c8.4844-0.22656 15.457-6.7695 16.211-15.215 0.19141-2.0508 19.129-204.25 107.26-312.74 35.258-43.391 70.453-70.754 101.93-88.078-29.676 24.648-54.816 54.457-74.879 89.688-70.094 123.09-59.172 317.1-58.68 325.29 0.45703 7.4297 6.0234 13.523 13.391 14.664 0.80469 0.13281 1.5977 0.17969 2.3984 0.17969 6.4688 0 12.395-3.9727 14.762-10.176 0.22656-0.57422 22.766-58.512 64.836-79.535 41.664-20.82 81.121-9.4922 81.445-9.3828 8.3164 2.5078 17.195-2.125 19.766-10.453 2.5781-8.3398-2.125-17.184-10.465-19.754-2.0898-0.66016-51.516-15.348-104.88 11.316-20.82 10.402-37.465 27.023-50.074 43.559 1.8125-65.914 11.891-174.39 54.984-250.07 26.074-45.816 60.371-80.891 103.39-106.59v89.242h69.781v-56.809h0.33594v-438.38h-0.33594l-0.007813-55.434z" fill="#79552a"/>
 <path d="m1156.4 36.996v248.64h-464.04v438.38h464.04v463.97h43.598v-1151z" fill="#79552a"/>
</svg>
