<?xml version="1.0" encoding="UTF-8"?>
<svg width="1200pt" height="1200pt" version="1.1" viewBox="0 0 1200 1200" xmlns="http://www.w3.org/2000/svg">
 <path d="m1200 900c0-33.324 0-66.672-16.668-66.672-66.672 0-150 83.328-200 83.328h-50.004c-67.355-31.895-144.57-56.207-225.14-72.863-48.781-37.969-109.12-127.13-124.85-127.13-11.281 0-75.961 61.031-116.62 100.51-220.07-3.6484-418.56 50.582-466.71 166.15 51.422 113.12 280.55 150.04 518.96 138.27 33.695 34.008 83.531 78.395 114.37 78.395 22.68 0 14.508-53.902 6.9727-88.43 43.848-5.1016 86.977-11.734 128.44-19.68 51.875 24.527 126.77 58.105 147.93 58.105 20.449 0 22.078-56.352 20.258-99.996h46.402c50.004 0 133.33 83.328 200 83.328 16.668 0 16.668-33.324 16.668-66.672 0-53.062-33.324-66.672-33.324-83.328-0.003907-16.656 33.32-30.254 33.32-83.316zm-1066.7 83.328c-18.406 0-33.336-14.914-33.336-33.324 0-18.406 14.93-33.336 33.336-33.336s33.324 14.93 33.324 33.336-14.918 33.324-33.324 33.324z" fill="#79552a"/>
 <path d="m1200 533.33c-20.832 8.3281-41.676 16.668-66.672 16.668-50.004 0-83.328-33.336-133.33-33.336-49.992 0-83.328 33.336-133.32 33.336-50.004 0-83.34-33.336-133.33-33.336-50.004 0-83.328 33.336-133.33 33.336-50.004 0-83.328-33.336-133.33-33.336-50.004 0-83.328 33.336-133.33 33.336s-83.328-33.336-133.33-33.336-83.328 33.336-133.33 33.336c-24.996 0-45.828-8.3047-66.672-16.633v99.996c20.832 8.3281 41.664 16.645 66.672 16.645 50.004 0 83.328-33.336 133.33-33.336s83.34 33.336 133.33 33.336c49.992 0 83.328-33.336 133.33-33.336 50.004 0 83.34 33.336 133.33 33.336 50.004 0 83.328-33.336 133.33-33.336 49.992 0 83.328 33.336 133.33 33.336 49.992 0 83.328-33.336 133.32-33.336 50.004 0 83.328 33.336 133.33 33.336 24.996 0 45.828-8.3281 66.672-16.68z" fill="#79552a"/>
 <path d="m750 316.67c0 82.848-67.164 150-150 150-82.848 0-150-67.152-150-150 0-82.848 150-316.67 150-316.67s150 233.82 150 316.67z" fill="#79552a"/>
</svg>
